<svg width="59" height="57" viewBox="0 0 59 57" fill="none" xmlns="http://www.w3.org/2000/svg">
<path d="M58.5 28.5C58.5 43.9479 45.5326 56.5 29.5 56.5C13.4673 56.5 0.5 43.9479 0.5 28.5C0.5 13.0521 13.4673 0.5 29.5 0.5C45.5326 0.5 58.5 13.0521 58.5 28.5Z" stroke="#B0B3FB"/>
<path d="M35.818 28.086L36.053 28.183C35.827 28.722 35.722 29.2 35.554 29.756C34.97 30.123 34.559 30.809 34.383 31.495L33.831 31.525C33.484 31.434 32.93 31.361 32.576 31.302C32.414 30.978 32.872 30.028 33.342 29.642C34.011 29.247 34.471 28.755 34.826 28.003C34.826 28.003 35.682 28.085 35.819 28.086H35.818Z" fill="#FAA51E"/>
<path d="M24.98 20.14C24.401 18.595 22.571 19.123 21.926 19.797C18.915 17.387 16.703 21.986 21.926 24.593C23.007 24.177 25.715 22.037 24.98 20.14Z" fill="#FC5061"/>
<path d="M39.156 22.199C38.854 19.884 37.465 19.668 36.287 19.248C35.787 19.071 34.601 17.963 34.399 17.792C31.199 15.183 27.719 17.783 26.624 20.716C25.608 22.532 26.585 25.739 26.811 26.534C27.05 26.545 27.32 26.607 27.563 26.586C27.529 25.84 27.837 25.273 28.092 24.537L28.304 24.243C28.046 24.146 28.984 22.572 29.045 22.67C29.059 22.64 29.209 22.655 29.22 22.63C30.462 22.603 31.021 23.616 31.865 22.479C32.436 25.82 36.594 26.041 36.586 26.396C36.579 26.734 36.92 27.252 36.71 27.519C36.767 27.582 36.814 27.656 36.853 27.732C38.11 26.479 39.327 24.01 39.156 22.199Z" fill="#594449"/>
<path d="M37.5649 34.653C37.1829 34.772 36.7409 34.803 36.3379 34.739C36.4259 35.349 36.6699 35.976 37.0379 36.467C37.1769 36.643 37.3419 36.799 37.4529 36.994C37.7679 37.662 37.7119 38.776 37.1859 39.33C36.8759 39.669 36.2279 39.673 36.0179 39.228C35.9069 38.986 35.9839 38.705 35.9859 38.438C35.7839 36.358 33.4139 36.564 33.2879 33.727C31.9629 33.195 30.3279 32.664 28.8569 32.942C28.0929 33.045 26.3979 33.221 26.5119 34.268C28.2349 33.856 30.1249 33.765 31.7369 34.645C32.3079 34.967 32.7479 35.474 33.1739 35.972C33.6479 36.578 34.2589 37.104 34.6319 37.779C34.8449 38.294 34.6439 38.891 34.7619 39.436C34.8619 40.15 36.3149 41.46 37.0549 41.298V41.301C38.0989 40.762 38.5629 39.469 38.7169 38.36C38.9389 36.878 38.8199 33.847 38.8199 33.847C38.4899 34.221 38.0569 34.504 37.5659 34.652" fill="#FFA4A4"/>
<path d="M31.981 36.204C31.523 36.221 31.062 36.137 30.64 35.957C30.28 35.804 29.928 35.579 29.537 35.589C28.978 35.647 28.466 35.995 27.88 35.934C27.674 35.934 27.413 35.872 27.38 35.667C27.418 35.164 28.306 34.919 28.731 34.853C28.675 34.739 28.51 34.762 28.387 34.793C27.779 34.936 26.772 34.946 26.512 34.269C28.235 33.857 30.125 33.766 31.737 34.647C32.308 34.969 32.748 35.476 33.174 35.974C33.648 36.58 34.259 37.106 34.632 37.781C34.845 38.296 34.644 38.893 34.762 39.438C34.861 40.153 36.318 41.463 37.055 41.3V41.303C35.479 41.912 34.228 40.313 33.426 39.172C32.865 38.283 32.543 37.249 32.234 36.248L31.981 36.206V36.204Z" fill="#FFD7CD"/>
<path d="M32.811 31.066C31.428 30.832 30.004 30.841 28.624 31.091L28.613 31.028C27.584 30.199 27.313 28.73 27.523 27.476C27.618 27.862 28.162 27.945 28.364 28.287C28.5 28.519 28.814 28.61 28.996 28.811C29.374 29.28 29.58 29.583 30.136 29.876C30.683 30.113 31.101 29.995 31.663 29.98C32.359 29.965 32.889 30.332 33.485 29.98L32.812 31.066H32.811Z" fill="#FFA4A4"/>
<path d="M32.68 37.603L32.526 37.658C32.113 38.034 31.465 38.434 30.895 38.292C30.583 38.115 31.123 37.273 30.975 36.713C30.975 36.596 30.883 36.515 30.774 36.577C30.348 36.756 30.122 37.21 29.841 37.577C29.317 38.256 28.479 38.796 27.593 38.605C26.489 38.456 25.407 38.177 24.318 37.948C23.798 37.885 23.546 37.543 23.653 37.025C23.701 36.584 23.814 35.856 23.943 35.145C22.365 34.309 21.143 34.663 19.55 35.127C19.392 36.82 19.386 38.56 19.764 40.225C20.001 41.764 23.751 41.783 24.994 41.729C26.797 41.688 28.553 41.098 30.344 41.021C31.679 41.495 33.274 40.705 33.365 39.208L33.425 39.171C33.118 38.684 32.881 38.151 32.679 37.604L32.68 37.603Z" fill="#FFD7CD"/>
<path d="M36.552 25.772C36.455 25.744 36.353 25.739 36.249 25.752C36.279 25.687 36.389 25.456 36.417 25.395C36.417 25.395 33.132 23.895 32.562 20.554C31.717 21.69 30.239 22.221 28.997 22.248C28.986 22.273 28.973 22.3 28.959 22.331C28.722 21.881 28.111 21.854 27.745 22.182C27.111 22.775 26.921 24.246 27.874 24.626C26.798 26.611 27.662 29.227 29.712 30.163C31.737 31.147 34.301 30.161 35.155 28.069C35.3 28.159 35.47 28.161 35.63 28.195C35.766 27.686 36.163 26.951 36.711 27.52C37.166 27.034 37.302 26.026 36.553 25.773L36.552 25.772Z" fill="#FFD7CD"/>
<path d="M28.6131 31.028C27.14 29.812 27.596 28.228 27.407 26.588C24.841 26.123 22.097 28.095 20.987 30.101C20.132 31.616 19.719 33.41 19.55 35.126C21.143 34.662 22.366 34.308 23.943 35.144C24.06 34.496 24.191 33.861 24.298 33.47H24.316C24.345 33.315 24.479 33.193 24.573 33.07C24.581 33.031 24.658 32.945 24.687 32.942C25.682 31.866 27.191 31.349 28.625 31.091L28.614 31.028H28.6131Z" fill="#FFCE5F"/>
<path d="M30.785 25.498C30.233 25.443 29.756 25.252 29.472 24.78C29.417 24.592 29.713 24.509 29.763 24.699C29.793 24.764 30.054 24.972 30.238 25.059C30.424 25.146 30.753 25.215 30.826 25.194C30.901 25.158 30.989 25.191 31.025 25.266C31.09 25.419 30.93 25.51 30.786 25.498H30.785Z" fill="#594449"/>
<path d="M34.037 27.035C33.485 26.979 33.008 26.788 32.724 26.315C32.67 26.127 32.965 26.045 33.015 26.235C33.045 26.3 33.305 26.508 33.49 26.595C33.676 26.683 34.004 26.752 34.078 26.731C34.153 26.695 34.241 26.728 34.277 26.803C34.342 26.957 34.181 27.048 34.037 27.035Z" fill="#594449"/>
<path d="M28.5309 22.983C28.5279 22.774 28.4479 22.582 28.3029 22.431C28.2649 22.392 28.1989 22.444 28.2359 22.484C28.4669 22.71 28.4899 23.058 28.3829 23.35C27.9389 23.078 27.4599 23.957 27.9129 24.197C28.2259 24.217 28.5299 23.331 28.5299 22.983H28.5309Z" fill="#FFA4A4"/>
<path d="M36.523 26.321C36.118 26.295 35.809 26.616 35.657 26.961C35.5 27.187 35.366 27.662 35.504 27.713C35.965 27.888 36.289 26.972 35.804 26.842C36.088 26.275 36.711 26.455 36.522 26.32L36.523 26.321Z" fill="#FFA4A4"/>
<path d="M36.417 25.394C36.417 25.394 33.132 23.894 32.562 20.553C31.717 21.689 30.239 22.22 28.997 22.247C28.986 22.272 31.357 22.311 32.374 21.346C32.919 24.075 36.415 25.399 36.417 25.393V25.394Z" fill="#FFA4A4"/>
<path d="M28.6131 31.028L28.8261 31.674C28.5691 31.719 28.7811 31.762 28.5281 31.826C27.3491 32.12 26.2091 32.374 25.3951 33.258C25.3661 33.261 25.1751 33.219 25.1671 33.258C25.1111 33.323 24.8681 33.189 24.8171 33.258C25.3961 33.395 25.9731 33.518 25.3421 33.512L25.0621 33.862C24.9541 34.253 24.9341 34.495 24.8171 35.143L23.9001 35.135C23.5521 34.942 23.1731 34.802 22.7841 34.72C23.0811 33.793 23.5121 32.91 24.0631 32.108C25.1321 30.631 27.2641 28.433 25.5101 26.721L25.4941 26.648C26.1261 26.486 26.7681 26.518 27.4071 26.588C27.5971 28.233 27.1381 29.807 28.6131 31.028Z" fill="#FAA51E"/>
<path d="M39.156 22.199C39.208 22.601 39.181 23.013 39.102 23.426C36.62 23.929 33.623 21.79 33.762 19.178C32.413 20.121 30.663 20.225 29.017 20.211C28.338 20.246 27.615 20.035 27.235 19.434C28.706 17.368 32.104 15.063 34.877 17.116C37.153 18.636 38.685 18.175 39.156 22.199Z" fill="#6D555C"/>
<path d="M31.1959 26.677C31.0639 26.948 30.8639 27.178 30.6109 27.342C30.5669 27.37 30.5569 27.447 30.6109 27.472C30.7369 27.532 30.8499 27.619 30.9339 27.732C30.9579 27.764 30.9989 27.782 31.0369 27.759C31.1769 27.628 30.7919 27.4 30.6869 27.342V27.472C30.9609 27.295 31.1839 27.046 31.3269 26.753C31.3689 26.666 31.2389 26.589 31.1969 26.677H31.1959Z" fill="#FFA4A4"/>
<path d="M29.2679 27.965C29.3889 29.037 30.2449 29.27 31.1819 29.083C31.2779 29.069 31.2369 28.923 31.1419 28.937C29.0589 29.36 29.5949 27.402 29.2679 27.964V27.965Z" fill="#FFA4A4"/>
<path d="M36.662 28.231C36.661 28.593 36.478 29.405 36.478 29.405C36.215 29.974 35.72 29.967 35.304 29.705C35.388 29.459 35.539 27.302 36.346 27.32C36.346 27.32 36.662 27.932 36.662 28.231Z" fill="#F4BABA"/>
<path d="M33.425 39.171L33.365 39.208C33.318 40.299 32.252 41.228 31.17 41.164C31.376 40.997 31.42 40.673 31.387 40.398C31.318 39.537 30.589 38.683 29.677 38.793C27.654 39.605 25.376 39.992 23.3 39.085C23.014 38.969 22.723 38.825 22.541 38.577C21.985 37.595 22.497 35.772 22.784 34.722C23.679 34.674 27.179 37.606 28.049 37.767C28.136 37.537 30.987 35.881 31.385 36.417C31.424 36.755 31.793 37.709 32.156 37.354L32.68 37.603C32.882 38.151 33.119 38.683 33.426 39.17L33.425 39.171Z" fill="#FFA4A4"/>
<path d="M32.68 37.603C32.669 37.619 30.351 39.145 30.863 37.721C30.938 37.538 31.171 36.421 30.774 36.577C30.348 36.756 30.122 37.21 29.841 37.577C29.597 37.894 29.292 38.164 28.947 38.365C28.542 38.622 28.061 38.69 27.593 38.605C28.302 38.124 29.309 37.289 28.76 36.018L28.527 35.872C29.472 35.527 29.72 35.471 30.64 35.958C31.14 36.202 31.699 36.176 32.233 36.247C32.373 36.7 32.515 37.157 32.679 37.604L32.68 37.603Z" fill="#A6A6A6"/>
<path d="M40.988 29.893C40.538 29.431 38.929 30.121 38.747 30.13C38.381 29.744 37.91 29.474 37.384 29.353C37.282 29.18 37.045 27.378 36.345 27.321C36.68 28.106 36.552 28.633 36.348 29.314C35.273 29.477 34.378 30.282 34.107 31.341C31.177 30.545 26.117 30.651 24.315 33.472H24.297C24.068 34.304 23.743 36.194 23.652 37.025C23.548 37.543 23.793 37.884 24.317 37.948C25.407 38.177 26.488 38.457 27.592 38.605C28.301 38.124 29.308 37.289 28.759 36.018L28.526 35.872C26.56 36.207 27.453 34.978 28.729 34.853C28.673 34.739 28.508 34.762 28.385 34.793C27.763 34.943 26.636 34.943 26.492 34.165C26.588 33.175 28.067 33.06 28.855 32.943C30.326 32.666 31.961 33.196 33.286 33.728C33.411 36.565 35.782 36.359 35.984 38.439C35.982 38.706 35.905 38.988 36.016 39.229C36.226 39.673 36.874 39.67 37.184 39.331C37.71 38.777 37.765 37.663 37.451 36.995C37.34 36.8 37.175 36.644 37.036 36.468C36.669 35.977 36.424 35.35 36.336 34.74C38.391 35.112 40.142 32.906 39.304 30.986C39.836 30.521 40.394 30.146 40.986 29.894L40.988 29.893ZM36.724 39.007C36.681 39.157 36.624 39.304 36.555 39.445C36.625 39.304 36.681 39.157 36.724 39.007Z" fill="white"/>
<path d="M37.788 33.214C39.174 32.19 38.975 30.928 38.385 29.81C38.792 30.109 39.113 30.514 39.306 30.985C39.362 31.12 39.776 31.067 39.81 31.212C39.856 31.412 39.72 31.574 39.72 31.787C39.72 31.804 39.512 32.061 39.511 32.078C39.499 32.756 39.24 33.376 38.819 33.848C37.572 35.341 34.987 34.928 34.257 33.138C35.225 33.874 36.609 34.028 37.788 33.215V33.214Z" fill="#E0E0EF"/>
<path d="M36.297 31.106C35.684 31.145 35.294 30.404 35.619 30.301C35.955 30.281 35.656 30.915 36.486 30.787C36.569 30.774 36.646 30.829 36.66 30.911C36.689 31.112 36.423 31.102 36.297 31.106Z" fill="#594449"/>
<path d="M38.5411 32.304C38.1101 32.304 37.8251 32.073 37.7691 31.666C37.7581 31.583 37.8151 31.507 37.8981 31.496C38.2341 31.504 37.9041 32.079 38.6561 31.996C38.7661 31.973 38.9291 31.946 38.9571 32.096C38.9851 32.318 38.6861 32.293 38.5411 32.304Z" fill="#594449"/>
<path d="M36.871 33.289C36.498 33.139 36.384 32.677 36.601 32.351C36.629 32.309 36.608 32.269 36.573 32.251C36.54 32.231 36.494 32.231 36.468 32.274C36.392 32.401 36.242 32.502 36.099 32.549C35.855 32.628 35.615 32.547 35.425 32.384C34.965 32.325 35.81 33.014 36.354 32.593C36.199 33.236 37.073 33.648 36.871 33.29V33.289Z" fill="#FFA4A4"/>
<path d="M36.488 31.913C37.153 32.048 37.137 32.441 36.488 32.517C36.291 32.479 36.159 31.895 36.488 31.913Z" fill="#BC4C61"/>
<path d="M36.958 32.666C37.323 32.911 37.758 33.04 38.198 33.034C38.295 33.033 38.295 32.882 38.198 32.883C37.783 32.888 37.378 32.767 37.034 32.535C36.953 32.481 36.878 32.611 36.958 32.665V32.666Z" fill="#594449"/>
<path d="M36.79 32.919C36.984 33.291 37.377 33.475 37.743 33.635C37.828 33.683 37.905 33.552 37.819 33.505C37.477 33.356 37.102 33.191 36.92 32.843C36.875 32.757 36.745 32.833 36.79 32.919Z" fill="#594449"/>
<path d="M36.087 31.959C35.775 31.803 35.602 31.487 35.496 31.167C35.466 31.075 35.32 31.115 35.35 31.207C35.468 31.562 35.663 31.915 36.01 32.089C36.097 32.132 36.173 32.002 36.086 31.959H36.087Z" fill="#594449"/>
<path d="M35.79 32.159C35.462 31.989 35.125 31.812 34.888 31.52C34.862 31.488 34.808 31.493 34.781 31.52C34.575 31.678 36.067 32.622 35.79 32.159Z" fill="#594449"/>
<path d="M35.85 36.013C36.891 36.881 37.046 38.388 36.54 39.575C35.287 39.314 36.769 38.213 35.064 36.776C33.728 35.717 33.327 34.972 33.25 33.261C33.885 33.343 33.942 34.151 34.191 34.616C34.537 35.258 35.294 35.54 35.85 36.013Z" fill="#E0E0EF"/>
<path d="M24.316 33.471C24.345 33.315 24.479 33.193 24.573 33.07C24.164 34.998 25.657 35.666 27.265 34.895L27.279 34.826C27.645 34.898 28.026 34.882 28.387 34.793C28.51 34.763 28.675 34.74 28.731 34.853C27.45 34.98 26.565 36.207 28.528 35.872L28.761 36.018C29.312 37.29 28.298 38.127 27.594 38.605C26.49 38.456 25.408 38.177 24.319 37.948C23.796 37.884 23.549 37.543 23.654 37.025C23.745 36.194 24.07 34.304 24.299 33.471H24.317H24.316Z" fill="#E0E0EF"/>
<path d="M40.988 29.893C41.622 30.552 39.534 31.971 39.51 32.078C39.519 31.695 39.444 31.32 39.306 30.985C39.743 30.424 40.29 30.039 40.988 29.893Z" fill="#F4BABA"/>
<path d="M24.98 20.14C25.714 22.049 23.004 24.167 21.934 24.593C21.916 24.596 21.51 24.401 20.927 23.997L20.937 23.982C21.83 23.733 22.89 22.96 23.477 22.248C24.069 21.397 24.516 20.025 23.747 19.154V19.147C24.305 19.222 24.777 19.539 24.98 20.139V20.14Z" fill="#DE354E"/>
<path d="M20.1681 19.604C21.0131 19.608 21.0131 20.893 20.1681 20.896C19.3231 20.892 19.3231 19.607 20.1681 19.604Z" fill="white"/>
<path d="M41.095 29.768C40.517 29.309 39.539 29.765 38.794 29.937C38.444 29.592 38.004 29.344 37.533 29.221C37.385 28.639 37.239 28.182 37.036 27.727C38.175 26.554 38.852 25.041 39.25 23.431C39.608 21.276 38.478 18.465 37.046 18.136C36.552 17.961 35.18 17.177 34.995 17.02C33.191 15.495 30.579 16.383 29.263 17.352C26.274 19.248 25.099 23.367 26.799 26.381C24.374 26.247 21.865 28.305 20.955 30.005C19.336 33.063 19.082 36.868 19.723 40.192C19.927 41.773 23.676 41.856 25.066 41.784C26.545 41.699 28.006 41.417 29.44 41.157C30.036 40.987 30.619 41.121 31.211 41.221C32.208 41.307 33.313 40.366 33.503 39.386C34.93 41.478 37.21 42.731 38.524 39.667C39.159 37.768 39.128 35.771 39.004 33.808C39.391 33.341 39.62 32.762 39.655 32.16C40.272 31.548 41.741 30.458 41.095 29.769V29.768ZM40.255 29.84C40.401 29.818 40.573 29.796 40.725 29.839C40.229 29.93 39.684 30.348 39.362 30.715C39.259 30.507 39.131 30.313 38.981 30.137C39.461 29.992 39.869 29.897 40.256 29.84H40.255ZM37.265 29.164C37.034 29.126 36.797 29.116 36.556 29.137C36.731 28.634 36.8 28.043 36.619 27.539C36.98 28.005 37.072 28.54 37.264 29.165L37.265 29.164ZM35.186 36.632C34.445 36.018 33.656 35.302 33.553 34.313C33.475 33.92 33.431 33.558 33.415 33.158C33.408 33 33.159 33.013 33.17 33.172C33.174 33.283 33.182 33.395 33.191 33.503C32.199 33.12 31.181 32.758 30.094 32.706C29.053 32.73 27.967 32.789 27.044 33.255C25.772 33.988 26.674 35.063 27.922 34.943C27.261 35.204 26.978 35.962 27.937 36.006C28.198 36.008 28.407 35.987 28.597 35.944C29.047 37.007 28.64 37.991 27.584 38.414C26.95 38.327 26.315 38.188 25.7 38.054C25.191 37.889 24.282 37.877 23.91 37.538C23.63 37.349 24.347 33.703 24.556 33.333C26.581 30.791 30.955 30.625 34.003 31.392C33.649 32.907 34.718 34.526 36.247 34.792C36.409 35.41 36.588 36.005 36.974 36.491C37.108 36.661 37.274 36.819 37.377 37.002C37.716 37.692 37.614 39.405 36.587 39.393C35.52 39.19 36.897 38.083 35.186 36.633V36.632ZM28.834 35.875C30.196 35.222 30.549 36.439 32.154 36.288C32.272 36.659 32.413 37.052 32.56 37.454C32.327 37.73 30.605 38.734 31.028 37.705C31.471 36.234 30.842 35.899 29.979 37.192C29.559 37.829 28.839 38.468 28.056 38.458C28.979 37.863 29.253 36.886 28.834 35.875ZM28.163 30.254C27.721 29.589 27.663 28.774 27.635 28.018C28.439 30.202 31.175 31.27 33.249 30.23C33.037 30.513 32.787 30.804 32.684 30.877C31.379 30.678 30.062 30.69 28.764 30.914C28.554 30.707 28.33 30.501 28.163 30.255V30.254ZM34.063 31.152C33.738 31.072 33.295 30.981 32.988 30.926C33.249 30.656 33.597 30.183 33.729 29.964C34.397 29.535 34.922 28.924 35.251 28.199C35.33 28.23 35.415 28.252 35.503 28.263C35.365 28.693 35.269 29.183 35.194 29.62C34.649 29.989 34.253 30.527 34.063 31.153V31.152ZM35.285 27.946C35.216 27.901 35.12 27.902 35.081 27.985C34.749 28.758 34.195 29.412 33.465 29.838C30.157 31.773 26.352 28.298 27.959 24.83C28.303 24.277 27.504 24.662 27.408 23.676C27.356 23.225 27.552 22.51 27.881 22.258C28.175 21.99 28.72 21.981 28.914 22.393C28.967 22.497 29.133 22.465 29.145 22.351C30.225 22.306 31.624 21.882 32.536 20.826C33.168 23.854 35.433 24.971 36.302 25.401C36.257 25.522 36.023 25.838 36.3 25.848C37.1 25.793 37.162 26.798 36.727 27.307C36.153 26.861 35.711 27.536 35.586 28.022C35.477 28.017 35.374 27.991 35.285 27.946ZM26.368 22.145C26.568 21.251 26.957 20.212 27.398 19.491C28.78 17.519 32.176 15.2 34.837 17.207C35.06 17.395 36.47 18.191 36.964 18.366C38.274 18.656 39.348 21.35 39.009 23.384C38.632 24.912 37.981 26.374 36.911 27.504C36.907 27.498 36.903 27.493 36.899 27.487C37.422 26.86 37.397 25.755 36.479 25.602C36.512 25.486 36.702 25.341 36.538 25.244C35.544 24.736 33.316 23.733 32.728 20.521C32.714 20.418 32.568 20.382 32.509 20.468C31.626 21.656 30.136 22.081 29.019 22.113C28.699 21.693 28.059 21.765 27.723 22.071C27.331 22.377 27.106 23.17 27.166 23.705C27.191 24.091 27.432 24.504 27.768 24.661C27.749 24.702 27.738 24.725 27.738 24.725C27.482 25.267 27.351 25.842 27.345 26.435C27.264 26.421 27.182 26.41 27.1 26.401C26.354 25.229 26.081 23.572 26.37 22.143L26.368 22.145ZM20.181 32.603C20.851 29.578 23.691 26.21 27.349 26.685C27.526 28.216 27.116 29.792 28.468 30.968C26.758 31.295 25.2 32.005 24.35 33.199C24.089 33.718 24.082 34.181 23.917 34.922C22.645 34.211 21.045 34.451 19.768 34.934C19.855 34.15 19.993 33.367 20.18 32.604L20.181 32.603ZM32.591 40.445C31.92 41.08 31.198 41.026 30.409 40.834C28.607 40.902 26.875 41.497 25.053 41.539C23.628 41.606 20.165 41.513 19.962 40.132C19.609 38.642 19.592 36.769 19.741 35.201C21.014 34.717 22.609 34.433 23.871 35.175C23.777 36.025 23.389 37.161 23.711 37.683C24.122 38.13 25.069 38.104 25.647 38.294C27.348 38.626 28.726 39.245 29.99 37.597C30.26 37.248 30.491 36.782 30.894 36.63C31.078 37.232 30.439 38.061 30.879 38.341C31.473 38.548 32.185 38.065 32.651 37.703C32.855 38.241 33.065 38.683 33.3 39.073C33.268 39.561 33.005 40.072 32.59 40.446L32.591 40.445ZM38.624 38.284C38.403 40.259 36.958 42.264 35.014 40.693C33.574 39.498 32.897 37.901 32.358 36.118C32.338 36.054 32.273 36.021 32.209 36.035C32.011 36.063 31.47 36.095 30.737 35.793C30.365 35.639 30.009 35.406 29.587 35.416C28.99 35.469 28.571 35.812 27.938 35.76C27.807 35.76 27.58 35.724 27.56 35.598C27.661 35.197 28.428 34.981 28.801 34.927C28.883 34.92 28.935 34.823 28.896 34.751C28.825 34.607 28.662 34.565 28.413 34.626C28.086 34.708 27.738 34.722 27.409 34.667C27.131 34.619 26.771 34.47 26.691 34.189C26.608 33.282 28.261 33.108 28.926 33.021C30.385 32.776 31.892 33.206 33.221 33.794C33.371 36.534 35.731 36.461 35.899 38.38C35.895 38.659 35.817 38.948 35.942 39.22C36.171 39.727 36.932 39.766 37.303 39.359C37.656 39.04 37.764 38.466 37.781 38.04C37.919 36.466 36.869 36.633 36.512 34.831C37.336 34.919 38.187 34.626 38.779 34.049C38.886 35.459 38.834 36.882 38.624 38.283V38.284ZM40.804 30.631C40.542 30.979 40.157 31.382 39.657 31.83C39.652 31.725 39.657 31.553 39.509 31.565C39.442 31.572 39.393 31.633 39.4 31.7C39.411 31.812 39.418 31.921 39.414 32.035C39.422 33.575 37.906 34.846 36.391 34.569C34.902 34.369 33.863 32.778 34.267 31.332C34.433 30.685 34.838 30.132 35.406 29.774C35.463 29.738 35.48 29.663 35.445 29.606C35.578 29.033 35.74 27.656 36.284 27.419C36.598 27.917 36.491 28.643 36.278 29.174C36.158 29.206 35.92 29.198 35.955 29.378C35.973 29.443 36.041 29.482 36.106 29.464C36.203 29.437 36.303 29.416 36.401 29.401C37.093 29.299 37.782 29.464 38.342 29.875C38.727 30.157 39.038 30.55 39.219 30.994C39.233 31.028 39.262 31.053 39.297 31.065C39.346 31.081 39.402 31.06 39.433 31.019C39.735 30.604 40.449 30.027 41.002 30.063C41.052 30.205 40.99 30.386 40.804 30.632V30.631Z" fill="#3F3436"/>
<path d="M21.948 24.682C23.254 24.294 25.878 22.079 25.161 20.09C24.677 18.814 23.162 18.63 22.003 19.631C18.82 17.254 16.657 22.073 21.948 24.683V24.682ZM19.077 20.168C19.282 19.524 19.925 19.181 20.634 19.25C20.916 19.273 21.362 19.397 21.891 19.857C21.928 19.89 21.957 19.912 22.007 19.91C25.05 17.566 26.89 21.967 22.003 24.436C20.767 23.894 18.423 21.905 19.077 20.168Z" fill="#3F3436"/>
</svg>
