<svg width="59" height="57" viewBox="0 0 59 57" fill="none" xmlns="http://www.w3.org/2000/svg">
<path d="M58.5 28.5C58.5 43.9479 45.5326 56.5 29.5 56.5C13.4673 56.5 0.5 43.9479 0.5 28.5C0.5 13.0521 13.4673 0.5 29.5 0.5C45.5326 0.5 58.5 13.0521 58.5 28.5Z" stroke="#B0B3FB"/>
<g clip-path="url(#clip0_43_2)">
<path d="M31.0975 27.3714C31.0975 27.3714 31.0966 28.3434 29.9967 28.7015C28.8968 29.0597 28.4108 30.4589 28.6666 32.202C28.6666 32.202 29.92 34.8287 32.9639 36.2031C32.9639 36.2031 34.294 34.9172 34.5754 31.8477C34.5754 31.8477 36.5389 31.4385 37.7185 32.2826C37.7185 32.2826 38.7796 28.2411 37.8925 27.1412C37.0055 26.0412 35.0614 25.8366 34.0638 27.6783C34.0638 27.6783 32.1216 28.1388 31.0975 27.3714Z" fill="white"/>
<path d="M32.901 33.5393C32.2244 33.7388 31.4785 33.6125 30.8558 33.3014C29.7248 32.7363 29.0902 31.6329 28.6743 30.4805C28.5774 31.05 28.5748 31.6316 28.6666 32.202C28.6666 32.202 29.9199 34.8287 32.9639 36.2031C32.9639 36.2031 34.1619 35.0431 34.5239 32.2997C34.0836 32.8274 33.576 33.3403 32.901 33.5393Z" fill="#C4C4D6"/>
<path d="M37.9385 23.9923C37.9385 23.9923 36.9785 22.1888 36.5537 21.2823C36.0638 20.2376 35.8221 19.0972 35.4749 17.9968C35.1276 16.8964 34.704 15.7448 33.8824 14.9345C32.0044 13.0825 30.0566 14.6101 30.0566 14.6101C30.0566 14.6101 29.8406 14.5764 29.7042 14.5715C27.6876 14.4988 25.7205 15.9747 25.2263 17.931C24.9103 19.182 25.1477 20.517 24.8766 21.7782C24.5967 23.0802 23.801 24.2016 23.2316 25.4057C22.7402 26.4446 22.4345 27.7378 23.0706 28.6949C23.6162 29.5159 24.8253 29.8074 25.6852 29.3249C25.9772 29.1611 26.2536 28.9151 26.5884 28.9188C26.7818 28.921 26.9631 29.0088 27.1317 29.1035C27.6934 29.4189 28.1968 29.8283 28.62 30.3139C28.7091 29.9448 28.8813 29.6009 29.1236 29.3085C29.3659 29.0161 29.6719 28.783 30.018 28.6269C30.9794 28.2027 32.1235 28.4267 33.102 28.0437C33.8181 27.7634 34.3715 27.1883 35.0118 26.7624C35.6522 26.3365 36.5126 26.0647 37.1763 26.4531C37.7358 25.7606 38.0086 24.8799 37.9385 23.9923Z" fill="#BE6F7C"/>
<path d="M37.9385 23.9923C37.9385 23.9923 36.9785 22.1888 36.5536 21.2823C36.0933 20.3007 35.8521 19.2345 35.5365 18.1964C35.5365 18.1964 36.1745 20.3324 33.9165 20.0475C33.5231 19.9979 33.4928 20.6844 33.0417 20.6655C32.6205 20.6475 32.2797 20.3767 32.0555 20.0374C31.7555 19.5834 31.6184 19.0805 31.5275 18.5543C31.4983 18.3853 31.2042 18.3797 31.1804 18.5543C30.9596 20.1734 29.7674 21.6165 28.1684 22.0343C27.2392 22.2772 26.3499 21.9923 25.7215 21.2697C25.3842 20.8684 25.1485 20.3918 25.0341 19.8801C25.0204 20.518 25.0101 21.1569 24.8767 21.778C24.5969 23.08 23.8011 24.2015 23.2317 25.4055C22.7403 26.4444 22.4346 27.7376 23.0707 28.6947C23.6163 29.5157 24.8255 29.8072 25.6853 29.3247C25.9773 29.1609 26.2537 28.9149 26.5885 28.9187C26.7819 28.9208 26.9632 29.0087 27.1319 29.1033C27.6935 29.4188 28.1968 29.8282 28.62 30.3139C28.709 29.9448 28.8813 29.6009 29.1236 29.3085C29.3659 29.0161 29.6718 28.783 30.018 28.6269C30.9794 28.2027 32.1234 28.4267 33.102 28.0437C33.8181 27.7634 34.3715 27.1883 35.0118 26.7624C35.6521 26.3365 36.5126 26.0647 37.1762 26.4531C37.7357 25.7606 38.0085 24.8799 37.9385 23.9923Z" fill="#864457"/>
<path d="M34.5974 31.7634C34.5974 31.7634 36.3174 31.2834 37.6175 32.3835C37.6175 32.3835 36.5975 38.9636 34.1375 41.3235C34.1375 41.3235 32.2974 40.6035 30.6173 38.5235C30.6173 38.5235 29.9973 41.0635 28.2773 41.9835C28.2773 41.9835 26.1373 39.8835 25.9173 34.1934C25.7784 33.7819 25.4841 33.4409 25.0973 33.2433C24.4525 32.9207 23.9795 31.4727 24.5972 30.4233C25.215 29.3739 26.6773 28.9433 26.6773 28.9433L27.7973 29.5233C27.7973 29.5233 28.5974 29.9433 28.5374 32.0833C28.5374 32.0833 29.9006 34.5034 31.949 35.8434C33.9975 37.1835 34.007 34.2434 34.007 34.2434L34.5974 31.7634Z" fill="#FFCAC0"/>
<path d="M34.5974 31.7634L34.3497 32.804C35.4925 32.9531 36.5577 33.476 37.1958 34.4607C37.4835 33.2472 37.6175 32.3835 37.6175 32.3835C36.3174 31.2835 34.5974 31.7634 34.5974 31.7634Z" fill="#F29797"/>
<path d="M30.4585 38.5172C30.2235 38.1524 29.9856 37.7894 29.7448 37.4283C29.3031 36.7669 28.8674 36.1018 28.4298 35.4377C28.0017 34.7879 27.633 34.1213 27.2219 33.4628C26.5075 32.3184 25.3222 32.0223 25.0953 31.7393C24.862 31.4484 24.7533 30.7988 24.6117 30.4565C24.607 30.4453 24.6024 30.4339 24.5977 30.4224L24.5971 30.4234C23.9791 31.4729 24.4524 32.9208 25.0971 33.2434C25.484 33.441 25.7782 33.782 25.9171 34.1936C25.9171 34.1936 26.0851 39.5349 27.8785 41.4795C27.9967 41.6586 28.1301 41.8272 28.2772 41.9835C29.7328 41.2049 30.4006 39.2661 30.5715 38.6885C30.5335 38.632 30.4956 38.5748 30.4585 38.5172Z" fill="#F29797"/>
<path d="M28.974 23.5613C28.974 23.5613 28.8619 22.7093 27.7183 23.1129C26.5747 23.5164 27.9425 25.0189 27.9425 25.0189C27.9425 25.0189 29.131 25.8486 29.6019 24.705L30.768 25.7589C30.9637 26.5133 30.9944 27.3011 30.858 28.0685C30.6337 29.3691 31.1061 31.0734 32.3499 30.9388C33.5937 30.8042 33.8852 27.7546 33.8852 27.7546C33.8852 27.7546 32.4949 28.3376 32.7865 26.0055C32.7865 26.0055 35.724 26.0883 35.0737 21.977L34.5577 20.0184C34.5577 20.0184 32.4517 20.3592 31.1584 18.4113C31.1584 18.4113 31.9488 21.6846 29.1984 23.0904C29.1985 23.0904 28.9518 23.2698 28.974 23.5613Z" fill="#FFCAC0"/>
<path d="M31.7742 27.2613C32.1132 27.2133 32.4562 27.1732 32.7982 27.1271C32.7438 26.8853 32.7276 26.5627 32.7718 26.1344C32.5775 26.0435 32.3872 25.9467 32.2042 25.8444C31.6997 25.562 31.3608 25.158 31.0995 24.6476C30.8409 24.1425 30.5252 22.865 31.1305 21.977C31.2037 21.8696 31.0911 21.0687 30.9897 21.191C30.9663 21.2193 30.9432 21.248 30.9203 21.2771H30.9186C30.6262 21.9617 30.1045 22.6275 29.1985 23.0906C29.1985 23.0906 28.9518 23.27 28.9743 23.5615C28.9743 23.5615 28.8621 22.7095 27.7185 23.1131C26.5749 23.5166 27.9427 25.0191 27.9427 25.0191C27.9427 25.0191 29.1312 25.8488 29.6022 24.7052L30.768 25.7589C30.768 25.7589 30.9767 26.4301 30.9321 27.3831C31.2129 27.3424 31.4935 27.3011 31.7742 27.2613Z" fill="#F29797"/>
<path d="M34.5578 20.0184L33.8248 19.7941C33.8248 19.7941 32.3911 20.1695 31.0975 18.2216C31.0975 18.2216 31.6429 21.7899 29.1985 23.0904C29.1985 23.0904 28.9712 23.2566 28.9735 23.5284L29.0651 23.6709C31.7363 22.6278 31.8007 19.8969 31.8007 19.8969C32.7413 20.524 33.9659 20.5096 34.667 20.4331L34.5578 20.0184Z" fill="#F29797"/>
<path d="M28.7267 23.1448L28.9643 23.5142C28.9277 23.3684 28.8443 23.2386 28.7267 23.1448Z" fill="#F29797"/>
<path d="M31.7531 23.3946C31.7531 23.3946 33.2285 22.9395 34.0069 23.7419C34.0069 23.7419 33.7749 24.9579 32.6178 24.5442C31.7135 24.2209 31.7531 23.3946 31.7531 23.3946Z" fill="#FF668B"/>
<path d="M31.4725 23.2623C31.4012 23.6523 31.7055 24.1405 31.9426 24.3791C32.1034 24.5471 32.3023 24.6739 32.5224 24.7488C32.7425 24.8237 32.9775 24.8445 33.2074 24.8095C34.3246 24.6216 34.477 23.3417 34.248 22.4409C34.2469 22.3774 34.2268 22.3158 34.1903 22.2639C34.1761 22.2239 34.1474 22.1906 34.11 22.1705C34.0725 22.1505 34.0289 22.1451 33.9877 22.1555C33.7788 22.1522 33.621 22.4586 33.4558 22.5737C32.9518 23.0237 32.2887 23.1188 31.6393 23.1121C31.598 23.1125 31.5582 23.1279 31.5274 23.1556C31.4967 23.1833 31.4772 23.2212 31.4725 23.2623ZM33.0609 24.3783C32.5338 24.433 32.0775 24.0404 31.9489 23.5437C31.9775 23.5347 32.0061 23.5257 32.0347 23.5172C32.625 23.5007 33.3416 23.2398 33.8116 23.7237C33.7096 24.0653 33.4843 24.3358 33.0609 24.3785V24.3783Z" fill="#4C373C"/>
<path d="M38.3983 29.3216C38.5063 28.2911 38.4272 27.0797 37.4545 26.4836C38.0803 25.7839 38.3466 24.794 38.1936 23.8696C38.0976 23.2887 37.7944 22.7945 37.476 22.3096C37.1126 21.7635 36.8165 21.1756 36.594 20.5585C35.8074 18.3545 35.5609 15.5188 33.3228 14.2168C32.4446 13.706 31.2637 13.5828 30.3685 14.0866C30.0825 14.2526 29.7563 14.3369 29.4257 14.33C26.689 14.2387 24.8438 16.7843 24.8145 19.4379C24.7645 20.2268 24.7753 21.0247 24.6465 21.8067C24.516 22.6005 24.1986 23.3067 23.8048 24.0018C23.1303 25.1926 22.348 26.4422 22.5831 27.8757C22.671 28.3963 22.9326 28.8718 23.3252 29.2248C23.7178 29.5778 24.2184 29.7874 24.7454 29.8197C23.6755 30.9026 23.8018 32.762 25.1703 33.591C25.4552 33.7825 25.6216 33.956 25.6813 34.3091C25.7473 34.7002 25.7666 35.1021 25.8102 35.4962C26.0453 37.6218 26.484 39.7844 27.5817 41.6465C27.7497 41.9285 27.9229 42.192 28.2744 42.232C29.5644 42.322 30.3366 39.8993 30.6774 38.9073C31.2854 39.6458 31.9502 40.3394 32.7037 40.9309C33.1623 41.3141 34.0057 42.0242 34.5343 41.4075C36.6835 37.7285 37.976 33.5627 38.3983 29.3216ZM37.8748 29.6706C37.7987 30.4244 37.6176 31.1673 37.5268 31.9184C36.7206 31.5029 35.6745 31.3096 34.8 31.5584C34.8491 31.2908 34.8965 31.0228 34.9423 30.7544C34.9864 30.4946 35.11 30.1385 35.0134 29.885C34.9803 29.7983 34.8541 29.735 34.7818 29.8239C34.604 30.0426 34.6046 30.3769 34.5553 30.6477C34.3703 31.6533 34.1653 32.655 33.9468 33.6537C33.7776 34.3644 33.5048 35.5403 32.6382 35.6274C31.7335 35.416 30.99 34.84 30.3837 34.1654C29.5503 32.9945 29.4763 32.2394 29.9613 30.8903C30.0218 30.7084 29.7747 30.6402 29.676 30.7703C29.2594 31.3205 29.1747 32.121 29.283 32.7843C29.1582 32.6069 29.0384 32.4268 28.9236 32.2439C28.8864 32.1354 28.8542 32.0255 28.8272 31.9143C28.8199 30.9822 28.7643 29.8708 29.5373 29.211C29.8755 28.9224 30.3611 28.9002 30.6502 28.545C30.5927 29.6285 31.1134 31.1813 32.3962 31.1624C33.5385 31.0266 33.9069 29.4008 34.0698 28.4569C34.188 28.2253 34.261 27.9576 34.3728 27.7309C34.5209 27.449 34.7317 27.2049 34.989 27.0172C35.2462 26.8295 35.543 26.7031 35.8566 26.648C36.5474 26.5202 37.2606 26.7305 37.6537 27.3387C38.0901 28.0145 37.9544 28.9144 37.8748 29.6706ZM31.1428 26.8943C31.1338 26.7557 31.1203 26.6109 31.0985 26.466C31.596 26.6811 32.1112 26.8526 32.6383 26.9788C32.7113 27.4697 33.0696 27.9306 33.6018 27.9227C33.5538 28.67 33.2444 30.3743 32.4522 30.6527C31.5717 30.8648 31.1208 29.5533 31.099 28.8775C31.0844 28.2172 31.1725 27.556 31.143 26.8943H31.1428ZM23.0008 27.5951C22.8711 25.5755 24.6451 24.1407 25.004 22.2377C25.4047 20.2857 24.926 18.1157 26.1839 16.4124C27.0438 15.232 28.3699 14.6892 29.7853 14.7658C29.9551 14.777 30.1249 14.7422 30.2766 14.665C31.1485 14.208 33.5379 13.5318 34.9891 17.0124C35.4357 18.0837 35.6578 19.2299 36.0148 20.331C36.1803 20.8597 36.3907 21.3734 36.6436 21.8663C36.9151 22.3823 37.3078 22.8408 37.5284 23.3823C37.9304 24.3684 37.6755 25.4926 36.9505 26.2496C36.2251 26.0347 35.337 26.1656 34.7327 26.6396C34.4632 26.865 34.2506 27.1376 33.9908 27.3676C33.744 27.4876 33.4412 27.5099 33.2523 27.3196C32.9671 27.032 33.0414 26.6421 33.0669 26.2772C35.8629 25.6119 35.8004 22.4685 34.8449 20.3098C35.0096 20.3416 35.1778 20.3514 35.3451 20.339C35.3812 20.3379 35.4157 20.3239 35.4425 20.2998C35.4692 20.2756 35.4866 20.2427 35.4914 20.2069C35.4963 20.1712 35.4883 20.1349 35.4689 20.1044C35.4495 20.074 35.42 20.0514 35.3855 20.0407C34.8768 19.8688 34.3741 19.7587 33.9106 19.4723C33.4408 19.1818 33.1294 18.7763 32.731 18.4103C32.5891 18.2799 32.4044 18.4423 32.477 18.6062C32.8342 19.3431 33.6021 19.8452 34.3366 20.1609C34.9576 21.722 35.5783 23.958 34.0927 25.247C33.3992 25.8485 32.4327 25.9844 31.5652 25.7352C30.8616 25.5413 30.1219 25.0662 29.7772 24.4032C29.7465 24.3754 29.7095 24.3556 29.6694 24.3455C29.6293 24.3353 29.5873 24.3352 29.5471 24.3451C29.507 24.355 29.4698 24.3746 29.439 24.4022C29.4082 24.4298 29.3847 24.4646 29.3704 24.5034C29.2236 24.8833 29.0237 25.1717 28.5703 25.0981C27.9853 25.0349 27.2373 23.8838 27.6868 23.3876C27.9033 23.1593 28.1775 23.2562 28.4339 23.3836C28.5991 23.5197 28.7516 23.6705 28.8894 23.8343C29.065 24.0383 29.3592 23.7419 29.1847 23.539C29.1613 23.5118 29.1372 23.485 29.1127 23.4588C30.7721 22.5392 31.4274 20.7091 31.2651 18.8856C31.6049 19.2896 32.0754 19.712 32.5835 19.8241C32.7305 19.8565 32.872 19.6659 32.7415 19.5526C32.0375 19.0569 31.4639 18.5895 31.0863 17.787C30.9789 17.5685 30.9358 17.2497 30.7534 17.084C30.7347 17.0661 30.7116 17.0533 30.6864 17.0468C30.6613 17.0403 30.6349 17.0404 30.6098 17.047C30.5847 17.0536 30.5617 17.0665 30.543 17.0846C30.5243 17.1026 30.5106 17.1252 30.5031 17.15C30.402 17.5037 30.6644 17.8992 30.8062 18.213C31.0534 20.2162 30.6612 22.059 28.7847 23.1101C27.5776 22.1921 26.6265 23.4286 27.3131 24.6031C27.7361 25.5074 29.0098 26.0374 29.6322 25.0647C29.867 25.3477 30.1486 25.5882 30.4648 25.7758C30.7001 26.3909 30.7806 27.0543 30.6994 27.7078C30.5347 28.0359 30.3339 28.3318 29.9655 28.4685C29.6142 28.5824 29.2973 28.7832 29.0442 29.0522C28.7912 29.3212 28.6101 29.6497 28.5179 30.0074C28.2372 29.2634 27.9368 29.5168 27.453 29.0765C26.7595 28.4563 25.8916 28.8312 25.2821 29.3684C24.1472 29.4836 23.0967 28.8225 23.0011 27.5951H23.0008ZM28.5755 41.722C28.1668 41.8946 28.013 41.4633 27.8486 41.1659C26.9173 39.465 26.5195 37.5318 26.2927 35.6219C26.2001 34.826 26.2877 33.7638 25.5333 33.2739C24.7753 32.8278 24.2553 31.9497 24.507 31.0673C24.6734 31.6345 25.0496 32.1248 25.5883 32.3765C25.9144 32.5335 26.2323 32.6642 26.4894 32.901C26.5813 33.057 26.718 33.1902 26.8265 33.3421C26.9486 33.5118 27.0326 33.705 27.1452 33.8821C27.4426 34.5681 27.7848 35.2201 28.0692 35.9095C28.4052 36.7255 28.6496 37.5801 28.5985 38.4701C28.5823 38.7529 29.0235 38.7525 29.0387 38.4701C29.0517 38.2169 29.0434 37.963 29.0139 37.7112C29.4005 38.1837 29.8099 38.6426 30.1031 39.183C29.8825 39.8323 29.1819 41.44 28.5755 41.722ZM36.2915 36.5368C35.809 37.8515 34.9284 40.0001 34.3005 40.8657C34.2256 40.9682 34.1159 41.0399 33.9919 41.0674C33.8679 41.0949 33.7382 41.0762 33.627 41.015C33.453 40.9197 33.253 40.805 33.1243 40.715C31.2788 39.3153 29.9991 37.3439 28.7103 35.4534C28.3633 34.9434 28.0054 34.4378 27.6679 33.9201C27.4302 33.5233 27.3367 33.0255 26.9641 32.7265C26.6215 32.267 26.0503 32.1107 25.5745 31.8347C25.2547 31.6254 25.0074 31.2194 24.9406 30.8453C24.8494 30.3153 25.3209 29.9933 25.6687 29.6829C25.6974 29.6691 25.7221 29.6484 25.7407 29.6226C26.0321 29.383 26.3808 29.1546 26.759 29.2185C27.1342 29.2823 27.3727 29.6451 27.7273 29.7705C27.9408 29.846 27.9861 29.9222 28.0864 30.133C28.1762 30.3251 28.2414 30.5277 28.2806 30.7361C28.3654 31.1705 28.2678 31.5789 28.2895 32.0106C28.2907 32.0332 28.2972 32.0552 28.3085 32.0748C28.3197 32.0945 28.3355 32.1112 28.3544 32.1236C29.2833 33.7647 30.6438 35.1313 32.0452 36.3712C32.7544 37.0454 32.9107 37.428 33.1334 38.3501C33.1426 38.3799 33.1611 38.406 33.1863 38.4246C33.2114 38.4431 33.2419 38.4531 33.2731 38.4531C33.3043 38.4531 33.3348 38.4431 33.3599 38.4246C33.3851 38.406 33.4036 38.3799 33.4128 38.3501C33.445 38.2472 33.4605 38.1398 33.4587 38.0321C33.4524 37.741 33.4841 37.4503 33.5528 37.1675C33.9893 35.4622 34.3763 33.7452 34.714 32.0165C35.6543 31.8263 36.6124 31.9059 37.4459 32.4125C37.1794 33.8177 36.7932 35.1974 36.2914 36.5367L36.2915 36.5368Z" fill="#4C373C"/>
<path d="M33.4245 21.3465C33.4657 21.3853 33.5201 21.407 33.5766 21.407C33.6331 21.407 33.6875 21.3853 33.7286 21.3465C33.9383 21.1597 33.753 20.7956 33.664 20.5911C33.6463 20.5575 33.619 20.5299 33.5856 20.5118C33.5523 20.4936 33.5143 20.4857 33.4764 20.4891C33.435 20.4786 33.3913 20.4816 33.3518 20.4978C33.3122 20.514 33.2789 20.5425 33.2568 20.5791C33.1116 20.8226 33.2184 21.1728 33.4245 21.3465Z" fill="#4C373C"/>
<path d="M31.6704 21.9165C31.7115 21.9554 31.7659 21.977 31.8225 21.977C31.879 21.977 31.9334 21.9554 31.9745 21.9165C32.1842 21.7298 31.9985 21.3656 31.9098 21.1611C31.8921 21.1276 31.8648 21.1 31.8314 21.0819C31.7981 21.0639 31.7601 21.056 31.7223 21.0594C31.6809 21.0489 31.6372 21.0519 31.5976 21.0681C31.5581 21.0843 31.5248 21.1128 31.5026 21.1494C31.3574 21.3926 31.464 21.7428 31.6704 21.9165ZM31.6429 21.6837C31.6429 21.6848 31.6429 21.685 31.6429 21.6837V21.6837Z" fill="#4C373C"/>
<path d="M22.2262 32.5145C21.9292 31.8959 21.373 31.6155 20.7082 31.6325C20.0653 31.6205 19.5814 32.1206 19.3113 32.6699C18.33 30.408 15.2815 31.6168 15.9913 33.9454C16.5133 35.4321 18.3323 35.6656 19.1838 36.8684C19.1952 36.8868 19.2116 36.9015 19.2312 36.9107C19.2507 36.92 19.2726 36.9234 19.294 36.9206C19.3155 36.9177 19.3357 36.9088 19.3521 36.8947C19.3686 36.8807 19.3807 36.8622 19.3869 36.8415C19.8821 35.5729 21.4459 35.2847 22.1235 34.1561C22.4264 33.6513 22.502 33.0498 22.2262 32.5145Z" fill="#FF668B"/>
<path d="M22.2262 32.5145C21.9292 31.8959 21.373 31.6155 20.7082 31.6325C20.5707 31.6298 20.4337 31.6512 20.3035 31.6955C20.5607 31.7993 20.7971 31.9485 21.0015 32.136C21.3358 32.4545 21.5433 32.9439 21.424 33.3929C21.3376 33.7179 21.0992 33.9762 20.8621 34.212C20.5912 34.4813 20.1018 34.8617 19.6965 35.1634C19.4963 35.3131 19.2611 35.4093 19.0133 35.4428C18.7656 35.4763 18.5133 35.446 18.2805 35.3548C17.8005 35.1664 17.1989 34.9305 16.8254 34.7848C16.6554 34.7183 16.4983 34.6564 16.3484 34.5915C17.0907 35.5358 18.4737 35.8652 19.1839 36.8684C19.1953 36.8868 19.2117 36.9015 19.2313 36.9108C19.2509 36.9201 19.2727 36.9235 19.2941 36.9206C19.3156 36.9178 19.3358 36.9088 19.3523 36.8948C19.3687 36.8808 19.3808 36.8623 19.387 36.8415C19.8823 35.573 21.4461 35.2848 22.1236 34.1561C22.4264 33.6513 22.502 33.0498 22.2262 32.5145Z" fill="#C6305F"/>
<path d="M19.2775 37.132C19.2247 37.1316 19.1728 37.1183 19.1264 37.0932C19.0799 37.0681 19.0404 37.032 19.0112 36.988C18.6686 36.5042 18.1535 36.1865 17.6082 35.8502C16.8735 35.397 16.1138 34.9285 15.7931 34.0149C15.7921 34.0122 15.7912 34.0094 15.7904 34.0067C15.3774 32.6518 16.116 31.6938 16.9767 31.3769C17.7251 31.1015 18.7277 31.2749 19.3217 32.2361C19.6817 31.7126 20.1797 31.4135 20.7072 31.4226C21.4893 31.404 22.0949 31.7586 22.4142 32.421C22.7058 32.9893 22.6655 33.6609 22.3035 34.2641C21.9696 34.8203 21.4467 35.1792 20.9411 35.5262C20.3684 35.9193 19.8274 36.2906 19.5825 36.9179C19.5614 36.9741 19.5254 37.0235 19.4783 37.0608C19.4312 37.0981 19.3748 37.1219 19.3152 37.1296C19.3027 37.1311 19.2901 37.1319 19.2775 37.132ZM16.1908 33.88C16.4631 34.6506 17.1264 35.0597 17.8288 35.4928C18.3408 35.8085 18.8687 36.1341 19.2561 36.6157C19.5681 35.9591 20.1449 35.5635 20.7036 35.18C21.1938 34.8436 21.6567 34.526 21.9435 34.0481C22.2297 33.5714 22.2647 33.0475 22.0395 32.6107C22.0386 32.609 22.0378 32.6072 22.037 32.6054C21.7246 31.9548 21.1455 31.8308 20.7136 31.8426C20.7105 31.8426 20.7076 31.8426 20.7043 31.8426C20.6982 31.8426 20.6921 31.8426 20.6859 31.8426C20.0055 31.8426 19.6065 32.5457 19.4997 32.7629C19.482 32.7988 19.4544 32.829 19.4202 32.8498C19.3859 32.8706 19.3464 32.8811 19.3063 32.8802C19.2662 32.8792 19.2272 32.8668 19.194 32.8444C19.1607 32.822 19.1346 32.7906 19.1186 32.7538C18.6746 31.7308 17.7959 31.5231 17.1219 31.7712C16.4411 32.0216 15.8601 32.788 16.1908 33.88Z" fill="#4C373C"/>
<path d="M17.5962 32.2344C17.512 32.2047 17.4217 32.1966 17.3335 32.2109C17.2454 32.2251 17.1623 32.2614 17.0918 32.3162C16.9509 32.4284 16.8419 32.5757 16.7757 32.7432C16.6497 33.0292 16.5751 33.5615 16.8155 33.6542C16.854 33.6702 16.8961 33.6755 16.9373 33.6695C16.9786 33.6635 17.0175 33.6465 17.0499 33.6202C17.1022 33.5635 17.1427 33.4969 17.1689 33.4243C17.2441 33.2668 17.3531 33.1277 17.4881 33.0171C17.6138 32.9145 17.7697 32.8262 17.8191 32.6706C17.8736 32.4992 17.7607 32.3025 17.5962 32.2344Z" fill="#FFEEF3"/>
<path d="M43.9415 16.381C43.636 15.735 43.0636 15.442 42.3793 15.46C41.7176 15.4476 41.2196 15.97 40.9417 16.5435C39.9316 14.1811 36.7945 15.4436 37.525 17.8755C38.062 19.4282 39.9342 19.672 40.8105 20.9281C40.8221 20.9473 40.839 20.9627 40.8592 20.9723C40.8794 20.982 40.902 20.9856 40.9242 20.9826C40.9464 20.9797 40.9673 20.9703 40.9842 20.9556C41.0012 20.9409 41.0135 20.9216 41.0196 20.9001C41.5292 19.5752 43.1386 19.2741 43.8358 18.0955C44.1476 17.5683 44.2253 16.9401 43.9415 16.381Z" fill="#FF668B"/>
<path d="M43.9415 16.381C43.636 15.735 43.0636 15.442 42.3793 15.46C42.2376 15.4573 42.0967 15.4797 41.9628 15.526C42.228 15.6348 42.4714 15.7906 42.6811 15.9861C43.0252 16.3187 43.2386 16.8298 43.1159 17.2986C43.0271 17.638 42.7817 17.908 42.5376 18.154C42.2589 18.4352 41.7552 18.8325 41.3381 19.1476C41.1331 19.3038 40.8911 19.4043 40.6358 19.4393C40.3804 19.4743 40.1203 19.4427 39.8808 19.3475C39.3868 19.1508 38.7677 18.9044 38.3834 18.752C38.2084 18.6826 38.0466 18.6179 37.8925 18.5501C38.6564 19.5363 40.0796 19.8803 40.8105 20.928C40.8221 20.9472 40.839 20.9626 40.8592 20.9723C40.8794 20.982 40.902 20.9856 40.9242 20.9826C40.9464 20.9796 40.9673 20.9702 40.9842 20.9555C41.0012 20.9409 41.0135 20.9216 41.0196 20.9C41.5292 19.5752 43.1386 19.274 43.8358 18.0954C44.1476 17.5683 44.2253 16.9401 43.9415 16.381Z" fill="#C6305F"/>
<path d="M40.907 21.1939C40.8533 21.1935 40.8006 21.1798 40.7535 21.1541C40.7064 21.1284 40.6664 21.0915 40.637 21.0465C40.2835 20.5398 39.7528 20.2077 39.191 19.8561C38.436 19.3836 37.6555 18.8949 37.3266 17.944C37.3257 17.9412 37.3247 17.9385 37.3239 17.9357C36.9159 16.5785 37.6364 15.5297 38.5585 15.1953C39.3233 14.918 40.3478 15.1053 40.9522 16.1034C41.3172 15.5616 41.8225 15.25 42.3573 15.25H42.3784C43.1824 15.232 43.8028 15.5992 44.1301 16.2886C44.4285 16.8785 44.3871 17.5759 44.0166 18.2026C43.674 18.7816 43.1365 19.156 42.6168 19.5179C42.0264 19.9291 41.4687 20.3175 41.2156 20.9754C41.1946 21.0328 41.1581 21.0833 41.1104 21.1214C41.0626 21.1596 41.0053 21.1839 40.9446 21.1917C40.9321 21.1932 40.9196 21.1939 40.907 21.1939ZM37.7249 17.8109C38.0062 18.6191 38.69 19.0469 39.414 19.5C39.9425 19.8309 40.488 20.172 40.8859 20.6775C41.2054 19.9891 41.8003 19.5747 42.3768 19.1732C42.8818 18.8214 43.3589 18.4892 43.6551 17.9885C43.9512 17.4878 43.9878 16.9359 43.7543 16.4761C43.7534 16.4744 43.7526 16.4726 43.7517 16.4708C43.4286 15.7878 42.8307 15.658 42.3847 15.67C42.3816 15.67 42.3787 15.67 42.3753 15.67C41.6635 15.6567 41.242 16.4053 41.1307 16.635C41.1128 16.6711 41.0852 16.7013 41.0508 16.7223C41.0165 16.7432 40.977 16.754 40.9368 16.7534C40.8965 16.7525 40.8573 16.74 40.824 16.7174C40.7906 16.6948 40.7644 16.6631 40.7486 16.626C40.2939 15.5627 39.393 15.3396 38.7017 15.5903C37.9887 15.8489 37.3795 16.654 37.7249 17.8109Z" fill="#4C373C"/>
<path d="M39.1767 16.0886C39.0901 16.0575 38.9969 16.049 38.9061 16.064C38.8153 16.0789 38.7298 16.1167 38.6576 16.1739C38.5122 16.2917 38.4 16.4455 38.3324 16.62C38.2027 16.9186 38.1259 17.4745 38.3732 17.5713C38.4129 17.588 38.4563 17.5935 38.4988 17.5872C38.5414 17.581 38.5814 17.5632 38.6145 17.5358C38.6685 17.4764 38.7101 17.4068 38.737 17.3312C38.814 17.1671 38.9262 17.0219 39.0655 16.906C39.1948 16.7988 39.3553 16.7065 39.4061 16.544C39.462 16.3651 39.346 16.1597 39.1767 16.0886Z" fill="#FFEEF3"/>
</g>
<defs>
<clipPath id="clip0_43_2">
<rect width="30" height="30" fill="white" transform="translate(15 13)"/>
</clipPath>
</defs>
</svg>
