<svg width="59" height="57" viewBox="0 0 59 57" fill="none" xmlns="http://www.w3.org/2000/svg">
<path d="M58.5 28.5C58.5 43.9479 45.5326 56.5 29.5 56.5C13.4673 56.5 0.5 43.9479 0.5 28.5C0.5 13.0521 13.4673 0.5 29.5 0.5C45.5326 0.5 58.5 13.0521 58.5 28.5Z" stroke="#B0B3FB"/>
<path d="M39.071 32.786C38.536 31.186 36.28 34.367 36.89 35.149C37.049 35.356 37.348 35.372 37.586 35.316C38.626 35.06 39.258 33.796 39.071 32.785V32.786Z" fill="#FFD7CD"/>
<path d="M38.535 32.348C38.382 33.245 37.711 34.64 37.064 35.285C36.713 35.135 36.775 34.687 36.861 34.381C37.097 33.538 37.666 32.632 38.535 32.348Z" fill="#FFA4A4"/>
<path d="M42.567 24.145C42.022 22.693 40.301 23.188 39.695 23.823C36.859 21.555 34.788 25.886 39.695 28.332C40.713 27.94 43.258 25.93 42.567 24.145Z" fill="#FC5061"/>
<path d="M21.249 17.545C20.657 17.399 19.917 17.961 19.842 18.046C19.832 18.046 19.37 17.584 18.793 17.536C17.12 17.464 17 19.384 18.226 20.577C18.569 20.981 19.617 21.678 19.844 21.748C20.678 21.422 22.766 19.777 22.199 18.31C22.042 17.847 21.678 17.602 21.247 17.544L21.249 17.545Z" fill="#FC5061"/>
<path d="M20.129 25.033C19.8 24.931 19.264 25.309 19.251 25.346C19.245 25.346 18.956 25.057 18.596 25.028C17.551 24.983 17.477 26.182 18.242 26.927C18.458 27.18 19.11 27.616 19.255 27.658C19.255 27.658 19.774 27.422 20.263 26.927C20.945 26.233 21.003 25.214 20.129 25.033Z" fill="#FC5061"/>
<path d="M36.16 20.111C36.281 21.333 35.623 22.423 34.495 22.922C33.814 22.663 31.435 21.794 30.316 19.937C30.191 19.73 29.908 19.685 29.728 19.846C28.698 20.77 29.117 22.108 28.057 21.972C27.92 20.757 26.524 20.95 26.165 22.087C25.893 22.865 26.172 23.683 26.88 23.69L26.899 23.726C26.759 24.524 26.906 25.334 27.294 26.029V28.325C23.094 29.422 23.731 32.32 25.184 36.307C23.443 36.118 22.031 34.305 22.031 34.305C21.828 34.915 22.163 35.527 22.493 35.941C22.572 36.041 22.452 36.18 22.34 36.116C17.94 33.872 20.294 30.587 22.211 28.167C24.966 25.235 24.015 20.666 25.995 17.355C26.95 15.635 28.992 14.913 29.992 14.946C31.303 15.019 33.032 15.638 33.496 16.972C35.121 16.943 36.152 18.617 36.161 20.11L36.16 20.111Z" fill="#9B503C"/>
<path d="M37.064 35.286C36.712 35.136 36.775 34.688 36.861 34.382C35.729 34.851 34.147 35.128 33.034 34.528C32.481 34.284 31.965 33.949 31.494 33.566C31.334 33.437 31.232 32.824 31.282 32.623C30.959 32.881 30.421 33.174 30.026 33.318L30.057 33.629C30.434 34.616 31.514 36.913 31.48 36.817C32.564 36.549 36.601 36.558 37.156 35.32C37.125 35.31 37.094 35.301 37.065 35.287L37.064 35.286Z" fill="#CFDADB"/>
<path d="M34.495 22.924H34.493V22.922C33.803 22.657 31.353 21.764 30.261 19.842C30.173 19.688 29.971 19.648 29.833 19.758C28.67 20.682 29.151 22.113 28.057 21.973C27.92 20.758 26.524 20.951 26.165 22.088C25.893 22.866 26.172 23.684 26.88 23.691L26.899 23.727C26.759 24.525 26.906 25.335 27.294 26.03C27.271 27.288 27.36 27.829 27.217 29.012C27.236 29.034 27.813 29.295 28.391 29.501C29.036 29.739 30.747 29.977 30.279 28.949C30.118 28.733 30.17 28.045 30.164 27.802C33.136 27.879 33.721 25.205 34.496 22.925L34.495 22.924ZM30.025 27.79C30.071 27.794 30.117 27.799 30.163 27.801C30.119 27.801 30.072 27.796 30.025 27.79Z" fill="#FFD7CD"/>
<path d="M37.612 36.386C37.567 35.865 37.1 35.501 37.1 35.501C35.507 36.704 33.123 36.452 31.479 36.817C31.19 36.377 29.649 32.63 29.219 31.519C28.792 30.411 27.781 29.159 26.669 29.326C25.623 29.618 24.993 29.988 25.26 31.794C25.374 32.517 25.836 33.443 26.231 34.186C27.13 35.86 28.386 37.721 28.848 38.492C29.542 39.647 30.68 39.463 32.053 39.449C33.477 39.488 37.599 38.002 37.612 36.387V36.386Z" fill="#FFD7CD"/>
<path d="M32.285 42.603C32.173 41.946 32.034 40.608 32.053 39.448C30.68 39.462 29.541 39.647 28.848 38.491C28.125 37.228 25.681 33.872 25.26 31.794C24.992 29.985 25.624 29.618 26.669 29.325C27.782 29.16 28.792 30.41 29.219 31.518C29.513 32.173 29.772 32.908 30.056 33.628C30.458 33.48 30.884 33.316 31.214 33.052V33.05C31.972 32.497 31.746 31.463 32.032 30.677C31.857 30.536 31.618 30.289 31.369 30.014C30.793 29.368 30.163 28.564 30.163 28.564V28.803C30.524 30.281 27.619 29.116 27.293 28.803V28.325C25.898 28.622 24.018 29.662 24.064 31.793C24.024 33.556 24.549 33.983 25.26 36.577C26.262 40.19 22.407 43.408 24.55 43.155C25.394 43.055 29.895 43.155 30.841 43.155C31.291 43.105 32.36 43.392 32.286 42.602L32.285 42.603Z" fill="#FFBA9C"/>
<path d="M27.563 22.173C27.572 21.973 27.502 21.788 27.374 21.635C27.34 21.595 27.284 21.653 27.317 21.692C27.519 21.919 27.519 22.246 27.403 22.514C27.007 22.224 26.493 23.047 26.911 23.288C27.207 23.324 27.543 22.502 27.564 22.172L27.563 22.173Z" fill="#FFA4A4"/>
<path d="M31.836 24.425C31.745 24.724 31.981 25.012 31.881 25.293C31.836 25.377 31.766 25.444 31.699 25.51C31.625 25.583 31.739 25.697 31.813 25.624C32.099 25.389 32.127 25.118 31.996 24.787C31.939 24.659 32.061 24.448 31.935 24.369C31.897 24.358 31.842 24.382 31.836 24.425Z" fill="#FFA4A4"/>
<path d="M30.912 22.74C31.358 22.795 31.166 24.18 30.721 24.112C30.274 24.057 30.467 22.671 30.912 22.74Z" fill="#594449"/>
<path d="M33.02 23.427C33.466 23.482 33.274 24.867 32.829 24.799C32.382 24.744 32.575 23.358 33.02 23.427Z" fill="#594449"/>
<path d="M30.334 25.652C30.321 26.823 31.44 26.863 32.193 26.273C32.28 26.218 32.2 26.078 32.112 26.134C31.468 26.641 30.483 26.704 30.495 25.653C30.502 25.55 30.341 25.55 30.334 25.653V25.652Z" fill="#FFA4A4"/>
<path d="M38.261 32.45C38.294 30.674 37.437 28.418 35.395 28.282C33.848 28.112 32.658 29.403 32.032 30.676C31.929 30.944 31.258 31.085 31.227 31.372C31.179 31.769 31.392 31.906 31.189 32.243C31.093 32.401 31.216 32.507 31.075 32.622H30.999C31.119 33.596 32.248 34.13 33.033 34.527C34.145 35.127 35.73 34.85 36.86 34.381C36.998 33.653 37.682 32.784 38.26 32.45H38.261Z" fill="white"/>
<path d="M36.15 19.98C36.102 18.527 35.066 16.942 33.495 16.972C33.031 15.64 31.302 15.018 29.991 14.946C29.455 14.928 28.619 15.128 27.812 15.581C28.374 18.727 33.435 19.825 36.15 19.979V19.98Z" fill="#B06758"/>
<path d="M42.567 24.145C43.257 25.941 40.71 27.931 39.703 28.332C39.687 28.335 39.304 28.152 38.756 27.772L38.766 27.758C39.619 27.516 40.591 26.806 41.154 26.128C41.712 25.328 42.131 24.038 41.408 23.218V23.212C41.933 23.283 42.376 23.58 42.568 24.144L42.567 24.145Z" fill="#DE354E"/>
<path d="M38.041 23.643C38.835 23.647 38.835 24.854 38.041 24.858C37.246 24.854 37.246 23.646 38.041 23.643Z" fill="white"/>
<path d="M22.2 18.311C22.767 19.785 20.674 21.42 19.848 21.749C19.833 21.752 19.521 21.601 19.071 21.289L19.079 21.278C19.807 21.062 20.553 20.515 21.04 19.939C21.497 19.282 21.842 18.222 21.248 17.55V17.545C21.679 17.603 22.043 17.848 22.2 18.311Z" fill="#DE354E"/>
<path d="M18.485 17.898C19.137 17.901 19.137 18.893 18.485 18.896C17.832 18.893 17.833 17.901 18.485 17.898Z" fill="white"/>
<path d="M20.724 25.511C21.078 26.431 19.771 27.452 19.256 27.658C19.248 27.659 19.052 27.566 18.771 27.371L18.776 27.364C19.242 27.222 19.686 26.895 20 26.528C20.285 26.118 20.501 25.456 20.13 25.036V25.033C20.399 25.069 20.626 25.222 20.724 25.511Z" fill="#DE354E"/>
<path d="M18.404 25.253C18.808 25.247 18.808 25.882 18.404 25.876C18 25.882 18 25.247 18.404 25.253Z" fill="white"/>
<path d="M30.163 28.564V27.801C29.277 27.782 27.675 26.72 27.293 26.029C27.304 26.236 27.254 26.502 27.353 26.67C27.884 28.175 28.79 28.611 30.159 29.232C30.249 29.031 30.163 28.804 30.163 28.804V28.565V28.564Z" fill="#FFA4A4"/>
<path d="M35.912 28.883C38.688 29.989 37.117 34.143 34.305 33.136C31.529 32.03 33.1 27.876 35.912 28.883Z" fill="#FFD7CD"/>
<path d="M34.658 30.069C34.952 30.106 34.891 30.546 34.598 30.501C34.304 30.464 34.365 30.024 34.658 30.069Z" fill="#594449"/>
<path d="M34.237 31.484C34.18 31.749 34.844 32.028 34.852 31.748C34.835 31.694 34.778 31.678 34.728 31.698C34.727 31.698 34.749 31.696 34.742 31.696C34.674 31.701 34.66 31.696 34.597 31.68C34.539 31.669 34.448 31.606 34.434 31.582C34.409 31.548 34.403 31.518 34.4 31.505C34.419 31.391 34.242 31.366 34.238 31.485L34.237 31.484Z" fill="#FFA4A4"/>
<path d="M35.647 30.505C35.941 30.542 35.88 30.982 35.587 30.937C35.293 30.9 35.354 30.46 35.647 30.505Z" fill="#594449"/>
<path d="M34.059 30.665C33.962 30.81 33.508 30.477 33.617 30.341C33.714 30.196 34.168 30.529 34.059 30.665Z" fill="#FFBA9C"/>
<path d="M35.977 31.788C35.88 31.933 35.426 31.6 35.535 31.464C35.632 31.319 36.086 31.652 35.977 31.788Z" fill="#FFBA9C"/>
<path d="M36.061 29.167C35.953 29.116 35.624 29.144 35.635 29.3C35.645 29.338 35.694 29.373 35.734 29.356C36.261 29.148 36.05 29.643 35.657 29.611C35.102 29.64 35.511 28.957 35.795 28.843C35.727 28.822 35.658 28.803 35.587 28.787C35.191 29.063 34.981 29.825 35.689 29.77C35.996 29.798 36.454 29.39 36.059 29.166L36.061 29.167Z" fill="#594449"/>
<path d="M32.031 30.676C31.745 31.462 31.97 32.497 31.213 33.049V33.051C30.884 33.315 30.457 33.479 30.055 33.627C29.77 32.907 29.512 32.173 29.218 31.517C30.994 33.756 31.545 30.192 31.368 30.012C31.617 30.287 31.856 30.533 32.031 30.675V30.676Z" fill="#FF9271"/>
<path d="M32.285 42.603C32.173 41.946 32.034 40.608 32.053 39.448C30.68 39.462 29.541 39.647 28.848 38.491C28.28 37.55 26.421 34.792 25.671 33.049C25.652 34.822 26.284 36.509 26.898 38.149C27.585 40.21 28.971 42.03 30.84 43.155C31.292 43.106 32.36 43.39 32.285 42.602V42.603Z" fill="#FF9271"/>
<path d="M37.612 36.386L37.229 36.403C35.662 37.005 33.17 38.075 31.519 37.776C29.401 36.884 27.233 31.53 26.668 29.325C22.587 30.239 28.143 37.037 28.847 38.491C29.552 39.69 30.811 39.446 32.196 39.448C33.611 39.411 37.585 37.996 37.611 36.386H37.612Z" fill="#FFA4A4"/>
<path d="M29.219 31.518C28.714 30.191 27.394 28.751 26.097 29.521C24.478 30.18 25.358 32.677 26.205 34.137C27.554 36.956 26.534 35.009 30.079 33.619C29.954 33.297 29.352 31.817 29.218 31.519L29.219 31.518Z" fill="#FFBA9C"/>
<path d="M34.493 22.924V22.922C33.795 22.654 31.297 21.743 30.224 19.776C30.16 19.658 30.007 19.627 29.899 19.707C28.716 20.58 29.121 21.96 28.217 21.981C29.083 22.118 29.666 21.017 29.927 20.346C29.961 20.259 30.081 20.258 30.118 20.344C30.856 22.031 34.467 23.028 34.467 23.028C34.466 23.028 34.507 22.923 34.493 22.925V22.924Z" fill="#FFA4A4"/>
<path d="M30.259 27.876C33.196 27.844 33.777 25.22 34.558 22.964C37.373 21.78 36.43 16.936 33.539 16.812C33.046 15.505 31.2 14.839 29.955 14.792C26.458 14.745 24.63 18.827 24.403 21.968C24.172 24.091 23.62 26.154 22.09 28.024C22.038 28.085 20.819 29.523 20.222 30.836C18.579 34.053 20.959 35.501 22.904 36.493C23.049 36.566 23.173 36.355 23.036 36.267C22.891 36.141 22.041 35.366 22.082 34.556C22.507 35.117 23.637 36.408 25.098 36.508C25.929 39.381 23.595 42.956 23.571 42.985C23.544 43.025 23.542 43.077 23.565 43.119C23.62 43.317 32.221 43.122 32.336 43.188C32.416 43.19 32.482 43.109 32.464 43.031C32.403 43.044 32.175 41.176 32.116 39.49C33.714 39.477 39.308 37.479 37.202 35.392C39.062 35.54 39.955 31.835 38.327 32.18C38.291 30.324 37.359 28.227 35.35 28.093C33.804 27.915 32.633 29.142 31.941 30.388C31.441 29.967 30.419 28.677 30.252 28.46V27.878C30.252 27.878 30.256 27.878 30.258 27.878L30.259 27.876ZM22.121 34.158C22.066 34.067 21.917 34.086 21.887 34.188C21.675 34.824 21.988 35.446 22.322 35.885C21.472 35.382 20.234 34.569 19.994 33.472C19.431 31.975 21.781 28.673 22.293 28.189C23.388 26.79 24.109 25.272 24.375 23.799C24.837 21.348 24.732 19.772 26.078 17.388C27.027 15.678 29.066 15.023 29.946 15.053C31.125 15.099 32.904 15.725 33.32 16.982C33.337 17.038 33.39 17.076 33.448 17.074C34.124 17.057 34.829 17.421 35.292 18.024C36.377 19.658 36.304 21.852 34.431 22.734C33.562 22.45 31.101 21.36 30.112 19.401C29.267 19.697 28.963 20.609 28.793 21.073C28.617 21.578 28.514 21.819 28.136 21.808C27.881 20.537 26.396 20.802 26.009 22.001C25.728 22.726 25.99 23.685 26.718 23.766C26.602 24.544 26.765 25.372 27.157 26.061C27.139 26.083 27.128 26.112 27.128 26.142V28.162C24.029 28.882 23.262 31.41 24.372 34.247C24.543 34.723 24.753 35.311 25.02 36.236C23.369 36.055 22.133 34.178 22.12 34.158H22.121ZM37.421 36.316C37.35 37.81 33.533 39.186 32.15 39.227C30.928 39.219 29.565 39.48 28.922 38.336C27.991 36.561 22.888 30.256 26.653 29.391C28.888 29.326 29.39 32.78 30.252 34.466C31.006 36.065 31.189 36.795 31.451 36.863C33.123 36.493 35.367 36.744 37.041 35.598C37.165 35.721 37.392 35.986 37.42 36.315L37.421 36.316ZM36.725 35.148C36.782 35.226 36.858 35.286 36.951 35.326C35.491 36.45 33.053 36.256 31.51 36.591C31.396 36.357 31.052 35.643 30.576 34.555C32.903 35.155 35.126 34.236 37.181 33.17C36.839 33.713 36.389 34.552 36.724 35.148H36.725ZM38.27 32.489C38.553 32.362 38.716 32.302 38.881 32.752C39.022 33.265 38.726 34.088 38.42 34.483C38.082 35.04 36.676 35.607 36.89 34.506C37.023 33.737 37.594 32.867 38.27 32.489ZM32.109 30.651C32.717 29.44 33.845 28.184 35.328 28.352C37.244 28.479 38.066 30.557 38.066 32.303C36.724 33.216 34.831 34.122 33.129 34.409C32.667 33.282 31.628 31.925 32.109 30.651ZM31.905 32.338C32.179 33.052 32.502 33.76 32.864 34.441C32.058 34.538 31.238 34.427 30.454 34.274C30.364 34.065 30.265 33.835 30.184 33.629C30.898 33.389 31.696 32.932 31.841 32.126C31.864 32.214 31.886 32.289 31.905 32.338ZM30.288 28.925C30.656 29.379 31.351 30.245 31.836 30.637C31.492 32.122 31.817 32.794 30.089 33.385C29.62 32.174 28.975 30.241 28.055 29.592C27.474 29.072 26.468 28.975 25.954 29.371C25.365 29.723 24.856 30.027 25.101 31.741C25.507 33.638 27.152 35.958 28.124 37.558C29.211 39.54 29.795 39.569 31.9 39.489C31.811 40.921 32.114 42.476 32.178 42.923H23.919C25.365 40.509 26.257 37.861 24.619 34.156C23.591 31.531 24.208 29.133 27.129 28.431C27.145 28.497 27.1 28.77 27.157 28.82C27.625 29.191 30.203 30.34 30.29 28.923L30.288 28.925ZM29.999 28.787C30.27 29.991 27.695 28.923 27.39 28.672V26.418C27.997 27.247 28.965 27.787 29.991 27.863V28.741C29.991 28.756 29.994 28.772 29.999 28.787ZM30.128 27.611C28.693 27.565 27.39 26.501 27.051 25.106C26.93 24.639 26.911 24.165 26.994 23.7C27.004 23.657 26.982 23.615 26.962 23.58C26.894 23.463 26.74 23.535 26.633 23.478C26.279 23.351 26.091 22.879 26.186 22.355C26.274 21.703 26.929 21.046 27.43 21.253C27.699 21.339 27.861 21.655 27.905 21.991C27.925 22.028 27.962 22.054 28.004 22.059C28.697 22.148 28.864 21.668 29.041 21.159C29.202 20.699 29.399 20.132 30.021 19.715C31.038 21.686 33.424 22.628 34.283 22.958C33.534 25.111 32.975 27.684 30.129 27.612L30.128 27.611Z" fill="#3F3436"/>
<path d="M33.411 32.701C35.864 34.99 39.169 31.28 36.575 29.115C34.2 27.329 31.343 30.565 33.411 32.701ZM33.109 30.253C34.168 27.645 38.041 29.104 37.106 31.763C36.038 34.372 32.181 32.909 33.109 30.253Z" fill="#3F3436"/>
<path d="M39.574 28.392C39.783 28.418 40.626 27.957 41.691 26.942C42.736 25.884 42.855 24.757 42.617 24.054C42.161 22.847 40.729 22.668 39.632 23.607C36.617 21.378 34.588 25.935 39.574 28.392ZM36.896 24.138C37.086 23.539 37.685 23.22 38.344 23.286C38.606 23.307 39.021 23.423 39.515 23.852C39.551 23.884 39.583 23.909 39.636 23.906C42.495 21.71 44.194 25.816 39.632 28.129C38.47 27.615 36.285 25.758 36.896 24.138Z" fill="#3F3436"/>
<path d="M19.774 21.826C19.977 21.851 20.641 21.477 21.538 20.631C22.404 19.754 22.501 18.819 22.304 18.236C21.93 17.236 20.741 17.077 19.831 17.846C17.305 16.022 15.678 19.822 19.774 21.826ZM17.606 18.32C17.76 17.831 18.237 17.582 18.771 17.636C18.982 17.653 19.318 17.747 19.719 18.094C19.749 18.12 19.777 18.144 19.834 18.144C22.211 16.347 23.496 19.707 19.831 21.562C18.876 21.135 17.113 19.631 17.606 18.319V18.32Z" fill="#3F3436"/>
<path d="M19.184 27.719C19.353 27.753 19.751 27.507 20.341 26.962C20.897 26.399 20.959 25.794 20.83 25.416C20.597 24.772 19.828 24.651 19.24 25.125C17.564 23.999 16.62 26.482 19.184 27.718V27.719ZM17.898 25.501C18.038 25.125 18.345 25.096 18.575 25.107C18.7 25.117 18.899 25.173 19.139 25.382C19.159 25.399 19.188 25.425 19.242 25.425C19.292 25.425 19.321 25.4 19.342 25.381C19.583 25.173 19.781 25.117 19.906 25.106C20.065 25.093 20.449 25.106 20.583 25.5C20.879 26.269 19.821 27.191 19.241 27.454C18.658 27.189 17.604 26.269 17.899 25.5L17.898 25.501Z" fill="#3F3436"/>
</svg>
