<svg width="59" height="57" viewBox="0 0 59 57" fill="none" xmlns="http://www.w3.org/2000/svg">
<path d="M58.5 28.5C58.5 43.9479 45.5326 56.5 29.5 56.5C13.4673 56.5 0.5 43.9479 0.5 28.5C0.5 13.0521 13.4673 0.5 29.5 0.5C45.5326 0.5 58.5 13.0521 58.5 28.5Z" stroke="#B0B3FB"/>
<g clip-path="url(#clip0_43_10)">
<path d="M25.6451 44H33.8709C34.1382 44 34.3548 43.7834 34.3548 43.5161V41.5807L25.6717 40.8625L25.2517 42.9242L25.6451 44Z" fill="#B3E1F8"/>
<path d="M31.4515 14H28.5483L26.2252 19.8065H34.3548V16.9032C34.3548 15.2998 33.055 14 31.4515 14Z" fill="#C6805D"/>
<path d="M28.5484 14H28.0646C27.7073 14 27.3987 14.1958 27.2311 14.4839H27.0968C25.7607 14.4839 24.6775 15.567 24.6775 16.9032V19.8064H28.5485V14H28.5484Z" fill="#AF6E4D"/>
<path d="M32.1647 26.7751C31.7437 26.6603 31.4516 26.2779 31.4516 25.8415V25.2046L28.0261 24.8785L27.6952 26.6474L25.9772 27.7673L31.4516 32.3871L34.3548 27.3724L32.1647 26.7751Z" fill="#FBBD80"/>
<path d="M27.5806 22.7097V25.8415C27.5806 26.2779 27.2885 26.6603 26.8675 26.7751L25.9579 27.0232L25.837 28.0594L27.1223 27.7088C27.9643 27.4792 28.5484 26.7144 28.5484 25.8417C28.5484 25.6713 28.6996 25.5418 28.8682 25.5659C29.08 25.5962 29.2959 25.613 29.5161 25.613C30.2046 25.613 30.8581 25.465 31.4516 25.2047V22.7098H27.5806V22.7097Z" fill="#F4AA73"/>
<path d="M28.8111 28.6084L27.1692 27.6954L24.1867 27.8568C23.3447 28.0864 22.7605 28.8512 22.7605 29.724V31.6329L23.2257 32.6414L25.2962 34.0922L25.1498 40.7989L25.6451 41.5806H34.3547V34.3213C34.3548 34.3213 29.2495 28.8519 28.8111 28.6084Z" fill="#FF7E92"/>
<path d="M24.6774 38.1935V41.5806L25.0862 42.1097L25.6451 41.5806V41.0967C25.6451 40.2951 26.295 39.6451 27.0967 39.6451H30C30.8016 39.6451 31.4516 38.9952 31.4516 38.1935H24.6774Z" fill="#FF5F7A"/>
<path d="M34.8254 19.6439C34.748 19.1681 34.3012 18.8387 33.8191 18.8387H33.3871C33.0127 18.8387 32.688 18.6262 32.527 18.3151C32.3846 18.0399 32.1481 17.8258 31.8424 17.7748L27.5807 17.0645L26.0408 20.4751C26.0408 22.613 27.3783 24.5539 29.5161 24.5539C29.8521 24.5539 30.4889 24.5219 30.4889 24.5219C32.156 24.0904 33.3871 22.5761 33.3871 20.7742H33.871C34.4587 20.7742 34.9241 20.2502 34.8254 19.6439Z" fill="#FFD18D"/>
<path d="M27.5806 20.7742V17.0645L27.565 17.0619C27.0666 16.9788 26.6128 17.3632 26.6128 17.8685V17.871C26.6128 18.4054 26.1795 18.8387 25.6451 18.8387H25.213C24.731 18.8387 24.2841 19.1681 24.2067 19.6439C24.1081 20.2503 24.5735 20.7742 25.1612 20.7742H25.6451C25.6451 22.912 27.3782 24.6452 29.5161 24.6452C29.8509 24.6452 30.179 24.6018 30.4889 24.522C28.8202 24.0916 27.5806 22.5772 27.5806 20.7742Z" fill="#FBBD80"/>
<path d="M28.0646 20.7742C27.7971 20.7742 27.5807 20.5575 27.5807 20.2903V19.8065C27.5807 19.5393 27.7971 19.3226 28.0646 19.3226C28.332 19.3226 28.5484 19.5393 28.5484 19.8065V20.2903C28.5484 20.5575 28.332 20.7742 28.0646 20.7742Z" fill="#845252"/>
<path d="M30.9678 20.7742C30.7003 20.7742 30.4839 20.5575 30.4839 20.2903V19.8065C30.4839 19.5393 30.7003 19.3226 30.9678 19.3226C31.2352 19.3226 31.4516 19.5393 31.4516 19.8065V20.2903C31.4516 20.5575 31.2352 20.7742 30.9678 20.7742Z" fill="#845252"/>
<path d="M29.5161 22.8219C29.1622 22.8219 28.8168 22.7345 28.4898 22.5617C28.2536 22.437 28.1628 22.1442 28.2876 21.908C28.4128 21.672 28.7057 21.5812 28.9415 21.706C29.3139 21.9025 29.7184 21.9025 30.0907 21.706C30.327 21.5812 30.6199 21.6719 30.7447 21.908C30.8694 22.1442 30.7787 22.437 30.5424 22.5617C30.2155 22.7345 29.8701 22.8219 29.5161 22.8219Z" fill="#F4AA73"/>
<path d="M25.6451 30.4516C25.9124 30.4516 26.129 30.6682 26.129 30.9355V33.1695L25.1613 32.8709V30.9355C25.1613 30.6682 25.3779 30.4516 25.6451 30.4516Z" fill="#FF5F7A"/>
<path d="M23.2258 29.5106C23.2258 29.0754 23.5188 28.6914 23.9388 28.5771L27.1223 27.7088C27.1369 27.7048 27.1547 27.6997 27.1691 27.6954L25.9579 27.0232L23.6843 27.6433C22.8422 27.8729 22.2581 28.6378 22.2581 29.5106V31.4194C22.2581 31.7776 22.4526 32.0903 22.7419 32.2576C22.8842 32.34 23.0495 32.5492 23.2258 32.5492V29.5106Z" fill="#FF5F7A"/>
<path d="M36.4664 26.8884C35.5406 25.9626 34.3017 25.5407 33.0905 25.6229L30.6858 27.0419L26.58 31.1476C26.1678 31.5598 25.486 32.3178 25.4044 32.8709V36.2581L32.8374 36.6761L36.4664 33.0471C38.1671 31.3464 38.1671 28.5891 36.4664 26.8884Z" fill="#B3E1F8"/>
<path d="M31.7328 35.7808C31.3194 35.5356 30.9343 35.236 30.5889 34.8906C29.4921 33.7933 28.8878 32.3351 28.8878 30.7833C28.8878 30.7796 28.8878 30.776 28.8878 30.7723C28.8891 30.142 29.1695 29.5442 29.6151 29.0985L33.0906 25.6229C32.0784 25.6926 31.0816 26.1146 30.3078 26.8883L26.2021 30.9941C25.7899 31.4063 25.2429 32.3177 25.1614 32.8709V36.258L26.1291 36.3107V34.1728C26.1291 33.4167 26.3385 32.6687 26.7658 32.0449C26.9015 31.847 27.0421 31.6714 27.1698 31.5437C27.1698 31.5437 27.4723 31.2413 27.9409 30.7726C27.9359 32.5114 28.5807 34.2507 29.9047 35.5746C30.2961 35.966 30.7327 36.305 31.2008 36.5868L31.7276 36.6155C31.7974 36.5754 31.8585 36.5179 31.9025 36.4436C32.0385 36.2141 31.9629 35.9173 31.7328 35.7808Z" fill="#7AD7EE"/>
<path d="M31.4515 37.2229H24.6408V33.7486L25.1612 33.3549V32.3871H23.2257C23.0486 32.3871 22.8846 32.3408 22.7418 32.2576L22.7419 37.2259C22.7419 38.0275 23.3918 38.6775 24.1935 38.6775H31.4515C32.2431 38.6775 32.946 38.2972 33.3874 37.7095L31.4515 37.2229Z" fill="#F4AA73"/>
<path d="M23.7097 33.8387V37.2258C23.7097 37.493 23.9263 37.7097 24.1936 37.7097H33.3878C33.6968 37.3007 33.8744 36.7963 33.8709 36.2432C33.8676 35.7154 33.431 35.2903 32.9033 35.2903H32.4194C31.885 35.2903 31.4516 35.7235 31.4516 36.258H25.1613V33.3548H24.1936C23.9263 33.3549 23.7097 33.5715 23.7097 33.8387Z" fill="#FBBD80"/>
<path d="M33.3871 32.3871C34.7233 32.3871 35.8064 31.3039 35.8064 29.9677C35.8064 28.6316 34.7233 27.5484 33.3871 27.5484C32.0509 27.5484 30.9678 28.6316 30.9678 29.9677C30.9678 31.3039 32.0509 32.3871 33.3871 32.3871Z" fill="#FFD18D"/>
<path d="M34.0713 31.1359C33.9475 31.1359 33.8237 31.0886 33.7292 30.9941C33.5402 30.8051 33.5388 30.497 33.7273 30.308C33.9168 30.1199 34.2216 30.118 34.4101 30.3066L34.4134 30.3099C34.6024 30.4989 34.6024 30.8051 34.4134 30.9941C34.3189 31.0886 34.1951 31.1359 34.0713 31.1359Z" fill="#845252"/>
<path d="M32.7028 29.7674C32.579 29.7674 32.4552 29.7202 32.3607 29.6257C32.1716 29.4366 32.1702 29.1286 32.3588 28.9395C32.5483 28.7514 32.853 28.7496 33.0416 28.9381L33.0449 28.9414C33.2339 29.1304 33.2339 29.4366 33.0449 29.6256C32.9504 29.7201 32.8266 29.7674 32.7028 29.7674Z" fill="#845252"/>
<path d="M25.1612 44H25.6451V41.5807H24.6774V43.5161C24.6774 43.7833 24.894 44 25.1612 44Z" fill="#7AD7EE"/>
<path d="M42.8625 17.0854C42.3235 15.6394 40.6045 16.1314 40.0025 16.7644C37.1715 14.5044 35.1185 18.8254 40.0025 21.2564C41.0145 20.8644 43.5525 18.8644 42.8625 17.0854Z" fill="#FC5061"/>
<path d="M40.3065 26.1444C40.0145 26.0514 39.5115 26.3984 39.5065 26.4304C39.5015 26.4304 39.2375 26.1674 38.9095 26.1404C37.9575 26.0994 37.8915 27.1914 38.5875 27.8704C38.7845 28.1004 39.3795 28.4984 39.5105 28.5364C39.5105 28.5364 39.9825 28.3224 40.4285 27.8704C41.0505 27.2374 41.1035 26.3094 40.3065 26.1444Z" fill="#FC5061"/>
<path d="M21.6245 19.9344C21.0815 19.7944 20.3725 20.3284 20.3125 20.4024C18.2395 18.7614 16.8195 21.6264 19.5935 23.4274H19.5945C20.0135 23.7184 20.3055 23.8584 20.3185 23.8564C20.3185 23.8564 21.0945 23.5044 21.8255 22.7644C22.8445 21.7254 22.9315 20.2044 21.6255 19.9344H21.6245Z" fill="#FC5061"/>
<path d="M39.0665 20.6984L39.0765 20.6844C39.9185 20.4464 40.9015 19.7314 41.4555 19.0604C42.0105 18.2624 42.4285 16.9784 41.7085 16.1614V16.1564C42.2315 16.2274 42.6745 16.5234 42.8635 17.0854C43.5535 18.8724 41.0115 20.8574 40.0095 21.2564C39.9955 21.2584 39.6115 21.0764 39.0675 20.6984H39.0665Z" fill="#DE354E"/>
<path d="M38.3546 16.5844C39.1456 16.5884 39.1446 17.7914 38.3546 17.7954C37.5646 17.7914 37.5636 16.5884 38.3546 16.5844Z" fill="white"/>
<path d="M39.1796 26.6084C39.1856 26.9764 38.6076 26.9764 38.6126 26.6084C38.6076 26.2404 39.1856 26.2404 39.1796 26.6084Z" fill="white"/>
<path d="M39.1795 28.2414L39.1835 28.2354C40.0005 28.0014 41.0195 26.9744 40.4175 26.1144V26.1114C41.2155 26.2764 41.1615 27.2044 40.5395 27.8374C40.0935 28.2894 39.6205 28.5034 39.6205 28.5034C39.6135 28.5044 39.4335 28.4204 39.1785 28.2424L39.1795 28.2414Z" fill="#DE354E"/>
<path d="M21.7865 19.9174V19.9134C23.0925 20.1844 23.0055 21.7044 21.9865 22.7434C21.2555 23.4834 20.4795 23.8354 20.4795 23.8354C20.4665 23.8384 20.1745 23.6964 19.7555 23.4064L19.7615 23.3954C20.4575 23.1824 21.1215 22.6954 21.5915 22.1474C22.0185 21.5334 22.3395 20.5464 21.7865 19.9184V19.9174Z" fill="#DE354E"/>
<path d="M19.2075 21.1734C18.5985 21.1704 18.5985 20.2454 19.2075 20.2434C19.8165 20.2464 19.8155 21.1704 19.2075 21.1734Z" fill="white"/>
<path d="M43.0015 17.0414C42.5335 15.8054 41.1045 15.6864 40.0285 16.5954C37.0765 14.3824 34.9645 18.8704 39.9715 21.3624C41.2185 21.0104 43.6625 18.9094 43.0015 17.0424V17.0414ZM40.0275 21.0994C39.5955 20.9074 38.5735 20.1934 38.1625 19.7344C36.8255 18.3634 36.8135 16.3594 38.5845 16.2694C38.9995 16.2824 39.3195 16.3534 39.9115 16.8394C39.9465 16.8694 39.9745 16.8934 40.0305 16.8934C42.8775 14.7074 44.5765 18.7924 40.0275 21.0994Z" fill="#3F3436"/>
<path d="M22.7045 20.5964C22.3325 19.6384 21.2385 19.5194 20.3895 20.2234C18.0515 18.5304 16.4785 22.0544 20.3325 23.9554C20.5445 23.9774 21.1345 23.6354 21.9885 22.8394C22.7995 22.0184 22.8895 21.1424 22.7045 20.5964ZM20.3895 23.6934C20.0455 23.5354 19.2955 23.0084 18.9775 22.6564C17.8425 21.5624 18.1085 19.9124 19.4005 20.0464C19.5965 20.0624 19.9095 20.1504 20.2815 20.4734C20.3085 20.4974 20.3375 20.5214 20.3925 20.5214C20.4425 20.5214 20.4705 20.4974 20.5005 20.4714C21.0265 20.0554 21.2425 20.0214 21.6795 20.0534C22.8495 20.2914 22.7535 21.6634 21.8035 22.6554C21.2065 23.2594 20.5725 23.6014 20.3905 23.6924L20.3895 23.6934Z" fill="#3F3436"/>
<path d="M40.3455 25.9884C40.0455 25.9654 39.8795 25.9864 39.5325 26.2354C38.0595 25.2704 37.2915 27.2614 39.0175 28.3494C39.3835 28.5704 39.4105 28.6464 39.5875 28.6224C39.6075 28.6134 40.0855 28.3934 40.5425 27.9314C41.2575 27.1874 41.2465 26.1734 40.3455 25.9894V25.9884ZM40.3575 27.7474C40.0195 28.0894 39.6635 28.2904 39.5325 28.3584C38.9015 28.0664 38.0665 27.2204 38.3205 26.5944C38.4395 26.2434 38.7825 26.2324 38.9255 26.2444C39.0375 26.2534 39.2175 26.3044 39.4335 26.4924C39.4525 26.5094 39.4825 26.5344 39.5345 26.5344C40.5685 25.7264 41.2835 26.7684 40.3575 27.7484V27.7474Z" fill="#3F3436"/>
</g>
<defs>
<clipPath id="clip0_43_10">
<rect width="30" height="30" fill="white" transform="translate(15 14)"/>
</clipPath>
</defs>
</svg>
