<svg width="59" height="57" viewBox="0 0 59 57" fill="none" xmlns="http://www.w3.org/2000/svg">
<path d="M58.5 28.5C58.5 43.9479 45.5326 56.5 29.5 56.5C13.4673 56.5 0.5 43.9479 0.5 28.5C0.5 13.0521 13.4673 0.5 29.5 0.5C45.5326 0.5 58.5 13.0521 58.5 28.5Z" stroke="#B0B3FB"/>
<path d="M24.86 17.674C23.639 17.325 22.422 16.843 21.126 16.943C19.729 17.021 18.119 17.636 17.636 19.066C17.173 20.317 16.977 21.907 17.682 23.098L18.097 24.345C18.257 23.992 19.391 25.119 19.717 25.119C19.801 25.119 20.956 26.275 20.956 26.275C24.849 27.084 24.347 25.961 25.359 22.19C25.94 21.462 26.284 20.375 26.151 19.477C26.83 18.912 27.397 18.158 27.477 17.243C26.699 17.705 25.745 17.862 24.861 17.673L24.86 17.674Z" fill="#4C3F3A"/>
<path d="M27.476 17.244C27.467 17.323 27.455 17.402 27.439 17.479L27.393 17.47C26.526 19.781 19.546 20.08 17.635 19.066C18.12 17.636 19.723 17.023 21.125 16.943C23.433 16.726 25.259 18.603 27.476 17.244Z" fill="#60544E"/>
<path d="M23.25 30.404C23.25 30.404 23.064 30.623 22.969 30.893C22.452 30.459 21.737 29.871 21.737 29.871C21.283 30.248 20.592 30.752 20.592 30.752C21.457 32.853 22.321 34.955 22.969 35.963C23.285 35.929 23.789 32.198 23.652 30.807C23.624 30.518 23.312 30.451 23.249 30.405L23.25 30.404Z" fill="white"/>
<path d="M31.876 25.488C31.443 24.313 30.033 24.714 29.549 25.227C27.223 23.385 25.599 26.925 29.549 28.88C30.373 28.563 32.435 26.934 31.876 25.488Z" fill="#FC5061"/>
<path d="M44.015 20.063C44.629 18.17 43.608 15.936 41.769 15.198C40.02 14.593 37.805 14.639 36.291 15.795C37.679 15.096 39.397 15.11 40.843 15.609C40.714 16.93 34.084 22.138 33.864 22.014C33.864 22.014 33.605 24.337 33.337 25.446C33.069 26.555 32.878 27.752 33.297 28.813C33.446 29.35 34.386 30.547 34.598 30.799C34.688 30.672 37.808 30.285 39.893 29.624C39.963 29.659 40.25 29.902 40.323 29.925C40.327 29.926 40.878 30.06 40.952 30.082C41.5 30.249 41.493 29.995 41.741 30.512C41.891 30.824 42.314 31.772 42.308 32.119C42.303 32.432 44.489 30.274 43.697 26.53C43.146 24.165 42.993 22.373 44.019 20.064L44.015 20.063Z" fill="white"/>
<path d="M36.214 15.84C36.239 15.825 36.264 15.809 36.291 15.794C36.201 15.864 36.111 15.932 36.011 15.984C36.076 15.931 36.143 15.884 36.214 15.84Z" fill="#96262C"/>
<path d="M25.095 21.845C24.738 21.778 24.431 21.582 23.906 21.098C24.421 21.569 24.741 21.776 25.095 21.845Z" fill="#FFA4A4"/>
<path d="M23.818 21.016C23.771 20.973 23.723 20.927 23.673 20.878C23.723 20.926 23.771 20.972 23.818 21.016Z" fill="#FFA4A4"/>
<path d="M23.624 33.218C23.455 34.373 23.37 35.228 23.064 36.082C22.601 35.384 22.157 34.414 21.782 33.585C21.775 33.559 22.072 31.951 22.235 31.364C22.096 31.082 21.422 30.393 21.417 30.367C21.624 30.097 21.99 29.853 22.219 29.598C22.219 29.598 22.909 30.041 23.197 30.251C23.137 30.493 22.697 31.303 22.939 31.654C23.243 32.137 23.463 32.665 23.623 33.217L23.624 33.218Z" fill="#A7292C"/>
<path d="M25.292 21.869C24.347 21.822 23.444 20.588 22.672 19.891C21.75 20.954 21.272 21.964 19.791 22.125C19.759 22.115 19.382 23.119 19.36 23.167C18.967 22.419 18.192 22.274 17.791 23.127C17.386 23.898 17.926 25.343 18.828 24.977C18.987 25.982 19.605 26.839 20.459 27.322C20.406 27.697 20.362 28.02 20.362 28.02C20.375 28.195 20.318 28.355 20.222 28.496L20.16 28.781C20.673 29.379 21.195 29.889 22.224 29.646C22.77 29.972 23.626 29.343 23.243 28.586L23.25 28.583C23.119 28.292 23.101 27.958 23.064 27.596C25.771 26.653 25.354 24.202 25.359 21.872C25.336 21.871 25.314 21.871 25.292 21.869Z" fill="#FFD7CD"/>
<path d="M23.25 28.583C23.25 28.583 22.534 29.286 22.224 29.646C21.513 29.364 20.82 28.972 20.222 28.495C19.396 29.215 19.163 30.827 20.866 31.037C20.866 31.037 22.001 29.933 22.228 29.682C22.549 29.876 23.977 30.87 23.977 30.87L23.79 28.892L23.25 28.584V28.583Z" fill="white"/>
<path d="M30.5171 35.527C30.4671 35.472 30.4141 35.413 30.3591 35.351C28.8321 33.637 30.0041 33.221 28.0631 35.828L28.0301 35.807C27.8981 35.255 27.2671 32.621 27.0711 31.644C26.8521 30.55 26.4151 30.003 25.6491 29.785C25.0941 29.628 24.3261 29.187 23.7891 28.891C23.7891 28.891 23.4561 33.778 23.2961 35.44C23.2801 35.61 22.8431 35.988 22.7681 35.834C21.9431 34.142 19.8741 28.848 19.8741 28.848C19.8051 28.908 19.8191 28.897 19.7451 28.948C19.1241 29.363 18.3541 29.873 17.7811 30.184C17.3781 30.4 16.9221 30.806 16.6931 31.202C16.5281 31.487 16.5031 31.83 16.4821 32.159C16.2921 35.159 16.1001 38.159 15.9091 41.159C19.3771 41.162 23.0401 41.159 26.6721 41.16L26.6771 41.155C26.5961 40.503 26.5011 39.389 26.4101 38.207H26.4141C27.9481 41.566 30.0141 37.576 30.8421 36.021C30.9141 35.792 30.6671 35.738 30.5161 35.527H30.5171Z" fill="#778196"/>
<path d="M30.36 35.351C30.944 34.524 30.291 34.016 29.319 33.909C29.078 34.277 28.064 35.828 28.064 35.828L28.031 35.807C27.899 35.255 27.268 32.621 27.072 31.644C26.853 30.55 26.416 30.003 25.65 29.785C25.358 29.702 25.001 29.538 24.655 29.362L25.55 31.06C25.58 31.117 25.562 31.188 25.507 31.222C25.142 31.451 24.471 32.015 24.471 32.015L25.293 32.95C24.512 33.874 23.906 34.346 23.457 35.469C23.957 34.84 24.698 34.405 25.494 34.278C25.875 36.55 25.886 38.884 25.526 41.16H26.673L26.678 41.155C26.597 40.503 26.502 39.389 26.411 38.207H26.415C26.546 38.63 26.786 38.969 27.136 39.221C28.218 38.599 30.517 35.526 30.36 35.351Z" fill="#4D596D"/>
<path d="M22.524 35.417C22.321 35.378 20.05 34.517 19.816 35.694C19.291 37.462 19.383 39.336 19.398 41.161H18.445C18.49 39.53 18.65 34.169 18.65 34.161L18.514 34.006C17.035 34.115 16.915 39.882 16.812 41.162C16.463 41.161 16.168 41.164 15.91 41.161C16.101 38.161 16.293 35.161 16.483 32.161C16.504 31.832 16.529 31.489 16.694 31.204C16.924 30.808 17.38 30.401 17.782 30.186C18.356 29.875 19.126 29.365 19.746 28.95V28.952C19.43 29.865 18.705 30.617 18.359 31.506C18.895 31.843 19.553 32.036 20.129 32.323C19.915 32.652 19.758 33.021 19.671 33.404C20.677 33.991 21.633 34.666 22.524 35.419V35.417Z" fill="#4D596D"/>
<path d="M18.877 23.929C18.98 23.216 18.255 22.776 18.359 23.031C18.647 23.154 18.789 23.459 18.793 23.76C18.584 23.709 18.382 23.917 18.352 24.175C18.322 24.432 18.464 24.659 18.668 24.683C18.818 24.701 18.916 24.203 18.876 23.928L18.877 23.929Z" fill="#FFA4A4"/>
<path d="M24.226 22.878C24.669 22.872 24.668 24.244 24.226 24.238C23.785 24.244 23.785 22.873 24.226 22.878Z" fill="#594449"/>
<path d="M21.507 22.878C21.95 22.872 21.949 24.244 21.507 24.238C21.065 24.244 21.064 22.872 21.507 22.878Z" fill="#594449"/>
<path d="M22.87 23.985C22.813 24.241 22.888 24.621 23.04 24.777C23.039 24.752 23.034 24.769 23.023 24.781C22.978 24.846 22.844 24.888 22.893 24.985C22.913 25.02 22.97 25.041 23.005 25.014C23.117 24.94 23.277 24.802 23.154 24.666C23.032 24.48 22.987 24.246 23.028 24.028C23.055 23.926 22.896 23.881 22.87 23.984V23.985Z" fill="#FFA4A4"/>
<path d="M22.082 25.905C22.471 26.392 23.321 26.192 23.698 25.778C23.77 25.701 23.654 25.584 23.582 25.662C23.266 26.009 22.58 26.19 22.223 25.822C22.168 25.732 22.026 25.814 22.081 25.905H22.082Z" fill="#FFA4A4"/>
<path d="M23.0639 27.596C22.2219 27.871 21.2249 27.77 20.4599 27.321C20.4339 27.505 20.4099 27.676 20.3929 27.803C21.0329 28.947 23.1639 28.582 23.2299 28.599C23.2359 28.593 23.2419 28.585 23.2499 28.582C23.1189 28.291 23.1009 27.957 23.0639 27.595V27.596Z" fill="#FFA4A4"/>
<path d="M23.198 36.561C23.665 36.564 23.666 37.275 23.198 37.277C22.728 37.274 22.729 36.563 23.198 36.561Z" fill="#594449"/>
<path d="M23.198 39.077C23.665 39.08 23.666 39.791 23.198 39.793C22.728 39.79 22.729 39.079 23.198 39.077Z" fill="#594449"/>
<path d="M25.0949 21.845C24.2969 21.694 23.3689 20.536 22.6719 19.891C21.7499 20.954 21.2719 21.964 19.7909 22.125C19.7589 22.115 19.3819 23.119 19.3599 23.167C19.3289 23.144 19.9159 22.437 20.1749 22.361C21.5439 22.026 22.0859 21.422 22.6699 20.473C23.0719 20.954 23.5059 21.514 24.0389 21.844C24.4689 22.101 25.3919 21.94 25.3589 21.871C25.2699 21.868 25.1809 21.86 25.0949 21.844V21.845Z" fill="#FFA4A4"/>
<path d="M42.751 37.66C42.162 35.701 42.487 33.95 42.456 32.08C42.499 30.584 42.677 29.66 40.943 29.196C39.578 28.857 39.112 28.345 38.996 26.947C39.787 26.514 40.361 25.731 40.507 24.807C41.055 25.019 41.515 24.501 41.561 23.834C41.564 23.8 41.561 21.808 41.133 21.808C40.7 21.805 40.372 22.092 40.158 22.28C40.019 22.22 39.571 21.883 39.561 21.856C39.491 21.677 39.184 20.158 39.215 20.039C39.11 20.125 38.194 19.579 38.087 19.656C37.445 20.117 36.753 20.517 36.142 20.707C36.091 20.723 35.22 20.871 35.025 20.899C34.673 20.949 34.766 21.073 34.595 21.084C34.569 21.086 34.653 22.04 34.595 22.006V22.009C34.583 24.126 34.304 26.515 36.837 27.219C36.732 27.786 36.803 28.446 36.401 28.911C35.928 29.391 35.168 29.464 34.641 29.89C33.585 30.733 33.885 32.336 33.998 33.707C33.373 32.892 32.811 31.323 31.766 31.074C30.94 30.966 29.43 31.272 29.621 32.363C28.696 33.098 29.767 33.779 29.329 33.907C29.613 34.555 30.035 35.078 30.446 35.527L31.321 33.887L31.314 33.866C31.594 33.786 31.855 33.645 32.075 33.455L32.177 33.433C32.573 34.862 32.526 36.911 33.669 37.946C34.022 38.246 34.704 38.415 35.168 38.414L36.041 38.651C36.791 37.738 36.678 38.271 36.851 37.045C37.409 35.746 36.724 35.249 36.529 34.47C36.342 33.721 35.976 33.381 36.706 32.676C36.829 32.558 40.369 32.306 39.628 33.124C39.043 33.77 41.586 41.051 42.485 41.148V41.16C43.037 41.15 43.466 41.179 43.823 41.149C43.585 40.342 43.077 38.637 42.751 37.66Z" fill="#FFD7CD"/>
<path d="M41.6309 36.877C41.5919 37.906 43.5849 40.386 43.8229 41.194C43.4659 41.224 43.0369 41.195 42.4849 41.205C42.3959 40.517 42.1359 39.201 41.4379 38.033C39.9799 35.584 42.4589 34.743 41.2669 32.55C42.1699 33.039 41.6499 36.35 41.6299 36.878L41.6309 36.877Z" fill="#FFA4A4"/>
<path d="M34.7929 34.58C34.8709 34.833 34.9549 35.102 34.8809 35.356L34.8249 35.374C34.6599 34.835 34.2859 34.392 33.9989 33.913C33.8489 32.719 33.7879 31.691 34.1229 30.727L34.1409 30.734C34.1189 32.037 34.4369 33.336 34.7939 34.582L34.7929 34.58Z" fill="#FFA4A4"/>
<path d="M35.7399 37.556C33.7929 37.772 33.2219 35.461 33.0609 33.948C32.8229 32.886 32.0559 31.683 30.9189 31.478C30.5879 31.455 30.2619 31.59 29.9319 31.606C29.7009 31.82 29.5109 32.165 29.6199 32.467C28.6949 33.202 29.7659 33.883 29.3279 34.011C29.6119 34.659 30.0339 35.182 30.4449 35.631L31.3199 33.991L31.3129 33.97C31.5929 33.89 31.8539 33.749 32.0739 33.559L32.1759 33.537C32.4409 34.672 32.5619 35.85 32.9379 36.957C33.3099 38.049 34.1699 38.52 35.2899 38.532C35.4409 38.221 35.6719 37.884 35.7949 37.58L35.7379 37.555L35.7399 37.556Z" fill="#FFA4A4"/>
<path d="M39.939 23.387C39.939 23.387 38.259 22.912 38.314 21.396C36.551 22.559 34.597 22.213 34.595 22.213V22.21C34.62 22.21 34.646 22.21 34.669 22.208C34.917 21.103 37.257 20.032 39.398 20.018C38.9 21.927 39.568 23.226 39.938 23.387H39.939Z" fill="#FFA4A4"/>
<path d="M40.651 23.217C40.363 23.36 40.28 23.702 40.313 24C40.295 24.217 40.391 24.596 40.507 24.576C40.892 24.514 40.749 23.754 40.367 23.861C40.328 23.373 40.831 23.231 40.65 23.217H40.651Z" fill="#FFA4A4"/>
<path d="M38.088 23.119C38.487 23.113 38.486 24.352 38.088 24.346C37.688 24.351 37.688 23.113 38.088 23.119Z" fill="#594449"/>
<path d="M35.67 23.249C36.069 23.243 36.068 24.482 35.67 24.476C35.27 24.481 35.27 23.243 35.67 23.249Z" fill="#594449"/>
<path d="M36.8441 24.242C36.8851 24.51 36.6491 24.721 36.6571 24.971C36.6881 25.064 36.8531 25.209 36.9361 25.102C37.0011 24.982 36.8151 24.991 36.8151 24.906C36.9181 24.7 37.0201 24.48 37.0081 24.242C37.0041 24.137 36.8401 24.136 36.8441 24.242Z" fill="#FFA4A4"/>
<path d="M36.0579 26.008C36.4059 26.511 37.2939 26.393 37.6599 25.973C37.7289 25.894 37.6139 25.777 37.5439 25.857C37.2259 26.204 36.5219 26.321 36.1999 25.925C36.1399 25.839 35.9979 25.921 36.0579 26.008Z" fill="#FFA4A4"/>
<path d="M36.8009 28.433C37.6199 28.277 38.4589 28.007 39.0539 27.396C39.0319 27.268 39.0219 27.135 38.9959 27.007C38.3529 27.368 37.5499 27.466 36.8379 27.277C36.7639 27.67 36.7789 28.082 36.6639 28.468C36.7159 28.454 36.7639 28.44 36.8009 28.433Z" fill="#FFA4A4"/>
<path d="M37.062 31.13C36.553 31.37 37.973 31.134 38.423 32.666C38.882 33.064 38.193 31.055 37.062 31.13Z" fill="#FFA4A4"/>
<path d="M38.585 32.652C38.534 31.979 39.02 31.266 39.64 31.028C39.744 31.01 39.7 30.852 39.596 30.87C38.906 31.123 38.366 31.909 38.42 32.652C38.429 32.756 38.593 32.757 38.584 32.652H38.585Z" fill="#FFA4A4"/>
<path d="M41.4391 38.007C39.9811 35.561 42.4601 34.714 41.2681 32.524C40.2801 31.07 38.8111 31.876 38.4851 32.429C37.0661 30.646 34.7621 32.358 35.5321 34.726C35.7271 35.505 36.3541 36.196 35.7971 37.496C35.1601 38.518 34.5211 40.345 34.4871 41.162L34.4991 41.18H42.4861C42.3971 40.492 42.1371 39.176 41.4391 38.008V38.007Z" fill="white"/>
<path d="M42.486 41.167V41.179H40.828C40.744 40.199 40.423 39.268 40.137 38.335C40.033 37.575 40.025 36.754 40.232 36.012C40.742 34.827 41.477 33.53 41.016 32.213C41.704 32.856 41.641 33.981 41.439 34.725C41.22 35.6 40.455 36.366 41.439 38.006C42.135 39.165 42.394 40.489 42.486 41.166V41.167Z" fill="#E0E0EF"/>
<path d="M36.851 37.682C36.887 38.896 36.306 40.003 36.083 41.179H34.498L34.486 41.161C34.52 40.343 35.159 38.518 35.797 37.495C36.355 36.196 35.727 35.504 35.532 34.725C35.345 33.976 35.238 32.905 35.967 32.2C35.394 34.734 36.94 35.117 36.851 37.681V37.682Z" fill="#E0E0EF"/>
<path d="M43.186 17.885C42.308 15.221 38.573 14.675 36.291 15.794C35.474 16.349 34.679 17.336 34.68 18.333C33.782 18.76 33.045 19.431 33.127 20.879C33.216 21.597 33.829 22.223 34.597 22.213V22.21C35.295 22.166 37.207 22.076 38.95 20.663C38.475 22.591 39.551 23.329 40.042 23.369C40.065 23.318 40.039 23.1 40.068 23.056C40.173 22.877 40.666 22.777 40.742 22.777C41.2 22.767 41.576 23.356 41.567 23.937C42.016 23.637 43.457 22.367 42.512 20.975C42.48 20.916 42.678 20.546 42.781 20.292C43.129 19.44 43.35 18.4 43.187 17.884L43.186 17.885ZM36.668 15.64C36.689 15.63 36.711 15.622 36.733 15.615C36.711 15.622 36.69 15.631 36.668 15.64Z" fill="#B73A43"/>
<path d="M35.712 18.216C35.474 17.473 35.707 16.751 36.173 16.147C36.315 15.932 36.477 15.699 36.733 15.616L36.725 15.594C39.905 14.419 44.62 16.285 42.925 20.348C41.738 20.772 39.895 20.599 39.415 19.242C38.353 20.069 34.539 20.829 33.943 19.243C33.827 18.48 34.115 18.599 34.597 18.219C34.728 18.089 35.685 18.098 35.713 18.215L35.712 18.216Z" fill="#C74B57"/>
<path d="M31.909 25.481C32.468 26.935 30.404 28.549 29.588 28.873C29.575 28.875 29.265 28.727 28.822 28.42L28.83 28.409C29.554 28.191 30.279 27.66 30.765 27.088C31.217 26.44 31.556 25.395 30.971 24.731V24.726C31.396 24.783 31.756 25.025 31.91 25.482L31.909 25.481Z" fill="#DE354E"/>
<path d="M28.283 25.235C28.927 25.238 28.927 26.217 28.283 26.22C27.639 26.217 27.639 25.238 28.283 25.235Z" fill="white"/>
<path d="M31.981 25.325C31.504 24.415 30.455 24.352 29.586 25.059C28.416 24.037 26.847 24.788 27.071 26.232C27.089 27.407 28.938 28.821 29.586 29.007C30.479 28.695 32.719 26.965 31.981 25.325ZM31.084 27.628C30.717 28.043 29.758 28.671 29.586 28.727C25.917 26.858 27.35 23.647 29.475 25.314C29.564 25.421 29.698 25.329 29.772 25.252C31.573 23.938 32.654 26.106 31.084 27.628Z" fill="#3F3436"/>
<path d="M41.662 15.011C40.05 14.495 37.725 14.516 36.309 15.445C35.447 15.949 34.484 17.206 34.489 18.113C32.589 18.957 32.621 21.336 33.622 21.908C34.049 23.167 32.253 26.811 33.123 28.701C33.364 29.259 33.648 29.729 33.93 30.25C34.019 30.403 33.958 30.472 33.933 30.548C33.668 31.342 33.655 32.191 33.752 33.183C33.207 32.433 32.74 31.195 31.748 30.981C30.828 30.878 29.375 31.157 29.427 32.346C29.019 32.676 28.952 33.316 29.258 33.732C29.157 33.633 28.056 35.526 27.996 35.554C27.537 33.636 27.22 32.256 27.1 31.656C26.876 30.538 26.41 29.934 25.588 29.699C24.978 29.541 23.917 28.875 23.305 28.609C23.275 28.578 23.177 28.425 23.114 27.737C25.628 26.828 25.446 24.481 25.394 22.274C26.12 21.68 26.309 20.499 26.177 19.589C26.896 19.06 27.41 18.229 27.505 17.335C27.519 17.23 27.395 17.148 27.304 17.206C26.556 17.65 25.64 17.801 24.79 17.619C23.587 17.259 22.2 16.775 21.031 16.888C19.548 17.001 18.093 17.536 17.502 18.925C16.972 20.237 16.702 22.033 17.536 23.275C17.209 24.11 17.766 25.402 18.644 25.204C18.834 26.129 19.416 26.951 20.229 27.441C20.183 27.775 20.145 28.047 20.145 28.047C20.077 28.503 19.743 28.801 19.354 29.04C18.782 29.417 18.135 29.843 17.64 30.109C16.848 30.53 16.229 31.31 16.274 32.188C16.099 34.941 15.924 37.694 15.748 40.447L15.702 41.164C15.697 41.247 15.768 41.311 15.849 41.307C15.947 41.265 26.602 41.389 26.667 41.264C26.696 41.236 26.713 41.195 26.707 41.152C26.648 40.677 26.575 39.899 26.49 38.836C28.261 41.556 30.408 36.878 30.905 35.997C30.952 35.798 30.809 35.826 30.566 35.533L31.383 34.002C31.618 33.925 31.841 33.807 32.035 33.655C32.515 35.57 32.407 38.514 35.032 38.566C34.58 39.642 34.293 40.625 34.33 41.241C34.388 41.431 43.585 41.243 43.7 41.307C43.81 41.359 43.926 41.234 43.873 41.125C43.548 40.025 43.099 38.528 42.803 37.641C42.38 36.372 42.467 34.739 42.468 34.717C42.483 33.892 42.497 33.066 42.513 32.241C45.738 28.542 42.446 25.304 43.633 21.387C43.782 20.915 43.996 20.478 44.133 19.998C44.732 18.009 43.614 15.717 41.66 15.012L41.662 15.011ZM33.348 21.16C32.693 19.646 34.278 17.847 35.675 18.28C35.741 18.313 35.821 18.286 35.854 18.22C35.954 17.839 34.933 17.922 34.761 18.014C34.856 17.145 35.792 15.895 36.714 15.593C38.908 14.821 42.18 15.34 42.984 17.794C43.184 18.424 42.991 20.001 42.379 20.779C42.33 20.822 42.316 20.903 42.352 20.958C42.939 21.906 42.607 23.126 41.625 23.687C41.592 22.553 40.377 22.088 39.886 23.101C39.444 22.895 38.572 22.259 39.015 20.559C39.03 20.503 39.006 20.444 38.958 20.413C38.909 20.382 38.846 20.386 38.801 20.423C37.116 21.792 35.263 21.888 34.558 21.935C34.084 21.959 33.478 21.601 33.348 21.161V21.16ZM40.225 24.894C40.246 24.909 40.268 24.922 40.291 24.935C40.022 26.485 38.343 27.568 36.814 27.138C34.389 26.462 34.668 24.187 34.692 22.194C35.352 22.151 37.096 22.008 38.678 20.855C38.228 22.681 40.153 23.855 40.113 23.242C40.476 22.449 41.322 22.827 41.358 23.697C41.422 24.328 40.918 25.06 40.375 24.673C40.234 24.573 40.08 24.798 40.225 24.893V24.894ZM33.701 29.272C32.242 27.036 34.111 24.463 33.899 22.062C34.069 22.137 34.247 22.183 34.425 22.198C34.382 24.298 34.172 26.594 36.643 27.366C36.606 27.397 36.596 27.699 36.588 27.747C36.571 29.545 35.108 29.057 34.171 30.137C34.019 29.847 33.858 29.561 33.702 29.272H33.701ZM23.83 30.741C23.859 30.052 23.871 29.485 23.876 29.196C24.043 29.286 24.226 29.384 24.414 29.481C24.737 30.033 25.09 30.567 25.432 31.083C24.123 32.109 24.227 31.551 25.125 32.941C24.552 33.612 23.926 34.185 23.445 34.919C23.664 33.782 23.792 31.773 23.83 30.742V30.741ZM21.896 33.545C21.914 32.796 22.15 32.025 22.277 31.379C22.119 31.036 21.842 30.781 21.635 30.466C21.813 30.232 21.997 30.009 22.173 29.814C22.411 29.965 22.667 30.142 22.948 30.349C22.989 30.529 22.721 30.948 22.665 31.141C22.542 31.493 22.797 31.916 22.997 32.216C23.18 32.524 23.26 32.976 23.39 33.329C23.284 34.405 23.147 35.203 22.982 35.707C22.615 35.12 22.243 34.416 21.875 33.609C21.887 33.59 21.895 33.569 21.896 33.546V33.545ZM21.664 33.132C21.436 32.605 21.208 32.037 20.985 31.438C21.115 31.207 21.281 30.951 21.47 30.689C21.65 30.934 21.839 31.177 22.015 31.423C21.864 31.91 21.727 32.528 21.664 33.131V33.132ZM22.069 29.529C21.426 29.264 20.826 28.912 20.283 28.483C20.444 28.111 20.392 28.131 20.48 27.577C21.206 27.941 22.069 28.027 22.853 27.817C22.901 28.312 22.971 28.553 23.035 28.681C22.725 28.963 22.355 29.211 22.068 29.529H22.069ZM23.226 32.078C22.701 31.345 22.94 31.26 23.201 30.537C23.32 30.626 23.469 30.744 23.561 30.811C23.54 31.298 23.506 31.946 23.453 32.625C23.393 32.431 23.324 32.241 23.226 32.078ZM23.228 28.866C23.312 28.896 23.462 28.973 23.613 29.053C23.611 29.236 23.602 29.779 23.575 30.486C23.223 30.212 22.707 29.834 22.358 29.613C22.624 29.347 22.956 29.117 23.229 28.865L23.228 28.866ZM17.383 22.243C16.972 19.482 18.001 17.313 21.045 17.153C23.221 16.936 25.02 18.704 27.198 17.566C27.053 18.259 26.645 18.902 26.073 19.326C26.022 19.364 25.952 19.416 25.924 19.505C26.003 20.337 25.927 21.211 25.406 21.907C25.391 21.832 25.317 21.794 25.244 21.801C24.587 21.92 23.569 20.509 22.625 19.766C21.658 20.651 21.218 21.936 19.694 22.054C19.638 22.057 19.582 22.085 19.562 22.14L19.251 22.919C18.861 22.293 18.013 22.33 17.659 23.003C17.502 22.767 17.43 22.476 17.384 22.242L17.383 22.243ZM18.897 25.103C19.113 25.039 19.046 24.725 18.826 24.833C18.212 25.256 17.651 24.486 17.716 23.738C17.728 22.848 18.682 22.282 19.124 23.235C19.061 23.393 19.31 23.492 19.372 23.332L19.779 22.314C21.14 22.193 21.829 21.072 22.64 20.099C23.507 20.985 24.587 22.136 25.127 22.061C25.144 24.195 25.478 26.697 22.931 27.518C21.202 28.115 19.197 26.899 18.897 25.105V25.103ZM20.097 28.768C20.112 28.75 20.127 28.731 20.142 28.711C20.674 29.127 21.258 29.472 21.883 29.739C21.532 30.141 21.139 30.662 20.865 31.115C20.565 30.313 20.284 29.403 20.067 28.843C20.078 28.817 20.088 28.792 20.097 28.768ZM19.907 29.173C20.541 31.071 21.4 33.484 22.398 35.242C21.563 34.548 20.671 33.919 19.74 33.37C20.228 31.805 20.752 32.622 18.417 31.494C18.801 30.771 19.513 29.919 19.906 29.173H19.907ZM18.501 41.039C18.551 39.299 18.702 34.194 18.702 34.194L18.435 34.186C18.435 34.186 18.284 39.306 18.234 41.039H15.978C16.166 38.094 16.354 35.148 16.541 32.203C16.56 31.907 16.581 31.571 16.734 31.307C16.938 30.955 17.363 30.558 17.767 30.342C18.296 30.058 18.989 29.598 19.583 29.207C17.894 32.046 17.358 31.292 19.851 32.417C19.746 32.624 19.318 33.377 19.521 33.55C20.729 34.284 21.965 35.088 22.938 36.129C23.216 36.567 23.209 39.774 23.249 41.04H18.501V41.039ZM30.623 35.965C29.638 37.818 27.807 41.209 26.44 38.183C26.271 35.99 26.122 33.619 26.12 33.535C26.122 33.364 25.85 33.362 25.853 33.535C25.852 33.706 26.263 39.824 26.426 41.038H23.515C23.486 39.44 23.442 36.38 23.188 36.03C23.622 34.774 24.568 34.02 25.395 33.034C25.434 32.988 25.437 32.922 25.403 32.872L24.748 31.921C26.207 30.805 25.872 31.503 24.857 29.697C25.937 30.104 26.574 30.25 26.837 31.706C26.963 32.334 27.303 33.808 27.794 35.858L27.293 36.625C27.197 36.768 27.423 36.918 27.516 36.771L29.237 34.139C29.612 34.896 30.13 35.48 30.623 35.963V35.965ZM31.943 33.386C30.97 34.227 30.32 33.483 30.219 33.841C30.207 33.914 30.256 33.983 30.328 33.995C30.435 34.005 30.887 34.113 31.038 34.084L30.377 35.323C30.068 34.975 29.702 34.502 29.462 33.992C29.588 33.874 29.542 33.646 29.444 33.52C28.866 32.135 30.737 32.253 31.556 32.528C31.815 32.777 31.885 33.021 31.972 33.368C31.962 33.373 31.952 33.379 31.943 33.386ZM34.586 41.039C34.666 40.394 35.027 38.971 35.592 38.077C36.55 36.419 35.937 35.82 35.607 34.703C35.279 33.391 35.551 32.487 36.414 32.016C37.633 31.398 38.217 32.554 38.423 32.578C38.632 32.552 39.212 31.399 40.432 32.016C41.296 32.487 41.567 33.391 41.239 34.703C40.91 35.82 40.296 36.419 41.254 38.077C41.89 39.137 42.154 40.338 42.26 41.039H34.586ZM42.551 37.724C42.832 38.566 43.252 39.961 43.571 41.039H42.529C42.424 40.324 42.154 39.06 41.482 37.94C40.75 36.72 41.026 36.026 41.293 35.355C42.512 32.837 40.327 30.335 38.422 32.239C36.964 30.576 34.547 32.286 35.347 34.768C35.793 35.983 36.204 36.728 35.159 38.308C34.155 38.293 33.354 37.837 33.016 36.828C32.562 35.539 32.511 34.061 32.067 32.786C32.022 32.686 31.817 32.351 31.649 32.277C31.007 32.104 30.348 31.985 29.687 32.194C29.83 31.304 30.96 31.188 31.695 31.242C32.588 31.481 32.906 32.466 33.4 33.129C33.779 33.755 34.235 34.355 34.562 35.007C34.766 35.485 34.763 36.046 34.76 36.542C34.756 36.713 35.028 36.718 35.027 36.544C35.063 35.804 34.959 34.937 34.474 34.31C34.342 34.103 34.21 33.897 34.077 33.691C33.959 32.318 33.702 30.812 34.666 30.04C36.132 29.127 36.797 29.523 36.882 27.426C37.533 27.567 38.231 27.486 38.829 27.2C38.916 28.481 39.554 29.05 40.753 29.343C42.055 29.705 42.366 30.188 42.261 31.494C42.243 32.553 42.223 33.611 42.204 34.67C42.201 34.801 42.107 36.357 42.552 37.725L42.551 37.724ZM43.878 19.924C41.488 25.106 45.622 27.47 42.521 31.822C42.506 31.245 42.63 30.681 42.378 30.105C41.413 28.485 39.203 29.661 39.078 27.065C39.828 26.623 40.365 25.877 40.542 25.032C41.087 25.127 41.53 24.651 41.613 23.998C42.766 23.427 43.286 22.011 42.616 20.906C44.661 17.548 42.056 14.932 38.658 14.997C39.595 14.936 40.587 14.897 41.565 15.26C43.393 15.92 44.437 18.064 43.876 19.924H43.878Z" fill="#3F3436"/>
</svg>
