<svg width="59" height="57" viewBox="0 0 59 57" fill="none" xmlns="http://www.w3.org/2000/svg">
<path d="M58.5 28.5C58.5 43.9479 45.5326 56.5 29.5 56.5C13.4673 56.5 0.5 43.9479 0.5 28.5C0.5 13.0521 13.4673 0.5 29.5 0.5C45.5326 0.5 58.5 13.0521 58.5 28.5Z" stroke="#B0B3FB"/>
<path d="M40.404 36.183C40.404 36.183 39.634 36.183 39.633 36.183V41.864H41.875V36.183H40.404Z" fill="#FFD7CD"/>
<path d="M40.602 37.928C40.61 39.24 40.618 40.552 40.625 41.865H39.765V36.184H40.592C40.596 36.765 40.6 37.346 40.603 37.929L40.602 37.928Z" fill="#FFA4A4"/>
<path d="M39.872 17.218C39.605 16.944 39.236 16.721 38.86 16.786C38.116 14.259 34.515 13.902 32.295 15.213C32.894 16.725 31.71 18.42 30.402 19.365L30.949 21.559C30.664 20.881 31.128 19.751 31.96 20.248V20.169C32.766 19.783 32.95 19.351 32.912 18.491C32.912 17.532 37.945 17.469 37.945 18.491C37.954 19.342 38.284 19.995 38.929 20.104L38.911 20.228C39.68 19.795 40.159 20.826 39.915 21.47C40.241 20.283 40.8 18.295 39.871 17.218H39.872Z" fill="#C0C0C0"/>
<path d="M39.872 17.218C40.874 18.087 40.081 21.073 39.843 21.713C39.872 21.636 36.983 19.824 36.983 19.207C36.983 18.185 31.349 21.054 31.423 21.351C31.43 21.377 30.941 21.533 30.949 21.559L30.402 19.365C31.304 18.732 32.322 17.47 32.407 16.512C34.359 17.424 36.85 17.523 38.725 16.379C38.786 16.513 38.831 16.649 38.859 16.786C39.235 16.721 39.604 16.944 39.871 17.218H39.872Z" fill="#8D8D8D"/>
<path d="M38.343 20.829V20.862C38.084 20.585 38.083 20.568 38.343 20.829Z" fill="#FFD7CD"/>
<path d="M39.915 21.478C39.915 21.478 39.916 21.473 39.917 21.471C39.873 21.621 39.843 21.713 39.843 21.713C39.872 21.636 39.896 21.557 39.915 21.478Z" fill="#C0C0C0"/>
<path d="M37.081 27.356L37.083 27.361L37.021 27.601L37.081 27.356Z" fill="#FB8354"/>
<path d="M39.883 20.579C39.748 20.273 39.398 20.044 39.074 20.154C38.34 20.026 37.951 19.44 37.946 18.491C37.946 17.469 32.913 17.532 32.913 18.491C32.913 18.97 32.915 19.322 32.675 19.638C32.534 19.814 32.22 20.093 31.859 20.191C30.389 19.757 30.69 22.582 31.961 22.439C31.902 23.935 32.774 25.259 34.107 25.817C34.107 26.143 34.112 26.972 34.112 27.121C34.112 27.206 33.966 27.241 33.966 27.241C33.776 27.4 33.804 28.471 34.212 29.351L34.18 29.732L35.585 33.599L37.511 27.659C37.423 27.568 37.074 27.2 36.988 27.121V26.713H36.987C36.987 26.511 36.985 25.909 36.984 25.717C38.185 25.119 38.971 23.847 38.913 22.442C39.781 22.46 40.156 21.269 39.884 20.579H39.883Z" fill="#FFD7CD"/>
<path d="M42.326 32.995C42.148 31.853 41.964 31.07 41.624 30.175C41.504 29.881 41.378 29.594 41.22 29.322C40.206 27.551 38.858 27.262 37.109 27.241L37.081 27.356L37.083 27.361L37.02 27.6L35.582 33.228C35.476 32.821 34.242 28.267 33.963 27.24C33.528 27.239 33.049 27.267 32.606 27.35C32.637 27.426 32.661 27.504 32.677 27.581C33.599 27.546 33.774 28.661 33.681 29.383C33.659 29.927 33.651 30.444 33.386 30.915H33.342C33.251 31.182 33.011 31.429 32.713 31.407C32.752 32.357 32.223 33.217 31.407 33.623V34.655C34.679 34.283 35.274 38.343 35.185 40.98H34.718V41.865H39.929V36.591H42.566C42.566 36.591 42.791 36.085 42.326 32.995Z" fill="#90ACEA"/>
<path d="M39.476 20.583C39.136 20.644 38.962 21.161 38.953 21.369C38.905 21.599 38.962 21.988 39.082 21.988C39.254 21.988 39.394 21.813 39.394 21.596C39.395 21.376 39.234 21.166 39.05 21.215C39.097 20.689 39.669 20.632 39.477 20.582L39.476 20.583Z" fill="#FFA4A4"/>
<path d="M32.018 21.411C32.004 21.183 31.833 20.654 31.469 20.582C31.428 20.568 31.41 20.633 31.451 20.647C31.716 20.728 31.878 20.981 31.917 21.246C31.724 21.194 31.555 21.415 31.556 21.646C31.556 21.873 31.702 22.057 31.883 22.057C32.009 22.057 32.069 21.653 32.018 21.411Z" fill="#FFA4A4"/>
<path d="M35.256 22.361C35.46 23.126 36.092 23.036 35.222 23.733C35.146 23.799 35.257 23.91 35.333 23.844C35.528 23.631 35.954 23.405 35.806 23.067C35.699 22.805 35.454 22.607 35.408 22.32C35.392 22.221 35.241 22.263 35.257 22.362L35.256 22.361Z" fill="#FFA4A4"/>
<path d="M34.567 24.178C34.762 25.092 36.338 24.923 36.596 24.122C36.629 24.026 36.478 23.985 36.445 24.08C36.252 24.708 34.896 24.888 34.724 24.177C34.712 24.078 34.555 24.077 34.567 24.177V24.178Z" fill="#FFA4A4"/>
<path d="M36.959 21.248C37.427 21.241 37.427 22.693 36.959 22.687C36.491 22.693 36.491 21.241 36.959 21.248Z" fill="#594449"/>
<path d="M34.081 21.248C34.549 21.24 34.549 22.694 34.081 22.687C33.614 22.694 33.614 21.241 34.081 21.248Z" fill="#594449"/>
<path d="M33.632 23.391C31.728 23.334 31.727 20.36 33.632 20.302C35.551 20.365 35.518 23.344 33.632 23.391ZM33.632 20.511C32.007 20.551 32.008 23.142 33.632 23.181C35.238 23.155 35.27 20.554 33.632 20.511Z" fill="#594449"/>
<path d="M35.474 21.319C35.133 21.318 34.863 21.189 34.683 21.107C34.559 21.052 34.648 20.858 34.77 20.917C35.042 21.041 35.519 21.27 36.042 20.938C36.091 20.907 36.155 20.921 36.186 20.97C36.276 21.229 35.592 21.325 35.473 21.319H35.474Z" fill="#594449"/>
<path d="M37.238 23.391C35.278 23.354 35.272 20.344 37.236 20.302C39.162 20.373 39.163 23.318 37.238 23.391ZM37.235 20.511C35.552 20.536 35.559 23.163 37.238 23.181C38.883 23.127 38.881 20.561 37.235 20.511Z" fill="#594449"/>
<path d="M38.39 21.057C38.459 20.878 39.213 20.157 39.035 20.076C38.923 19.991 38.372 20.852 38.254 20.978C38.202 21.064 38.338 21.145 38.389 21.057H38.39Z" fill="#594449"/>
<path d="M34.105 25.817V27.148C36.213 26.829 36.701 26.355 37.083 25.681C36.227 26.138 35.196 26.313 34.105 25.817Z" fill="#FFA4A4"/>
<path d="M39.328 36.76C39.087 37.287 39.132 37.935 38.768 38.385C38.171 39.123 36.969 39.119 36.185 38.584C35.401 38.049 34.967 37.132 34.701 36.221C34.138 34.296 32.466 35.06 32.379 34.157C32.418 31.683 35.111 30.374 33.335 27.261C33.063 27.28 32.773 27.318 32.5 27.355C32.531 27.431 32.233 27.816 32.249 27.893C32.528 27.91 32.872 27.958 33.051 28.202C33.321 28.481 33.14 28.742 33.143 29.131C33.144 29.286 33.15 29.39 33.143 29.545C33.12 30.067 33.085 30.553 33.074 30.573C33.074 30.573 32.836 30.767 32.789 30.816C32.68 30.928 32.541 30.751 32.387 30.745C32.476 32.037 32.13 31.941 31.149 32.61C31.023 32.709 31.146 33.389 31.001 33.461C30.992 33.966 30.987 34.757 31.149 35.238C32.723 35.238 33.444 35.04 33.98 38.608C34.295 40.698 34.429 40.144 34.429 40.144L34.719 40.977V41.862H39.93V36.588H42.567C42.567 36.588 42.652 36.395 42.609 35.523C42.194 35.297 39.975 35.345 39.329 36.758L39.328 36.76Z" fill="#6C94DB"/>
<path d="M27.037 40.907H25.848V41.864H26.734C26.734 41.864 26.734 41.863 26.735 41.862L27.471 41.864V40.907H27.036H27.037Z" fill="#FFD7CD"/>
<path d="M27.011 40.907H26.735L26.733 41.864H27.471V40.907H27.011Z" fill="#FFA4A4"/>
<path d="M33.362 27.875C33.184 27.692 32.939 27.54 32.678 27.582C32.128 25.657 28.968 25.546 27.676 26.996C28.324 24.739 28.334 21.303 26.952 18.963C26.551 18.612 26.133 18.155 25.887 17.726C24.932 17.02 22.966 17.042 22.033 17.9C20.86 17.222 19.371 18.19 18.946 19.182C18.764 19.577 18.658 20.039 18.57 20.594C18.362 21.891 18.383 22.973 18.583 24.271C18.765 25.442 18.981 26.471 19.193 27.525C19.343 28.269 19.155 29.692 19.109 29.993L19.398 30.203C20.411 29.357 21.433 29.371 22.541 29.363C22.541 29.143 22.716 28.251 22.716 28.242C22.716 28.061 22.669 27.763 22.669 27.582C21.804 26.809 20.698 26.03 20.708 24.721C21.109 24.438 21.489 23.068 21.718 22.88C22.279 22.42 22.21 22.059 22.36 21.31C23.442 22.856 25.653 23.169 25.653 23.192C25.653 23.192 24.506 27.139 24.318 27.232C24.318 27.232 24.678 29.739 24.775 29.743C25.153 29.751 26.397 29.764 26.399 29.779C26.563 30.524 26.751 30.401 27.319 30.814C27.887 31.227 27.324 30.812 27.324 30.812C27.319 30.793 27.719 30.812 27.715 30.792C27.665 30.59 27.842 30.566 27.925 30.378C27.996 30.22 28.515 30.141 28.515 30.125C29.027 29.926 32.345 30.009 32.605 30.076C32.657 30.044 32.818 29.856 32.877 29.846C33.361 29.73 33.548 30.465 33.341 30.915H33.385C33.721 30.352 33.9 28.336 33.36 27.874L33.362 27.875Z" fill="#49373C"/>
<path d="M26.572 18.603C26.626 18.657 26.68 18.711 26.734 18.763C25.316 20.639 20.431 21.209 18.947 19.182C19.372 18.19 20.861 17.222 22.034 17.9C22.967 17.043 24.932 17.02 25.888 17.726C26.062 18.021 26.29 18.315 26.573 18.602L26.572 18.603Z" fill="#594449"/>
<path d="M18.598 37.025C18.563 37.025 17.6 37.025 17.611 37.025V41.864H19.504C19.767 41.949 19.593 37.11 19.639 37.025H18.597H18.598Z" fill="#FFC3BA"/>
<path d="M19.64 37.025C19.594 37.134 19.771 41.926 19.498 41.864H18.473C18.497 40.251 18.521 38.639 18.544 37.025H19.641H19.64Z" fill="#FFA4A4"/>
<path d="M34.156 40.893H33.422V41.865H34.803V40.893H34.155H34.156Z" fill="#FFD7CD"/>
<path d="M22.246 28.316V28.34C22.246 28.34 22.24 28.337 22.236 28.335L22.246 28.316Z" fill="#594449"/>
<path d="M29.433 33.678C29.351 33.643 29.271 33.603 29.195 33.558C28.438 33.123 27.978 32.312 28.011 31.406C27.66 31.442 27.403 31.124 27.326 30.811H27.321V30.813C27.076 30.455 27.022 29.75 26.959 29.35C26.382 29.091 25.763 29.019 25.129 29.004V29.009C25.129 29.009 25.127 29.008 25.126 29.007V29.001C25.009 28.996 24.891 28.997 24.774 28.997V29.221C24.774 29.221 24.313 29.805 23.539 29.854C22.681 29.838 22.273 29.258 22.246 29.224V29C17.422 28.639 17.297 34.393 17.271 37.225H19.592C20.571 38.489 20.077 40.65 19.508 41.73V41.864H25.96V40.979H25.636C25.52 40.498 25.87 36.313 26.897 35.571H26.898C27.573 34.808 28.524 34.636 29.462 34.654C29.458 34.329 29.478 33.998 29.433 33.677V33.678Z" fill="#FF7296"/>
<path d="M19.509 41.632C19.663 41.331 19.92 40.757 20.062 40.068C19.937 40.853 19.642 41.417 19.509 41.73V41.632Z" fill="#FF7296"/>
<path d="M19.509 41.731V41.865H19.458C19.47 41.827 19.487 41.782 19.509 41.731Z" fill="#FF7296"/>
<path d="M19.509 41.632C19.523 41.707 19.479 41.806 19.458 41.864H19.383C19.383 41.864 19.433 41.781 19.51 41.632H19.509Z" fill="#FF7296"/>
<path d="M33.37 30.148C33.172 29.717 32.868 29.832 32.713 29.912L32.724 29.827C32.534 29.822 31.315 29.635 30.173 28.764H30.172C30.071 28.687 29.97 28.604 29.871 28.516C29.726 29.206 28.536 29.56 28.01 29.871V29.924C26.979 29.452 27.096 31.505 28.01 31.407C27.977 32.313 28.436 33.124 29.194 33.559C29.27 33.604 29.351 33.643 29.433 33.679C29.451 34.07 29.495 34.614 29.415 35.013C29.559 35.306 29.802 35.514 30.321 35.522C30.325 35.522 30.447 35.431 30.451 35.431C31.073 35.455 31.405 35.385 31.614 34.906L31.408 34.655V33.623C32.224 33.217 32.753 32.357 32.714 31.407C33.308 31.418 33.544 30.62 33.371 30.147L33.37 30.148Z" fill="#FFD7CD"/>
<path d="M32.398 15.376C31.754 13.669 29.709 14.248 28.988 14.997C28.973 14.997 28.305 14.333 27.472 14.266C24.757 14.125 25.12 17.41 26.814 18.783C26.8274 18.7663 26.8274 18.7663 26.814 18.783C27.225 19.248 28.775 20.268 28.997 20.303C30.46 19.648 33.145 17.494 32.399 15.375L32.398 15.376Z" fill="#FC5061"/>
<path d="M32.398 15.376C32.184 14.735 31.646 14.355 31.023 14.278V14.284L31.021 14.285C31.881 15.248 31.381 16.767 30.721 17.709C30.115 18.462 28.824 19.385 27.884 19.628L27.873 19.642C28.523 20.09 28.979 20.305 28.997 20.302C30.462 19.646 33.145 17.493 32.399 15.374L32.398 15.376Z" fill="#DE354E"/>
<path d="M27.024 14.784C27.973 14.8 27.972 16.198 27.024 16.214C26.075 16.198 26.076 14.8 27.024 14.784Z" fill="white"/>
<path d="M26.736 22.748C26.67 22.744 26.608 22.79 26.549 22.833L26.565 22.512C25.116 22.47 23.715 22.309 22.332 20.461C22.117 21.496 21.332 22.321 20.434 22.78V22.85C19.091 22.23 19.247 24.902 20.434 24.777C20.381 26.097 21.154 27.26 22.321 27.749V29.225C22.823 30.061 24.317 30.047 24.851 29.225C24.851 28.77 24.851 28.114 24.851 27.66C25.912 27.133 26.598 26.013 26.548 24.779C26.733 24.789 26.981 24.715 27.112 24.559C27.166 24.496 28.247 22.846 26.735 22.748H26.736Z" fill="#FFC3BA"/>
<path d="M22.825 26.14C22.9 26.342 23.159 26.422 23.353 26.443C23.717 26.483 24.062 26.323 24.337 26.096C24.415 26.032 24.303 25.921 24.226 25.985C23.903 26.261 23.341 26.447 22.993 26.126C22.987 26.118 22.972 26.089 22.976 26.098C22.941 26.004 22.789 26.045 22.825 26.14Z" fill="#FFA4A4"/>
<path d="M23.459 24.062C23.193 24.9 23.895 25.129 23.422 25.515C23.351 25.587 23.462 25.698 23.533 25.626C23.779 25.406 23.833 25.2 23.651 24.916C23.547 24.658 23.535 24.371 23.611 24.104C23.639 24.007 23.487 23.965 23.46 24.062H23.459Z" fill="#FFA4A4"/>
<path d="M24.756 23.729C25.167 23.723 25.167 25.001 24.756 24.994C24.344 25.001 24.344 23.722 24.756 23.729Z" fill="#594449"/>
<path d="M22.225 23.729C22.637 23.722 22.637 25.001 22.225 24.994C21.814 25 21.814 23.722 22.225 23.729Z" fill="#594449"/>
<path d="M20.515 23.827C20.544 23.222 19.863 22.907 20.005 23.138C20.246 23.211 20.386 23.442 20.419 23.682C20.247 23.669 20.105 23.851 20.105 24.063C20.105 24.275 20.242 24.447 20.41 24.447C20.535 24.447 20.558 24.05 20.515 23.827Z" fill="#FFA4A4"/>
<path d="M26.984 23.063C26.643 23.125 26.459 23.657 26.473 23.861C26.429 24.088 26.483 24.447 26.599 24.447C26.768 24.447 26.904 24.275 26.904 24.063C26.904 23.849 26.754 23.653 26.576 23.686C26.612 23.443 26.761 23.212 27.004 23.138C27.052 23.122 27.031 23.046 26.983 23.062L26.984 23.063Z" fill="#FFA4A4"/>
<path d="M26.483 22.653L26.49 22.512C25.041 22.47 23.64 22.309 22.257 20.461C22.042 21.496 21.257 22.321 20.359 22.78V22.85C20.285 22.802 20.771 22.981 21.101 22.788C21.603 22.493 22.267 21.885 22.361 21.31C22.508 21.627 24.398 23.185 26.483 22.653Z" fill="#FFA4A4"/>
<path d="M24.777 27.659V28.145C24.234 28.002 22.042 30.13 22.247 27.748C23.025 28.086 24.032 28.052 24.777 27.659Z" fill="#FFA4A4"/>
<path d="M29.433 33.678C29.351 33.643 29.271 33.603 29.195 33.558C28.438 33.123 27.978 32.312 28.011 31.406C27.66 31.442 27.403 31.124 27.326 30.811H27.321V30.813C27.076 30.455 27.022 29.75 26.959 29.35C26.746 29.254 26.525 29.184 26.298 29.131C25.104 31.992 27.862 33.552 27.898 34.882C28.397 34.687 28.947 34.648 29.462 34.654C29.458 34.329 29.478 33.998 29.433 33.677V33.678Z" fill="#F73A70"/>
<path d="M25.798 38.548C25.961 37.065 26.38 36.144 26.897 35.572L26.894 35.569C25.938 36.393 24.577 35.591 23.481 35.63C22.704 35.678 22.015 36.202 21.237 36.24C19.278 36.264 19.187 34.027 19.878 32.691L19.853 32.645C18.301 33.578 18.596 35.667 18.535 37.226H19.593C20.572 38.49 20.078 40.651 19.509 41.731V41.865H25.96V40.98H25.636C25.636 40.98 25.571 40.614 25.798 38.548Z" fill="#F73A70"/>
<path d="M25.569 29.593C25.517 29.346 25.349 29.127 25.127 29.009V29.003C25.01 28.998 24.892 28.999 24.775 28.999C24.74 29.504 24.141 29.781 23.54 29.855C22.865 29.813 22.267 29.514 22.247 29.002C22.163 29.002 22.059 29.001 21.974 29.004V29.012C21.506 29.248 21.365 29.904 21.696 30.312C22.221 30.847 23.243 30.487 23.546 29.876C23.991 30.759 25.771 30.907 25.57 29.594L25.569 29.593Z" fill="white"/>
<path d="M31.392 30.818C31.707 30.804 31.707 31.805 31.392 31.79C31.077 31.805 31.077 30.804 31.392 30.818Z" fill="#594449"/>
<path d="M29.446 30.818C29.759 30.804 29.759 31.805 29.446 31.79C29.131 31.805 29.131 30.804 29.446 30.818Z" fill="#594449"/>
<path d="M29.922 32.798C30.195 33.074 30.731 33.04 30.979 32.746C31.049 32.673 30.939 32.562 30.868 32.635C30.675 32.868 30.249 32.901 30.033 32.687C29.966 32.612 29.855 32.723 29.922 32.798Z" fill="#FFA4A4"/>
<path d="M30.375 31.387C30.278 31.823 30.748 31.742 30.378 32.15C30.351 32.183 30.346 32.229 30.378 32.261C30.506 32.375 30.743 31.927 30.681 31.82C30.62 31.695 30.483 31.584 30.526 31.43C30.554 31.333 30.403 31.291 30.375 31.388V31.387Z" fill="#FFA4A4"/>
<path d="M33.037 30.104C32.808 30.169 32.689 30.398 32.679 30.623C32.632 30.781 32.655 31.098 32.748 31.098C33.027 31.104 33.042 30.562 32.769 30.539C32.792 30.376 32.895 30.227 33.057 30.179C33.105 30.163 33.084 30.088 33.036 30.103L33.037 30.104Z" fill="#FFA4A4"/>
<path d="M28.108 30.664C28.133 30.256 27.596 30.011 27.73 30.22C27.892 30.268 27.996 30.416 28.018 30.58C27.433 30.812 28.284 31.659 28.108 30.664Z" fill="#FFA4A4"/>
<path d="M34.138 41.824V41.864H33.423V40.892H34.111C34.128 41.202 34.137 41.513 34.138 41.823V41.824Z" fill="#FFA4A4"/>
<path d="M35.023 38.548C34.477 34.95 33.021 34.652 31.407 34.655C31.415 34.873 31.409 34.88 31.089 35.122C30.605 35.488 29.705 35.282 29.461 34.826V34.655C28.523 34.637 27.572 34.809 26.897 35.572H26.896C25.869 36.303 25.517 40.539 25.635 40.98H27.421V41.865H33.422V40.98H34.11H35.185C35.185 40.98 35.338 40.638 35.023 38.548Z" fill="white"/>
<path d="M33.677 38.207C33.69 38.138 33.405 37.529 33.363 37.764C33.109 39.726 31.744 41.485 29.585 41.035C28.274 40.566 27.393 39.107 27.422 37.737L27.373 37.722C26.819 38.697 26.786 39.88 26.735 40.98H27.422V41.865H33.423V40.98H34.111C34.055 40.045 33.909 39.115 33.677 38.207Z" fill="#E0E0EF"/>
<path d="M31.408 33.623C31.354 33.707 30.138 34.007 29.433 33.679C29.519 34.01 30.633 34.879 31.408 34.655V33.623Z" fill="#FFA4A4"/>
<path d="M38.34 19.765C38.125 19.514 37.946 19.107 37.946 18.49C37.946 17.468 32.913 17.531 32.913 18.49C32.963 19.356 32.713 19.893 31.858 20.19C31.849 20.186 31.84 20.183 31.832 20.179C32.194 20.463 32.836 20.083 33.066 19.766C33.276 19.418 33.108 18.929 33.334 18.591C33.848 17.992 35.261 18.117 36.011 18.09C38.317 18.055 36.986 19.856 38.544 19.951C38.476 19.902 38.407 19.842 38.341 19.765H38.34Z" fill="#FFA4A4"/>
<path d="M32.575 21.029C32.378 20.751 32.184 20.471 31.994 20.188C31.938 20.105 31.802 20.183 31.859 20.267C31.937 20.339 32.6 21.52 32.576 21.029H32.575Z" fill="#594449"/>
<path d="M27.271 30.369C27.227 30.326 26.336 27.126 28.711 26.279C28.711 26.279 31.721 25.245 32.768 27.576C32.768 27.576 34.265 27.531 33.609 30.276L33.254 29.857H32.832C32.832 29.857 31.254 29.508 30.728 29.108C30.202 28.709 30.007 28.515 30.007 28.515C30.007 28.515 28.9 29.695 28.01 29.87C27.119 30.045 27.271 30.369 27.271 30.369Z" fill="#594449"/>
<path d="M34.777 41.938H41.915C41.985 41.938 42.042 41.881 42.042 41.811V36.679H42.604C42.654 36.679 42.7 36.649 42.721 36.603C43.006 35.914 42.387 29.588 40.64 28.274C39.878 27.369 38.415 27.074 37.174 27.099C37.154 27.082 37.17 25.803 37.163 25.783C38.349 25.162 39.108 23.895 39.087 22.564C40.289 22.352 40.473 20.409 40.516 19.424C40.623 18.265 40.435 16.789 39.005 16.662C38.176 14.312 34.993 13.728 32.416 15.049C31.703 13.8 30.211 13.767 28.991 14.787C26.732 12.914 24.48 14.994 25.654 17.411C24.674 16.971 23.226 16.93 22.106 17.751C20.9 17.153 19.395 18.061 18.93 19.136C18.764 19.497 18.649 19.928 18.545 20.577C18.14 22.643 18.66 25.054 19.078 27.094C19.318 27.856 19.2 29.373 19.115 29.884C18.229 30.724 17.687 32.079 17.459 34.016C17.191 36.872 17.028 37.424 17.587 37.313V41.813C17.587 41.883 17.644 41.94 17.714 41.94H34.776L34.777 41.938ZM34.65 41.683H33.613V41.056H34.65V41.683ZM35.479 34.357V41.683H34.905V41.056C34.998 41.032 35.32 41.116 35.36 40.98C35.504 38.254 34.791 34.183 31.603 34.493V33.667C32.396 33.244 32.909 32.396 32.905 31.501C33.156 31.468 33.381 31.267 33.483 31.032C33.898 31.528 35.043 32.862 35.479 33.37V34.357ZM31.118 33.6C29.703 34.114 28.101 32.876 28.215 31.38C28.215 31.292 28.133 31.241 28.052 31.253C27.579 31.269 27.38 30.517 27.527 30.177C27.814 29.643 28.125 30.268 28.225 29.922C28.81 29.613 29.675 29.3 30.015 28.725C30.91 29.496 32.257 29.889 32.654 29.919C32.762 30.213 33.088 29.662 33.313 30.169C33.453 30.532 33.281 31.241 32.806 31.253C32.727 31.245 32.649 31.297 32.65 31.381C32.705 32.359 32.054 33.304 31.117 33.599L31.118 33.6ZM31.348 33.787V34.748C30.973 35.286 29.975 35.256 29.662 34.749V33.84C30.209 34.023 30.814 34.004 31.348 33.786V33.787ZM28.252 22.442C28.094 21.335 27.813 20.333 27.415 19.455C27.784 19.786 28.986 20.477 28.935 20.418C29.156 20.435 29.514 20.192 30.371 19.606C30.374 20.05 30.781 21.317 30.889 21.601C31.033 22.073 31.381 22.547 31.898 22.563C31.87 23.969 32.746 25.327 34.038 25.888C34.038 26.322 34.044 26.676 34.043 27.1C33.55 27.096 33.18 27.123 32.747 27.194C31.952 25.694 29.552 25.412 27.95 26.612C28.2 25.314 28.5 24.27 28.252 22.444V22.442ZM33.516 27.768C33.391 27.63 33.117 27.434 32.865 27.432C33.226 27.376 33.536 27.357 33.949 27.353C34.177 28.202 35.09 31.796 35.347 32.825C34.928 32.339 34.037 31.297 33.631 30.813C33.844 30.357 33.849 29.868 33.871 29.368C33.885 28.817 33.959 28.258 33.516 27.769V27.768ZM28.779 26.406C30.421 25.829 31.937 26.154 32.554 27.383C32.616 27.494 32.589 27.711 32.764 27.691C33.88 27.732 33.629 29.308 33.564 30.115C33.449 29.745 33.126 29.639 32.873 29.709C32.545 29.622 31.474 29.526 30.318 28.64C30.184 28.559 29.896 28.178 29.816 28.497C29.626 29.103 28.578 29.418 28.037 29.731C27.743 29.607 27.409 29.79 27.288 30.09C26.89 28.638 27.315 27.013 28.779 26.407V26.406ZM34.696 29.22L34.664 29.094L34.247 27.267C34.345 27.104 34.283 26.86 34.298 26.686C34.296 26.453 34.295 26.234 34.294 25.989C35.135 26.292 36.093 26.263 36.909 25.903L36.913 27.104C36.908 27.139 36.99 27.313 37.001 27.348C36.996 27.368 36.954 27.538 36.951 27.551L35.637 32.693L34.697 29.219L34.696 29.22ZM41.788 41.682H40.132V36.677H41.788V41.682ZM40.369 28.345C40.404 28.373 40.433 28.417 40.477 28.433C42.123 29.916 42.66 35.279 42.505 36.422H40.133V31.645C40.133 31.575 40.076 31.518 40.006 31.518C39.936 31.518 39.879 31.575 39.879 31.645V41.682H35.735V33.388C35.735 33.388 38.452 30.176 38.454 30.175C38.489 30.133 38.494 30.074 38.466 30.027L37.815 28.941C39.157 28.044 39.307 28.503 38.299 27.42C39.165 27.54 39.826 27.835 40.371 28.344L40.369 28.345ZM37.197 27.614C37.2 27.6 37.266 27.362 37.262 27.353C37.463 27.355 37.684 27.362 37.909 27.379L38.633 28.153C37.097 29.119 37.359 28.526 38.199 30.081L35.932 32.76L37.197 27.614ZM39.836 21.447C39.486 22.754 38.742 21.97 38.832 22.603C38.654 27.024 32.331 27.028 32.153 22.603C32.217 22.021 31.723 22.604 31.304 21.908C31.094 21.575 30.98 20.951 31.143 20.631C31.266 20.336 31.651 20.128 31.945 20.349C32.031 20.437 32.191 20.363 32.168 20.24C34.326 19.064 31.362 17.988 35.545 17.883C36.276 17.91 37.664 17.928 37.868 18.496C37.894 19.47 38.227 19.993 38.833 20.212C38.817 20.314 38.936 20.395 39.026 20.338C39.694 20 40.044 20.853 39.836 21.446V21.447ZM32.519 15.291C32.519 15.291 32.518 15.287 32.517 15.285C34.876 14.066 37.657 14.511 38.658 16.446C38.771 16.592 38.706 16.924 38.929 16.925C39.327 16.857 39.688 17.178 39.825 17.318C40.543 18.084 40.259 19.747 40.116 20.749C40.035 20.284 39.536 19.848 39.032 20.053C38.467 19.778 38.139 19.457 38.123 18.498C38.123 18.198 37.835 17.968 37.266 17.816C36.257 17.553 33.059 17.404 32.848 18.51C32.886 19.334 32.703 19.705 31.954 20.067C31.477 19.839 30.96 20.233 30.857 20.679C30.69 20.183 30.656 19.828 30.606 19.426C32.018 18.37 33.005 16.759 32.519 15.29V15.291ZM25.707 15.372C25.95 14.654 26.606 14.268 27.461 14.338C27.776 14.364 28.276 14.502 28.87 15.017C28.914 15.056 28.943 15.078 28.995 15.076C32.31 12.466 34.575 17.306 28.991 20.164C27.436 19.424 25.024 17.367 25.706 15.372H25.707ZM18.81 24.244C18.545 22.541 18.587 20.725 19.163 19.241C19.407 18.711 19.788 18.335 20.399 18.023C20.767 17.831 21.55 17.669 22.072 18.024C22.12 18.049 22.182 18.035 22.219 17.997C23.093 17.225 24.878 17.137 25.876 17.827C26.096 18.194 26.4 18.553 26.728 18.862C27.517 19.784 27.745 21.105 28.001 22.479C28.267 24.404 27.895 25.428 27.636 26.924C27.132 27.525 26.821 28.344 26.894 29.133C26.298 28.91 25.685 28.859 24.991 28.853V27.719C26.03 27.175 26.701 26.062 26.683 24.893C27.821 24.79 28.004 22.421 26.683 22.633C26.713 22.434 26.692 22.369 26.469 22.379C24.881 22.412 23.35 21.729 22.454 20.389C22.395 20.298 22.242 20.329 22.225 20.437C22.063 21.334 21.27 22.238 20.393 22.666C19.372 22.34 19.144 23.729 19.611 24.416C19.755 24.676 20.045 24.879 20.33 24.893C20.31 26.137 21.072 27.309 22.212 27.812V28.852C21.344 28.859 20.348 28.925 19.404 29.636C19.707 27.82 19.064 26.097 18.811 24.242L18.81 24.244ZM22.237 29.282C22.499 29.665 22.922 29.904 23.414 29.953C23.137 30.354 22.305 30.627 21.889 30.21C21.598 29.877 21.736 29.162 22.21 29.109C22.213 29.159 22.198 29.242 22.236 29.282H22.237ZM20.456 24.641C19.601 24.739 19.225 22.878 20.193 22.871C20.322 22.89 20.575 23.12 20.597 22.847C21.422 22.417 22.161 21.596 22.406 20.756C23.336 22.009 24.864 22.657 26.427 22.634C26.43 22.744 26.39 22.966 26.562 22.956C27.688 22.446 27.529 24.662 26.59 24.643C26.508 24.632 26.426 24.682 26.426 24.77C26.447 28.735 20.749 28.877 20.583 24.916C20.592 24.815 20.598 24.639 20.456 24.64V24.641ZM22.466 29.164V27.916C23.196 28.174 24.028 28.149 24.735 27.843V29.163C24.26 29.844 22.962 29.914 22.466 29.164ZM24.968 29.275C24.999 29.236 24.987 29.155 24.989 29.109C25.566 29.077 25.725 29.989 25.302 30.298C24.821 30.564 24.13 30.338 23.859 29.943C24.587 29.835 24.952 29.299 24.968 29.275ZM19.458 41.684H17.843V37.312H19.48L19.458 41.684ZM25.914 41.684H19.713C20.264 40.632 20.714 38.698 20.04 37.528C19.809 37.113 19.664 36.875 19.38 36.286C18.73 35.112 19.346 34.085 19.939 32.998C19.985 32.911 20.04 32.811 20.088 32.722C20.168 32.579 19.94 32.453 19.864 32.601C18.891 34.366 18.363 35.198 19.484 37.057H17.49C17.537 34.5 17.727 29.111 21.709 29.124C21.366 29.515 21.411 30.175 21.823 30.502C22.418 30.865 23.284 30.606 23.64 30.075C23.994 30.606 24.862 30.866 25.457 30.501C25.866 30.178 25.911 29.519 25.575 29.13C26.061 29.164 26.498 29.242 26.92 29.42C26.972 29.972 27.138 30.689 27.41 31.126C27.521 31.325 27.74 31.486 27.96 31.507C27.955 32.44 28.525 33.332 29.372 33.727C29.418 33.873 29.407 34.339 29.407 34.495C28.89 34.5 28.508 34.539 28.063 34.683C27.834 33.847 27.291 33.22 27.022 32.911C26.96 32.839 26.895 32.765 26.881 32.739C26.803 32.593 26.576 32.719 26.658 32.863C27.021 33.344 27.555 33.815 27.823 34.776C26.796 35.244 26.318 36.071 25.985 37.249C24.129 36.073 21.403 37.114 21.498 37.426C21.659 37.702 24.001 36.173 25.919 37.513C25.85 37.817 25.794 38.143 25.753 38.492C25.511 40.55 25.585 40.928 25.594 40.964C25.619 41.099 25.82 41.053 25.913 41.06V41.687L25.914 41.684ZM19.716 41.033L19.733 37.493C20.327 38.436 20.179 39.981 19.716 41.033ZM27.37 41.684H26.169V41.057H27.37V41.684ZM33.357 37.612V41.684H27.627V37.694C27.627 37.624 27.57 37.567 27.5 37.567C27.43 37.567 27.373 37.624 27.373 37.694V40.801H25.835C25.914 38.632 25.986 34.568 29.407 34.748C29.456 35.099 30.003 35.414 30.518 35.405C30.893 35.438 31.601 35.064 31.603 34.748C34.484 34.422 35.161 38.076 35.14 40.801H33.613V37.611C33.615 37.446 33.356 37.445 33.358 37.611L33.357 37.612Z" fill="#3F3436"/>
</svg>
