<svg width="59" height="57" viewBox="0 0 59 57" fill="none" xmlns="http://www.w3.org/2000/svg">
<path d="M58.5 28.5C58.5 43.9479 45.5326 56.5 29.5 56.5C13.4673 56.5 0.5 43.9479 0.5 28.5C0.5 13.0521 13.4673 0.5 29.5 0.5C45.5326 0.5 58.5 13.0521 58.5 28.5Z" stroke="#B0B3FB"/>
<path d="M32.889 37.425L32.886 37.427H31.783L31.78 42.694C32.149 42.692 33.084 42.696 33.44 42.694C33.662 42.694 33.841 42.527 33.841 42.321V37.427L32.887 37.425H32.889Z" fill="#FFD7CD"/>
<path d="M32.889 42.639V42.694H31.782L31.784 37.427H32.887L32.889 42.639Z" fill="#FFA4A4"/>
<path d="M23.966 37.425H21.608V42.353C21.608 42.542 21.776 42.695 21.982 42.695H23.969L23.972 42.693L23.967 37.426L23.966 37.425Z" fill="#FFD7CD"/>
<path d="M23.966 37.425L23.971 42.692L23.968 42.694H22.858L22.861 37.424H23.966V37.425Z" fill="#FFA4A4"/>
<path d="M33.607 25.027C33.754 25.123 34.828 25.753 34.928 25.718C33.659 27.384 31.734 25.941 32.64 24.218C32.653 24.323 33.467 24.936 33.607 25.027Z" fill="#BC4C61"/>
<path d="M38.492 24.243C38.416 24.211 38.334 24.195 38.248 24.193C38.28 24.145 38.397 23.968 38.424 23.921L38.449 23.912C37.879 23.514 35.936 22.329 35.845 19.539C35.036 20.371 33.783 20.636 32.776 20.52C32.764 20.541 32.751 20.561 32.735 20.584C32.709 20.63 32.702 20.636 32.735 20.586C32.701 20.499 32.646 20.413 32.577 20.349C31.852 19.809 31.178 20.84 31.185 21.516C31.158 21.836 31.314 22.184 31.604 22.335C30.791 23.49 30.788 25.006 31.559 26.151C31.346 26.486 31.372 26.469 31.145 26.808C31.131 27.851 32.424 28.805 33.422 28.309C33.515 28.176 33.794 27.715 33.886 27.572C35.17 27.727 36.437 27.093 37.106 25.963C37.995 26.619 39.542 24.901 38.492 24.245V24.243ZM32.987 26.255C31.942 25.569 32.64 24.218 32.64 24.218C33.038 24.721 34.332 25.533 34.928 25.718C34.928 25.718 34.028 26.944 32.987 26.255Z" fill="#FFD7CD"/>
<path d="M40.367 17.934C39.63 17.11 38.498 16.628 37.407 16.779C35.378 14.273 32.141 16.937 30.897 18.806C30.93 19.042 31.154 20.065 31.131 20.379H31.13C31.104 21.004 30.972 21.606 30.74 22.186L30.774 22.218L30.772 22.22C30.876 22.408 30.302 23.735 30.009 23.778V23.771C29.944 24.33 30.03 25.081 30.015 25.098C30.33 24.94 30.685 24.854 31.036 24.899C30.899 24.006 31.059 23.116 31.607 22.333C31.317 22.182 31.161 21.834 31.188 21.514C31.217 21.071 31.402 20.58 31.775 20.324C32.103 20.096 32.601 20.19 32.738 20.582C32.754 20.56 32.767 20.539 32.779 20.518C33.734 20.628 34.909 20.396 35.718 19.663C35.77 19.616 35.853 19.65 35.857 19.72C36.025 22.379 37.895 23.521 38.452 23.91L38.427 23.919C38.4 23.964 38.282 24.143 38.251 24.191C39.753 24.47 38.097 26.71 37.109 25.959C36.743 26.57 36.198 27.053 35.582 27.315L35.598 27.352C37.8 27.626 39.619 25.848 40.536 23.994C41.632 22.162 41.879 19.604 40.371 17.932L40.367 17.934Z" fill="#404040"/>
<path d="M31.131 20.362V20.379H31.13C31.13 20.379 31.131 20.368 31.131 20.362Z" fill="#404040"/>
<path d="M30.938 18.945C30.749 18.262 30.485 17.644 29.759 17.447C30.413 17.356 31.026 17.209 31.66 17.385C30.307 16.461 28.437 15.953 26.829 16.527C27.041 15.882 27.526 15.628 28.516 15.392C25.769 14.966 24.254 16.943 24.254 16.943C23.574 16.77 22.77 16.434 22.126 16.463C22.482 16.691 22.712 17.129 23.067 17.358C21.673 17.378 20.36 18.362 20.046 19.626C20.484 19.28 21 19.019 21.552 18.86C21.189 20.559 21.869 22.069 22.435 22.968C22.551 22.811 22.841 23.058 23.031 23.059C23.126 23.061 23.243 22.886 23.332 22.926C23.328 22.901 23.503 22.868 23.499 22.845C24.323 22.248 26.187 24.31 26.233 23.143C28.159 25.146 29.412 21.725 29.412 21.725L29.634 21.886C29.7 21.829 29.848 21.8 29.927 21.774C30.059 21.73 30.062 21.747 30.188 21.8C30.327 21.855 30.771 22.227 30.771 22.227C31.101 21.17 31.311 20.03 30.937 18.944L30.938 18.945Z" fill="#664A34"/>
<path d="M31.046 24.897L31.033 24.899L31.006 24.634C31.015 24.722 31.028 24.81 31.046 24.897Z" fill="#FFD7CD"/>
<path d="M26.238 28.989L26.162 29.002V29.004C25.995 29.133 25.806 29.258 25.729 29.338H25.727L25.698 29.283C25.698 29.283 24.314 28.277 24.325 27.663L24.304 27.638C24.512 27.468 24.721 27.308 24.896 27.181C24.896 27.179 24.9 27.172 24.9 27.171C25.24 27.411 25.622 27.588 26.032 27.689C26.101 28.121 26.169 28.553 26.238 28.988V28.989Z" fill="#F7C341"/>
<path d="M32.702 34.143C32.682 34.154 32.695 34.127 32.702 34.143V34.143Z" fill="#4A7A63"/>
<path d="M32.621 34.057C32.155 33.393 31.714 32.712 31.326 31.999C30.333 32.598 29.184 33.035 28.154 33.225C27.029 32.546 26.218 31.46 25.632 30.294C25.447 29.971 25.411 29.577 25.729 29.339H25.727C25.388 28.684 24.825 28.153 24.304 27.64C23.399 28.372 22.712 28.968 22.965 30.075C23.289 31.126 23.777 32.161 24.583 32.927C24.037 32.883 23.273 32.963 22.842 33.321C22.508 33.698 22.529 34.313 22.651 34.777C22.833 35.325 23.403 35.684 23.971 35.727L23.973 35.729C25.287 35.803 25.407 35.077 26.97 35.399L26.968 35.402C27.363 36.218 28.344 36.925 29.239 36.477C29.668 36.215 30.138 35.75 30.102 35.214C30.843 34.929 31.96 34.476 32.702 34.142C32.702 34.142 32.631 34.069 32.621 34.056V34.057Z" fill="#FFD7CD"/>
<path d="M23.649 37.664V42.693L23.645 37.664H23.649Z" fill="#6B6B6B"/>
<path d="M30.77 22.221C30.703 21.761 30.116 21.287 29.673 21.695C29.676 21.678 29.606 21.379 29.634 21.349C28.946 21.443 26.721 21.887 24.795 19.884C24.75 21.051 24.002 22.1 23.177 22.697C23.181 22.719 23.186 22.745 23.19 22.77C22.82 22.572 22.394 22.851 22.305 23.236C22.2 23.674 22.388 24.164 22.663 24.512C22.85 24.768 23.214 24.908 23.522 24.835C23.689 26.247 24.698 27.361 26.032 27.689C26.116 28.214 26.198 28.741 26.284 29.268C27.155 30.224 28.674 29.596 28.969 28.832C28.911 28.442 28.761 27.558 28.7 27.158C29.385 26.657 29.857 25.946 30.013 25.098C30.029 25.081 29.942 24.331 30.006 23.771V23.778C30.234 23.75 30.949 23.543 30.771 22.22L30.77 22.221Z" fill="#FFD7CD"/>
<path d="M34.38 35.031C34.333 34.663 34.266 34.186 34.199 33.794H34.197L34.153 33.662C33.134 33.895 31.199 34.816 30.103 35.214C30.139 35.75 29.669 36.215 29.24 36.477C28.345 36.925 27.365 36.218 26.969 35.402L26.971 35.399C25.404 35.077 25.291 35.803 23.974 35.729L23.972 35.727C23.442 35.687 22.908 35.371 22.693 34.883C22.516 34.401 22.493 33.727 22.843 33.322C23.275 32.964 24.037 32.885 24.584 32.928C23.764 32.14 23.25 31.074 22.948 29.988C21.518 31.301 21.155 35.561 21.137 37.183C21.233 37.895 21.803 37.607 22.691 37.665H23.65V42.694L31.802 42.696H32.031L32.033 37.665H33.003L33.005 37.663C35.031 37.661 34.407 37.998 34.38 35.032V35.031Z" fill="#64947E"/>
<path d="M27.112 32.403C27.427 32.718 27.774 32.995 28.154 33.224C29.947 32.902 31.588 31.897 33.268 30.889C32.43 29.228 30.617 28.618 28.959 28.759L28.97 28.833C28.673 29.602 27.153 30.223 26.285 29.269C26.27 29.174 26.255 29.082 26.24 28.988L26.164 29.001V29.003C25.867 29.238 25.658 29.326 25.516 29.623C25.38 30.394 26.591 31.848 27.114 32.402L27.112 32.403ZM31.322 31.991C31.318 31.984 31.319 31.986 31.322 31.991V31.991Z" fill="#64947E"/>
<path d="M33.815 23.421C33.734 23.421 33.665 23.362 33.651 23.281C33.624 23.217 33.452 23.036 33.325 22.952C33.202 22.872 32.966 22.783 32.898 22.783C32.813 22.803 32.726 22.752 32.701 22.666C32.652 22.21 33.427 22.611 33.506 22.671C33.649 22.754 34.275 23.312 33.815 23.422V23.421Z" fill="#594449"/>
<path d="M36.283 25.044C36.202 25.044 36.133 24.985 36.119 24.904C36.092 24.84 35.919 24.662 35.792 24.579C35.666 24.495 35.436 24.407 35.368 24.407C35.284 24.427 35.196 24.378 35.17 24.292C35.118 23.832 35.897 24.236 35.974 24.298C36.069 24.34 36.762 24.937 36.283 25.044Z" fill="#594449"/>
<path d="M24.852 24.47C24.726 24.473 24.641 24.322 24.71 24.215C24.824 24.028 25.285 23.915 25.365 23.902C26.395 23.75 26.228 24.425 25.878 24.253C25.698 24.168 25.134 24.26 24.988 24.398C24.956 24.445 24.904 24.47 24.851 24.47H24.852Z" fill="#594449"/>
<path d="M27.532 24.002C27.407 24.005 27.322 23.855 27.389 23.748C27.5 23.56 27.958 23.447 28.044 23.433C29.067 23.278 28.914 23.956 28.557 23.783C28.378 23.696 27.811 23.793 27.669 23.929C27.637 23.977 27.585 24.003 27.531 24.003L27.532 24.002Z" fill="#594449"/>
<path d="M43.3079 31.361C43.2269 31.367 38.5569 29.464 38.4819 29.448C38.3969 29.414 38.3549 29.317 38.3889 29.23C38.4229 29.144 38.5189 29.101 38.6049 29.136L43.3699 31.037C43.5379 31.098 43.4859 31.367 43.3089 31.361H43.3079Z" fill="#8191A0"/>
<path d="M38.321 31.697C37.47 31.461 40.294 30.777 40.482 27.49C40.495 27.273 40.834 27.299 40.813 27.516C40.546 30.537 38.51 31.649 38.32 31.697H38.321Z" fill="#8191A0"/>
<path d="M38.986 33.262C38.794 33.267 38.76 32.967 38.951 32.93C39.073 32.903 41.94 32.211 42.367 27.263C42.375 27.171 42.456 27.102 42.547 27.11C42.638 27.118 42.706 27.199 42.698 27.292C42.222 32.528 39.177 33.23 38.986 33.261V33.262Z" fill="#8191A0"/>
<path d="M16.691 27.792C16.499 27.797 16.464 27.496 16.657 27.46L21.671 26.395C21.76 26.376 21.849 26.434 21.868 26.525C21.887 26.616 21.829 26.705 21.74 26.724C21.706 26.728 16.724 27.797 16.692 27.793L16.691 27.792Z" fill="#8191A0"/>
<path d="M21.551 28.969C21.336 28.904 19.53 27.458 19.763 24.422C19.781 24.205 20.117 24.236 20.094 24.453C19.735 27.688 22.328 28.822 21.551 28.969Z" fill="#8191A0"/>
<path d="M20.635 30.4C20.401 30.342 17.562 29.146 17.943 23.883C17.951 23.79 18.031 23.722 18.122 23.73C18.214 23.738 18.282 23.819 18.274 23.911C17.728 29.648 21.575 30.055 20.635 30.4Z" fill="#8191A0"/>
<path d="M23.392 23.918C23.349 23.319 22.631 23.065 22.777 23.279C23.036 23.319 23.213 23.538 23.279 23.781C23.101 23.789 22.982 23.997 23.012 24.215C23.041 24.432 23.204 24.589 23.375 24.565C23.498 24.548 23.477 24.138 23.392 23.917V23.918Z" fill="#FFA4A4"/>
<path d="M30.203 22.98C30.158 22.777 29.983 22.631 29.823 22.684C29.802 22.449 29.886 22.196 30.098 22.074C30.137 22.05 30.107 21.984 30.067 22.008C29.774 22.172 29.707 22.538 29.767 22.845C29.765 23.07 29.88 23.438 29.995 23.412C30.155 23.376 30.247 23.182 30.202 22.98H30.203Z" fill="#FFA4A4"/>
<path d="M32.299 20.644C32.272 20.601 32.203 20.641 32.231 20.684C32.383 20.908 32.347 21.197 32.214 21.421C31.896 21.126 31.359 21.793 31.695 22.052C31.795 22.134 32.088 21.824 32.192 21.603C32.397 21.333 32.503 20.944 32.299 20.644Z" fill="#FFA4A4"/>
<path d="M38.39 24.685C38.036 24.586 37.708 24.82 37.519 25.104C37.346 25.278 37.154 25.656 37.263 25.725C37.622 25.961 38.065 25.225 37.686 25.021C37.851 24.821 38.109 24.69 38.369 24.761C38.418 24.773 38.44 24.696 38.39 24.684V24.685Z" fill="#FFA4A4"/>
<path d="M26.765 24.605C26.789 24.843 26.395 25.143 26.658 25.318C26.769 25.339 26.965 25.504 27.036 25.36C27.049 25.314 27.02 25.272 26.978 25.257C26.899 25.228 26.819 25.2 26.74 25.171C26.71 25.16 26.733 25.166 26.727 25.174C26.775 25.036 27.074 24.589 26.849 24.521C26.801 24.521 26.77 24.56 26.766 24.605H26.765Z" fill="#FFA4A4"/>
<path d="M28.001 25.321C28.658 26.564 26.693 27.855 25.819 26.038C25.819 26.038 27.163 26.584 28.001 25.321Z" fill="#BC4C61"/>
<path d="M34.233 23.876C34.126 24.03 33.976 24.146 33.804 24.218C33.687 24.25 33.63 24.393 33.732 24.478C33.822 24.565 33.916 24.648 34.007 24.733C34.086 24.806 34.204 24.688 34.125 24.614C34.033 24.529 33.941 24.444 33.85 24.359C33.817 24.317 33.856 24.379 33.834 24.392C34.046 24.297 34.246 24.16 34.377 23.961C34.433 23.869 34.289 23.782 34.233 23.876Z" fill="#FFA4A4"/>
<path d="M41.432 21.156C41.533 18.2 39.585 16.609 37.406 16.778C36.262 15.305 34.435 15.619 33.079 16.6C33.085 16.606 37.726 20.748 41.432 21.156Z" fill="#5A5A5A"/>
<path d="M33.252 30.869L33.268 30.889C32.956 31.129 31.459 31.921 31.327 31.999C30.334 32.598 29.185 33.035 28.155 33.225C27.034 32.549 26.225 31.468 25.64 30.307C25.272 29.676 25.623 29.37 26.164 29.005V29.003L26.24 28.99C26.256 29.084 26.27 29.175 26.285 29.271C26.304 29.288 26.443 29.457 26.709 29.59C26.69 30.267 27.16 30.847 27.605 31.357C28.226 32.131 29.418 31.602 30.205 31.357C30.768 31.122 32.399 30.591 32.441 29.925L32.502 29.866C32.771 30.133 33.023 30.463 33.252 30.87V30.869Z" fill="#4A7A63"/>
<path d="M24.583 32.927C24.227 32.872 23.872 32.941 23.523 33.019C22.997 32.37 22.547 31.41 22.415 30.727C22.56 30.482 22.785 30.175 22.947 29.987C23.249 31.073 23.763 32.139 24.583 32.927Z" fill="#4A7A63"/>
<path d="M34.269 34.235C34.247 34.084 34.224 33.935 34.199 33.793H34.197L34.153 33.661C33.134 33.894 31.199 34.815 30.103 35.213C30.139 35.749 29.669 36.214 29.24 36.476C28.345 36.924 27.365 36.217 26.969 35.401L26.971 35.398C25.404 35.076 25.291 35.802 23.974 35.728L23.972 35.726C23.442 35.686 22.908 35.37 22.693 34.882C22.687 35.041 22.693 37.437 22.691 37.664H23.65V42.693L31.802 42.695H32.031L32.033 37.664H33.003L33.005 37.662V35.596C33.378 35.252 33.893 35.123 34.38 35.031C34.349 34.789 34.312 34.523 34.269 34.236V34.235Z" fill="#4A7A63"/>
<path d="M27.112 32.403C27.427 32.718 27.774 32.995 28.154 33.224C26.939 33.51 25.753 33.24 24.584 32.926C24.243 32.584 23.929 32.212 23.691 31.79L23.761 31.749C24.185 32.152 26.521 32.454 27.092 32.423L27.113 32.403H27.112Z" fill="#FFA4A4"/>
<path d="M32.621 34.057C32.477 33.851 32.334 33.645 32.198 33.435C30.364 34.414 28.411 35.143 26.414 34.628C25.996 34.497 25.566 34.45 25.131 34.516C24.288 34.602 23.283 34.692 22.608 34.082H22.58C22.458 34.927 23.126 35.682 23.972 35.726L23.974 35.728C25.288 35.802 25.408 35.076 26.971 35.398L26.969 35.401C27.364 36.217 28.345 36.924 29.24 36.476C29.669 36.214 30.139 35.749 30.103 35.213C30.844 34.928 31.961 34.475 32.703 34.141C32.703 34.141 32.632 34.068 32.622 34.055L32.621 34.057Z" fill="#FFA4A4"/>
<path d="M36.253 28.996C36.301 28.894 35.91 27.594 35.578 27.317C35.047 27.551 34.463 27.64 33.885 27.571C33.79 27.717 33.514 28.173 33.421 28.308C32.422 28.806 31.128 27.846 31.144 26.807C31.372 26.467 31.344 26.487 31.558 26.15C31.303 25.772 31.13 25.343 31.046 24.897C30.691 24.86 30.331 24.935 30.012 25.098C29.856 25.946 29.384 26.657 28.699 27.158C28.756 27.52 28.902 28.409 28.957 28.759C30.615 28.617 32.428 29.228 33.266 30.889C32.872 31.203 31.779 31.618 31.277 31.916C31.78 32.787 32.291 33.708 32.96 34.459C35.194 33.217 37.171 32.196 36.252 28.995L36.253 28.996Z" fill="#FFE47D"/>
<path d="M33.793 29.71C34.137 30.163 33.623 30.637 33.267 30.889C32.429 29.228 30.616 28.618 28.958 28.759C28.906 28.432 28.759 27.528 28.704 27.189C29.618 26.935 30.605 27.287 31.441 27.69C31.556 27.857 31.718 28.026 31.942 28.172C32.18 28.327 32.413 28.4 32.621 28.426C32.997 28.717 33.502 29.334 33.793 29.71Z" fill="#F7C341"/>
<path d="M36.253 28.996C37.172 32.2 35.194 33.217 32.961 34.46C32.682 34.185 32.416 33.762 32.198 33.436C34.299 32.491 35.931 31.465 36.254 28.997L36.253 28.996Z" fill="#F7C341"/>
<path d="M33.146 28.398C31.828 27.78 32.412 27.216 31.559 26.15C31.346 26.485 31.372 26.468 31.145 26.807C31.112 27.643 32.136 28.676 33.147 28.398H33.146Z" fill="#FFA4A4"/>
<path d="M28.699 27.159C28.454 27.383 26.002 29.884 26.032 27.69C26.926 27.922 27.97 27.699 28.699 27.159Z" fill="#FFA4A4"/>
<path d="M29.624 21.58L29.635 21.452C28.947 21.546 26.722 22.091 24.796 20.087C24.751 21.254 24.016 22.173 23.191 22.77C23.195 22.792 23.187 22.948 23.191 22.973C23.126 22.944 23.982 22.36 24.227 22.068C24.253 22.037 24.297 22.034 24.327 22.06C24.571 22.273 25.304 22.804 25.645 22.931C25.93 23.037 26.032 22.77 25.96 22.651C25.817 22.416 25.642 21.726 25.551 21.339C25.52 21.207 25.602 21.159 25.735 21.176C26.657 21.295 27.04 22.265 29.625 21.581L29.624 21.58Z" fill="#FFA4A4"/>
<path d="M25.493 19.133L24.131 19.918L24.24 20.388C24.134 21.395 24.588 22.232 25.632 22.581C24.813 21.504 24.59 20.952 25.89 19.726L25.493 19.134V19.133Z" fill="#664A34"/>
<path d="M35.772 19.843C35.769 19.784 35.699 19.753 35.656 19.793C34.847 20.541 33.659 20.779 32.695 20.668C32.683 20.689 34.286 21.099 35.5 20.184C35.541 20.153 35.599 20.18 35.601 20.233C35.688 22.781 38.368 24.061 38.368 24.061C37.809 23.67 35.928 22.523 35.771 19.844L35.772 19.843Z" fill="#FFA4A4"/>
<path d="M19.606 19.626C19.542 19.766 19.672 19.9 19.811 19.833C20.328 19.587 20.846 19.34 21.363 19.094C21.192 20.436 21.52 21.799 22.302 22.906C21.918 23.377 22.149 24.175 22.523 24.635C22.718 24.888 23.06 25.056 23.369 25.022C23.502 25.889 23.947 26.657 24.634 27.2C24.484 27.313 24.326 27.436 24.178 27.557C23.173 28.407 22.642 28.804 22.765 29.986C21.788 31.145 21.47 32.355 21.212 34.223C20.876 37.118 20.977 37.643 20.99 37.694C21.017 37.862 21.332 37.777 21.438 37.797V42.678C21.438 42.753 21.498 42.814 21.573 42.814C24.186 42.812 31.154 42.814 33.776 42.814C33.851 42.814 33.911 42.753 33.911 42.678V37.796H34.427C34.481 37.796 34.529 37.765 34.551 37.715C34.57 37.671 34.729 37.224 34.445 35.017C34.396 34.636 34.338 34.23 34.277 33.856C35.594 32.899 36.323 32.675 36.541 30.488C36.568 29.876 36.37 29.197 36.243 28.745C36.094 28.315 36.004 27.929 35.76 27.536C38.89 27.689 41.308 23.953 41.486 21.049C41.606 18.727 39.744 16.428 37.405 16.686C35.754 14.838 33.536 15.828 31.919 17.354C31.017 16.452 28.472 15.916 27.228 16.234C27.513 15.84 28.034 15.674 28.459 15.479C29.041 14.746 25.768 15.58 25.577 15.802C25.052 16.05 24.508 16.375 24.142 16.836C23.532 16.425 22.79 16.349 22.077 16.281C21.913 16.265 21.895 16.485 22.001 16.563C22.252 16.747 22.475 16.982 22.684 17.22C21.303 17.23 20.179 18.374 19.604 19.624L19.606 19.626ZM23.64 24.999C23.622 24.909 23.632 24.69 23.43 24.736C22.478 24.994 21.832 22.726 23.032 22.906C23.112 23.015 23.328 22.937 23.301 22.797C23.71 22.477 24.058 22.099 24.336 21.662C24.58 22.164 25.151 22.535 25.609 22.764C25.764 22.842 25.901 22.659 25.791 22.526C25.377 22.031 25.093 21.266 25.314 20.625C26.484 21.53 28.008 21.806 29.449 21.559C29.456 21.618 29.462 21.676 29.469 21.735C29.488 21.904 29.724 21.925 29.764 21.795C30.677 21.394 30.81 22.946 30.368 23.436C30.173 23.74 29.778 23.577 29.806 23.853C30.482 27.932 24.602 29.321 23.64 24.999ZM30.863 22.332C30.941 22.206 30.977 22.054 31.029 21.916C31.086 22.119 31.203 22.295 31.357 22.411C30.901 23.108 30.707 23.964 30.826 24.785C30.588 24.78 30.348 24.822 30.126 24.907C30.166 24.586 30.163 24.255 30.117 23.919C30.756 23.737 30.95 22.92 30.862 22.332H30.863ZM31.089 31.967C30.05 32.53 29.106 32.904 28.128 33.089C27.047 32.404 26.345 31.487 25.714 30.262C25.412 29.753 25.653 29.5 26.089 29.214C26.127 29.465 26.261 29.516 26.601 29.728C27.657 30.299 28.88 29.44 29.042 28.901C30.417 28.91 32.262 29.421 33.075 30.827C32.787 31.032 32.579 31.114 32.099 31.341C31.751 31.545 31.035 31.731 31.09 31.967H31.089ZM27.664 29.612C27.209 29.712 26.628 29.526 26.363 29.224C26.291 28.772 26.218 28.321 26.147 27.869C27.086 28.032 28.231 27.717 28.542 27.389C28.563 27.519 28.761 28.741 28.774 28.831C28.698 28.972 28.373 29.497 27.663 29.613L27.664 29.612ZM24.865 27.366C25.175 27.572 25.511 27.724 25.866 27.822C25.924 28.185 25.98 28.547 26.039 28.91C25.939 28.989 25.824 29.068 25.726 29.143C25.366 28.577 24.957 28.155 24.468 27.671C24.601 27.565 24.737 27.461 24.865 27.366ZM23.015 29.475C23.232 28.644 23.451 28.54 24.254 27.844C24.735 28.317 25.185 28.766 25.518 29.331C24.623 30.083 27.076 32.793 27.732 33.154C26.576 33.351 25.656 33.072 24.606 32.809C23.975 32.188 23.644 31.587 23.334 30.815C23.159 30.407 22.946 29.913 23.015 29.475ZM21.708 42.541V37.796H23.469L23.473 42.541H21.708ZM23.474 37.523H21.242C21.159 36.625 21.559 31.457 22.845 30.304C23.178 31.209 23.523 32.054 24.205 32.779C23.676 32.842 23.132 32.863 22.709 33.231C22.369 33.576 22.331 34.292 22.486 34.823C22.635 35.264 23.001 35.603 23.474 35.767V37.522V37.523ZM31.836 37.659L31.834 42.54L23.745 42.538V35.84C25.048 36.056 25.384 35.21 26.836 35.528C27.309 36.424 28.304 37.051 29.248 36.596C29.671 36.336 30.142 35.907 30.186 35.308C30.519 35.178 31.211 34.89 31.837 34.625V37.658L31.836 37.659ZM27.173 35.562C28.004 35.638 29.002 35.711 29.905 35.41C29.438 36.795 27.891 36.781 27.173 35.562ZM31.917 34.296C29.332 35.462 28.87 35.504 26.239 35.194C25.472 35.076 24.668 35.746 23.94 35.591C23.174 35.549 22.581 34.877 22.677 34.149C22.681 33.839 22.753 33.564 22.902 33.424C23.075 33.247 23.356 33.191 23.609 33.141C24.257 32.938 24.908 33.139 25.539 33.328C27.482 33.782 29.338 33.218 31.221 32.205C31.611 32.895 31.928 33.41 32.425 34.082C32.305 34.133 32.126 34.209 31.917 34.297V34.296ZM33.642 42.54H32.104V37.795C32.492 37.796 33.258 37.792 33.642 37.794V42.54ZM34.321 37.522C33.797 37.52 32.618 37.522 32.106 37.522V34.511C32.317 34.422 32.491 34.348 32.593 34.305C32.816 34.598 32.828 34.599 32.898 34.599C33.269 34.465 33.635 34.232 34.03 34.008C34.084 34.35 34.134 34.706 34.179 35.051C34.391 36.699 34.351 37.323 34.322 37.523L34.321 37.522ZM35.829 28.355C37.081 31.692 35.529 32.998 32.93 34.296C32.323 33.523 31.882 32.834 31.431 32.026C31.445 32.004 31.451 31.977 31.45 31.953C32.478 31.436 33.568 31.116 34.103 30.068L33.991 29.991L34.106 30.062C34.2 29.914 33.966 29.767 33.876 29.919C33.701 30.188 33.535 30.46 33.293 30.662C32.41 29.166 30.458 28.628 29.016 28.625L28.795 27.255C29.465 26.723 29.9 26.014 30.072 25.224C30.318 25.101 30.599 25.039 30.877 25.056C30.967 25.463 31.119 25.83 31.337 26.173C31.18 26.413 31.235 26.363 31.038 26.652C30.855 27.026 31.02 27.35 31.27 27.788C31.698 28.462 32.921 28.937 33.529 28.306L33.889 27.734C34.41 27.786 34.937 27.709 35.427 27.518C35.632 27.806 35.726 28.037 35.829 28.354V28.355ZM31.478 26.464C31.481 26.457 31.485 26.449 31.505 26.417C32.013 27.086 32.765 27.553 33.594 27.697L33.374 28.049C33.326 28.116 33.278 28.225 33.19 28.247C32.366 28.585 31.283 27.799 31.23 26.954C31.196 26.823 31.494 26.486 31.478 26.464ZM35.454 27.214C32.504 28.487 29.824 25.039 31.657 22.444C31.707 22.369 31.666 22.273 31.589 22.236C30.976 21.884 31.322 20.786 31.786 20.48C32.577 20.054 32.496 21.063 32.801 20.706C33.666 20.782 34.809 20.597 35.656 19.878C35.855 22.354 37.506 23.514 38.174 23.972C38.105 24.082 37.932 24.267 38.128 24.352C38.473 24.338 38.682 24.672 38.625 24.986C38.536 25.529 37.7 26.279 37.131 25.888C37.084 25.853 37.018 25.837 36.966 25.87C36.58 26.436 36.11 26.951 35.456 27.215L35.454 27.214ZM32.628 17.093C34.359 15.789 35.823 15.413 37.35 16.964C39.557 16.658 41.335 18.849 41.217 21.041C41.052 23.736 38.822 27.266 35.947 27.266C36.402 26.995 36.787 26.621 37.073 26.171C38.152 26.742 39.719 24.737 38.399 24.123C39.015 23.688 35.98 23.044 35.91 19.577C35.91 19.462 35.757 19.4 35.678 19.486C34.85 20.338 33.609 20.525 32.719 20.425C32.347 19.87 31.57 20.11 31.29 20.614C31.33 20.04 31.268 19.455 31.089 18.895C31.471 18.21 32.054 17.525 32.628 17.093ZM30.971 18.559C30.819 18.17 30.612 17.788 30.341 17.479C30.799 17.38 31.27 17.407 31.73 17.552C31.448 17.859 31.188 18.203 30.971 18.559ZM23.29 17.597C23.477 17.646 23.557 17.354 23.37 17.305C23.283 17.282 23.197 17.265 23.111 17.252C22.931 17.041 22.745 16.827 22.543 16.632C23.046 16.694 23.543 16.801 23.974 17.084C23.902 17.206 23.842 17.337 23.797 17.477C23.738 17.663 24.027 17.743 24.086 17.557C24.633 16.216 26.31 15.731 27.62 15.535C27.009 15.808 26.719 16.409 26.63 17.041C26.592 17.231 26.881 17.313 26.919 17.121C26.951 16.958 26.985 16.792 27.036 16.635C28.143 16.17 30.013 16.66 31.093 17.125C30.609 17.093 30.118 17.188 29.671 17.385C29.495 17.463 29.647 17.724 29.822 17.646C29.885 17.618 29.949 17.594 30.013 17.571C31.066 18.717 31.227 20.473 30.718 21.894C30.541 21.557 30.098 21.336 29.741 21.495C29.738 21.366 29.701 21.213 29.539 21.242C28.025 21.453 26.593 21.267 25.355 20.279C25.285 20.223 25.167 20.214 25.119 20.31C24.82 20.906 24.92 21.6 25.214 22.184C24.881 21.955 24.57 21.654 24.524 21.298C24.506 21.163 24.323 21.075 24.245 21.222C23.95 21.779 23.538 22.245 23.039 22.624C22.864 22.58 22.682 22.608 22.527 22.703C20.295 19.347 23.314 17.717 20.073 19.373C20.735 18.214 21.891 17.233 23.289 17.598L23.29 17.597Z" fill="#3F3436"/>
</svg>
