<svg width="59" height="57" viewBox="0 0 59 57" fill="none" xmlns="http://www.w3.org/2000/svg">
<path d="M58.5 28.5C58.5 43.9479 45.5326 56.5 29.5 56.5C13.4673 56.5 0.5 43.9479 0.5 28.5C0.5 13.0521 13.4673 0.5 29.5 0.5C45.5326 0.5 58.5 13.0521 58.5 28.5Z" stroke="#B0B3FB"/>
<path d="M16.521 37.084H15.784V42.189H18.655V37.084H16.521Z" fill="#FFD7CD"/>
<path d="M16.507 42.189H15.784V37.084H16.481C16.429 38.784 16.345 40.495 16.506 42.189H16.507Z" fill="#FFA4A4"/>
<path d="M33.23 34.033C32.559 34.033 31.213 34.033 30.545 34.033H29.378C28.696 34.16 28.761 34.879 28.924 35.166L26.433 37.206L26.233 36.201C25.976 36.266 24.905 36.456 24.903 36.452C24.765 36.487 24.404 36.78 24.393 36.782V38.881C24.527 39.126 24.795 39.419 25.073 39.698C26.699 41.017 28.532 38.054 30.07 36.74C31.62 35.332 30.974 35.282 32.775 35.167C33.483 35.237 34.041 34.134 33.229 34.034L33.23 34.033Z" fill="#FFD7CD"/>
<path d="M33.23 34.033C33.576 34.033 33.687 34.326 33.592 34.615H28.815C28.878 33.808 29.989 34.074 30.545 34.033H33.23Z" fill="#FFA4A4"/>
<path d="M30.071 36.738C28.533 38.05 26.704 41.014 25.074 39.697C24.796 39.418 24.528 39.125 24.394 38.88L24.199 36.662C24.211 36.66 24.773 36.296 24.911 36.261C25.587 40.181 27.972 38.377 30.071 36.738Z" fill="#FFA4A4"/>
<path d="M43.423 37.197C43.423 37.197 43.423 37.204 43.423 37.208C43.423 37.208 43.422 37.206 43.421 37.206L41.555 37.167C41.555 37.37 41.574 42.19 41.574 42.19H44.293V37.19L43.422 37.198L43.423 37.197Z" fill="#FFD7CD"/>
<path d="M30.965 29.232C31.055 29.557 31.13 29.724 30.8 29.754C30.151 29.756 29.526 29.528 28.952 29.261C28.049 28.882 27.872 27.824 28.931 27.554C29.904 27.436 30.721 28.36 30.965 29.231V29.232Z" fill="#FC5061"/>
<path d="M37.724 27.877V28.369C37.971 29.013 36.942 29.602 35.991 29.555C36.239 28.996 36.243 27.659 36.248 27.223C37.069 26.643 37.384 27.168 37.724 27.577V27.878V27.877Z" fill="#404040"/>
<path d="M33.25 27.555C33.65 27.624 34.013 27.982 33.984 28.386C33.888 29.293 32.163 29.742 31.38 29.754C31.052 29.723 31.127 29.557 31.216 29.232C31.458 28.361 32.277 27.436 33.25 27.555Z" fill="#FC5061"/>
<path d="M31.373 29.728H31.605C31.524 29.734 31.449 29.736 31.373 29.728Z" fill="#FC5061"/>
<path d="M30.792 29.728C30.716 29.736 30.641 29.734 30.56 29.728H30.792Z" fill="#FC5061"/>
<path d="M25.64 21.799V21.913C27.735 20.065 25.573 15.798 22.842 16.711C21.271 14.989 18.332 15.812 17.18 17.635C15.981 19.345 15.974 22.366 17.941 23.498C17.967 22.475 19.023 21.93 19.54 22.821C20.936 22.672 19.529 21.461 20.655 20.1C22.23 21.675 24.924 21.682 25.64 21.7V21.799Z" fill="#807064"/>
<path d="M24.26 29.919C23.916 28.978 22.787 28.199 21.746 28.422C21.746 28.422 22.276 28.626 21.598 28.717C21.24 28.764 21.17 28.543 20.8 28.422C20.584 28.351 20.626 28.65 20.453 28.57C20.141 28.425 20.514 28.143 19.976 28.369C19.976 28.294 19.636 28.444 19.636 28.369C18.292 28.249 16.965 28.713 16.451 30.003C15.972 31.796 15.37 34.272 15.331 37.206H18.504V42.19H24.394V36.782C24.46 36.766 24.686 36.715 24.919 36.663C24.978 36.655 26.166 36.367 26.434 36.299C26.434 35.363 24.925 31.34 24.261 29.92L24.26 29.919Z" fill="#FFE47D"/>
<path d="M16.464 29.955L16.469 29.959C16.464 29.966 16.462 29.973 16.457 29.98C16.461 29.964 16.463 29.955 16.463 29.955H16.464Z" fill="#FFE47D"/>
<path d="M16.451 30.002C16.421 30.102 16.353 30.349 16.262 30.707C16.294 30.458 16.357 30.222 16.451 30.002Z" fill="#FFE47D"/>
<path d="M43.675 30.172C43.132 28.743 41.538 28.228 40.442 28.368L39.877 28.219C39.489 27.956 40.115 28.42 40.06 28.453C39.995 28.488 39.931 28.582 39.844 28.624C39.378 28.851 38.898 28.942 38.29 28.862C37.613 28.771 38.058 28.431 38.058 28.431C37.374 28.16 35.689 29.156 35.685 30.633C35.214 31.26 34.061 33.31 34.819 34.845L34.804 34.805C34.677 35.683 34.574 36.473 34.555 36.865C34.575 37.059 34.779 37.001 34.955 37.063C35.078 37.089 35.623 37.205 35.782 37.24L35.678 37.338C35.57 37.402 35.664 37.391 35.664 37.392C35.854 38.396 35.59 39.294 35.509 40.227C35.419 41.275 35.62 42.187 35.62 42.187H41.574C41.568 42.107 41.591 38.478 41.555 37.164H41.524C42.222 37.172 43.793 37.217 44.476 37.203C45.425 37.007 43.555 29.635 43.674 30.17L43.675 30.172Z" fill="#FF7296"/>
<path d="M35.787 37.277C35.787 37.264 35.785 37.252 35.783 37.241C35.511 37.183 35.205 37.116 34.956 37.064L34.553 42.189H35.621C35.819 41.396 36.097 38.509 35.787 37.277Z" fill="#FFD7CD"/>
<path d="M43.274 25.763C43.749 23.043 44.218 21.803 43.804 19.447C43.5 17.606 41.91 16.311 41.008 16.021C39.813 15.667 38.077 15.669 37.236 16.71C34.621 15.814 32.334 19.88 34.447 21.694L34.45 21.74C35.182 21.724 37.474 22.152 39.041 20.587C40.115 21.876 39.536 25.519 39.85 26.064C39.85 27.464 40.441 27.143 40.441 28.368C40.441 28.368 41.148 28.892 42.054 29.346C42.804 29.721 43.525 29.842 43.668 30.154C43.718 30.284 42.935 27.745 43.274 25.763Z" fill="#404040"/>
<path d="M31.373 29.728H31.605C31.524 29.734 31.449 29.736 31.373 29.728Z" fill="#FC5061"/>
<path d="M30.792 29.728C30.716 29.736 30.641 29.734 30.56 29.728H30.792Z" fill="#FC5061"/>
<path d="M33.909 29.728C32.29 29.728 30.09 29.728 28.472 29.728V34.032H33.909V29.728Z" fill="#AEDEFF"/>
<path d="M16.464 29.955L16.469 29.959C16.464 29.966 16.462 29.973 16.457 29.98C16.461 29.964 16.463 29.955 16.463 29.955H16.464Z" fill="#FFE47D"/>
<path d="M16.451 30.002C16.421 30.102 16.353 30.349 16.262 30.707C16.294 30.458 16.357 30.222 16.451 30.002Z" fill="#FFE47D"/>
<path d="M41.235 22.365C40.928 22.365 40.648 22.578 40.489 22.904C39.395 22.665 40.496 21.388 39.423 20.099C37.857 21.664 35.18 21.681 34.448 21.697C34.435 21.692 34.44 21.799 34.439 21.798V22.291V24.291C34.434 26.109 35.948 27.583 37.725 27.577V28.299C37.722 28.344 37.727 28.546 37.725 28.595C37.391 29.771 39.501 29.148 40.009 28.837C40.128 28.781 40.4 28.635 40.444 28.595V26.126C40.702 25.745 40.886 25.308 40.965 24.837L40.992 24.812C42.377 25.221 42.535 22.389 41.237 22.365H41.235Z" fill="#FFD7CD"/>
<path d="M40.442 26.126C40.468 26.298 39.081 27.628 37.724 27.576C37.725 27.611 37.724 28.357 37.724 28.368V28.595C37.724 28.595 37.534 29.098 38.04 29.246C39.151 29.005 39.451 27.89 40.442 27.423C40.442 27.149 40.442 26.937 40.442 26.126Z" fill="#FFA4A4"/>
<path d="M36.844 23.675C36.902 24.079 36.363 24.539 36.452 24.753C36.564 24.847 36.74 24.808 36.877 24.842C36.92 24.847 36.956 24.802 36.956 24.763C36.945 24.638 36.675 24.674 36.578 24.648C36.557 24.643 36.56 24.658 36.587 24.693C36.769 24.377 37.011 24.059 37.002 23.676C37 23.574 36.841 23.574 36.844 23.676V23.675Z" fill="#FFA4A4"/>
<path d="M36.359 25.788C36.717 25.971 37.166 25.947 37.497 25.714C37.58 25.656 37.501 25.519 37.417 25.577C37.133 25.777 36.749 25.81 36.439 25.651C36.349 25.605 36.268 25.741 36.359 25.788Z" fill="#FFA4A4"/>
<path d="M41.223 23.946C41.167 23.727 40.969 23.571 40.795 23.639C40.7 23.082 41.276 22.902 41.04 22.904C40.736 23.086 40.675 23.47 40.742 23.793C40.739 24.034 40.881 24.452 41.009 24.42C41.182 24.376 41.278 24.163 41.223 23.945V23.946Z" fill="#FFA4A4"/>
<path d="M26.491 19.84C26.533 20.533 26.097 21.925 25.285 21.997C25.285 21.973 25.275 21.97 25.275 21.945L25.395 21.902C24.679 21.884 22.299 22.233 20.724 20.659C19.585 22.111 21.053 22.897 19.563 23.149C19.448 22.952 19.15 22.904 18.967 22.835C18.892 22.805 18.899 22.706 18.816 22.706C18.342 22.706 18.088 22.952 18.047 23.589C16.554 22.783 16.132 20.851 16.472 19.283C17.548 19.748 18.823 19.692 19.893 19.234C20.14 19.126 20.392 18.995 20.661 19.009C20.937 19.025 21.177 19.194 21.412 19.339C22.91 20.266 24.831 20.421 26.494 19.841L26.491 19.84Z" fill="#614F43"/>
<path d="M43.955 20.826C43.153 20.758 42.319 20.763 41.628 20.29C40.677 19.795 39.758 19.054 39.567 17.942C38.521 19.492 36.592 20.226 34.765 20.171C34.328 20.173 33.789 20.071 33.604 19.625C33.773 17.924 35.417 16.05 37.238 16.711C38.079 15.671 39.815 15.668 41.01 16.022C42.568 16.535 44.03 18.554 43.956 20.826H43.955Z" fill="#5A5A5A"/>
<path d="M41.556 37.166C41.35 37.192 41.11 37.132 41.128 36.878C41.161 36.548 41.204 35.978 41.115 35.091C41.025 34.247 40.897 33.575 40.651 32.598C40.439 32.85 40.643 33.427 40.673 33.756C40.696 34.003 40.716 34.227 40.733 34.438C39.897 35.031 38.803 35.512 37.786 35.132C37.393 34.951 37.005 34.781 36.59 34.952C35.635 35.013 34.705 34.082 34.59 33.162C34.519 33.677 34.463 34.382 34.707 35.031C34.832 35.369 34.463 36.965 34.463 36.965L35.781 37.241L35.785 37.275C35.785 37.275 37.044 37.56 37.832 37.589C38.94 37.592 40.234 37.122 40.798 36.101C40.812 37.117 40.69 38.414 40.258 39.488C39.567 41.01 37.859 41.618 36.37 40.799C36.164 40.705 35.945 40.564 35.868 40.363C35.778 41.411 35.619 42.189 35.619 42.189H41.573C41.567 42.109 41.59 38.48 41.554 37.166H41.556Z" fill="#F73A70"/>
<path d="M43.675 30.172C43.904 31.002 44.696 34.087 44.744 36.936C44.747 37.084 44.625 37.205 44.477 37.205H43.422C43.174 34.325 43.538 29.92 40.236 28.72C40.36 28.652 40.435 28.604 40.443 28.596V28.369C41.553 28.228 43.136 28.752 43.676 30.173L43.675 30.172Z" fill="#F73A70"/>
<path d="M35.782 37.241C36.095 38.476 35.823 41.391 35.621 42.189H34.992C35.257 40.526 35.389 38.84 35.383 37.156C35.509 37.182 35.643 37.213 35.782 37.242V37.241Z" fill="#FFA4A4"/>
<path d="M43.519 42.189C43.533 40.537 43.5 38.846 43.423 37.197L44.294 37.189V42.189H43.519Z" fill="#FFA4A4"/>
<path d="M31.605 29.728C31.309 29.731 30.841 29.731 30.545 29.728V32.88V34.033H31.837V29.729H31.605V29.728Z" fill="white"/>
<path d="M31.837 33.077V34.033H33.91V32.964C33.232 33.105 32.531 33.131 31.837 33.078V33.077Z" fill="#5FB2EA"/>
<path d="M30.467 32.857C29.648 32.606 28.937 32.032 28.472 31.313V34.033H30.545V32.88C30.519 32.873 30.493 32.865 30.467 32.857Z" fill="#5FB2EA"/>
<path d="M31.197 33.007C30.977 32.976 30.758 32.938 30.544 32.879V34.032H31.836V33.076C31.622 33.06 31.409 33.036 31.197 33.006V33.007Z" fill="#D9D9D9"/>
<path d="M20.655 20.1C19.529 21.461 20.936 22.672 19.54 22.821C19.023 21.93 17.967 22.475 17.941 23.498C17.879 24.292 18.431 25.075 19.11 24.803C19.187 25.29 19.371 25.742 19.636 26.133V28.596C20.087 28.943 22.633 29.987 22.354 28.596C22.354 28.403 22.354 28.051 22.354 27.855V27.578C24.119 27.591 25.648 26.112 25.64 24.292C25.64 23.979 25.64 21.967 25.64 21.701C24.924 21.683 22.23 21.676 20.655 20.101V20.1Z" fill="#FFD7CD"/>
<path d="M24.507 22.705C24.948 22.698 24.949 24.071 24.507 24.065C24.065 24.071 24.066 22.699 24.507 22.705Z" fill="#594449"/>
<path d="M21.788 22.705C22.23 22.698 22.231 24.071 21.788 24.065C21.346 24.071 21.347 22.699 21.788 22.705Z" fill="#594449"/>
<path d="M19.22 23.29C19.161 23.116 19.043 22.978 18.882 22.89C18.84 22.867 18.802 22.931 18.844 22.954C19.096 23.083 19.206 23.367 19.193 23.639C18.749 23.528 18.579 24.391 19.023 24.472C19.29 24.405 19.312 23.582 19.22 23.289V23.29Z" fill="#FFA4A4"/>
<path d="M23.144 23.913C23.154 24.24 23.419 24.479 23.505 24.773C23.425 24.907 23.266 24.981 23.144 25.074C23.061 25.132 23.14 25.269 23.224 25.211C23.379 25.093 23.595 24.998 23.662 24.801C23.651 24.481 23.308 24.246 23.302 23.913C23.295 23.812 23.136 23.811 23.144 23.913Z" fill="#FFA4A4"/>
<path d="M22.284 25.857C22.532 26.514 24.072 26.139 23.559 25.992C23.187 26.089 22.635 26.192 22.421 25.777C22.379 25.684 22.242 25.765 22.284 25.857Z" fill="#FFA4A4"/>
<path d="M19.636 26.133V28.369C19.636 28.444 19.49 28.729 19.49 28.804C19.505 28.824 20.008 28.813 20.174 28.886C20.748 27.694 22.05 28.233 22.354 27.577C22.354 27.577 20.463 27.38 19.636 26.133Z" fill="#FFA4A4"/>
<path d="M25.523 36.521C25.385 36.556 24.534 36.746 24.393 36.781V31.021C24.26 33.739 25.77 34.271 25.523 36.521Z" fill="#FFBA48"/>
<path d="M24.393 39.935V42.189H18.504V37.205H18.956C18.861 36.236 18.935 34.764 19.153 33.739C19.168 35.238 19.392 36.767 19.97 38.155C20.703 39.782 22.736 40.598 24.393 39.934V39.935Z" fill="#FFBA48"/>
<path d="M19.636 28.595C19.648 28.61 19.862 28.741 20.174 28.885C19.004 29.169 17.79 29.489 17.294 30.72C16.975 31.405 16.884 32.165 16.803 32.912C16.652 34.34 16.544 35.771 16.481 37.205H15.331C15.371 34.268 15.972 31.797 16.451 30.002C16.965 28.712 18.294 28.248 19.636 28.368V28.595Z" fill="#FFBA48"/>
<path d="M40.443 23.012V23.016C39.349 22.777 40.45 21.5 39.377 20.211C37.809 21.777 35.134 21.793 34.4 21.809C34.393 21.809 36.798 22.595 39.452 20.566C39.573 20.937 39.592 21.151 39.621 21.41C39.844 23.432 40.444 23.011 40.444 23.011L40.443 23.012Z" fill="#FFA4A4"/>
<path d="M25.64 21.785C24.924 21.767 22.23 21.76 20.655 20.185C19.547 21.517 20.888 22.719 19.609 22.894C19.96 23.105 20.464 22.758 20.518 22.391C20.514 21.792 20.251 21.101 20.684 20.582C23.076 22.623 25.639 21.786 25.639 21.786L25.64 21.785Z" fill="#FFA4A4"/>
<path d="M18.494 42.305H24.369C24.44 42.305 24.498 42.247 24.498 42.176V39.229C25.496 40.93 27.056 39.901 27.85 39.104L31.449 35.505C31.538 35.467 31.969 35.3 32.73 35.3C33.427 35.293 33.866 34.691 33.644 34.17C33.75 34.159 33.992 34.217 33.988 34.041V29.748C33.988 29.677 33.93 29.619 33.859 29.619H32.639C33.231 29.443 34.063 28.96 34.055 28.392C34.086 27.944 33.709 27.511 33.216 27.427C32.243 27.272 31.274 28.265 31.04 29.199C30.807 28.266 29.837 27.271 28.864 27.427C28.371 27.511 27.994 27.944 28.025 28.392C28.018 28.96 28.849 29.442 29.441 29.619H28.435C28.364 29.619 28.306 29.677 28.306 29.748V34.041C28.298 34.253 28.726 34.145 28.84 34.17C28.572 34.41 28.637 34.938 28.731 35.133L26.485 36.97L26.379 36.439C26.997 36.022 24.782 30.947 24.35 29.883C24.047 29.047 23.33 28.451 22.462 28.301V27.727C25.827 27.357 25.848 24.713 25.738 22.005C27.855 20.085 25.617 15.761 22.861 16.612C21.222 14.943 18.283 15.711 17.066 17.613C15.817 19.421 15.86 22.396 17.799 23.612C17.784 24.433 18.321 25.137 18.997 25C19.084 25.428 19.25 25.831 19.493 26.199V28.263C18.164 28.136 16.808 28.713 16.322 29.98C15.796 31.889 15.253 34.271 15.199 37.204C15.192 37.405 15.54 37.313 15.651 37.333V42.175C15.651 42.246 15.709 42.304 15.78 42.304H18.492L18.494 42.305ZM33.731 29.877V33.913C33.167 33.924 32.564 33.892 31.921 33.854V29.877H33.731ZM31.271 29.332C31.405 28.801 31.714 28.321 32.144 27.999C33.589 26.932 34.899 28.799 32.331 29.447C32.001 29.53 31.555 29.695 31.222 29.59C31.206 29.561 31.244 29.429 31.271 29.333V29.332ZM31.324 29.877C31.433 29.889 31.554 29.874 31.664 29.877V33.841C31.323 33.825 30.969 33.813 30.633 33.812V29.881C30.716 29.877 31.231 29.875 31.324 29.876V29.877ZM28.967 29.142C27.392 28.338 28.886 27.075 29.939 27.999C30.424 28.357 30.795 28.991 30.861 29.589C30.363 29.719 29.434 29.363 28.967 29.142ZM28.566 33.913V29.877H30.376V33.814C29.965 33.821 29.595 33.849 29.326 33.913H28.565H28.566ZM24.499 30.86C25.21 32.573 26.194 35.32 26.271 36.202C25.901 36.296 24.999 36.52 24.499 36.645V30.86ZM24.499 36.908C24.944 36.801 25.763 36.593 26.133 36.501L26.278 37.229C26.294 37.322 26.414 37.365 26.486 37.303L28.972 35.269C29.018 35.231 29.032 35.166 29.006 35.112C28.547 33.925 29.753 34.194 30.506 34.168H33.184C33.415 34.168 33.45 34.331 33.45 34.428C33.45 34.675 33.222 35.041 32.732 35.041C31.759 35.052 31.36 35.255 31.285 35.305L27.67 38.92C26.742 39.781 25.544 40.651 24.5 38.777V36.907L24.499 36.908ZM18.367 42.047H15.911V37.333H18.365V42.047H18.367ZM17.142 22.667C15.639 20.473 16.833 16.896 19.428 16.126C20.559 15.765 21.955 15.955 22.719 16.843C22.754 16.889 22.814 16.906 22.868 16.885C23.463 16.654 24.208 16.754 24.81 17.144C26.303 18.226 26.869 20.251 25.719 21.651C24.741 21.51 22.344 21.644 20.731 20.055C20.681 20.002 20.587 20.006 20.541 20.064C19.964 20.757 20.015 21.427 20.053 21.916C20.091 22.41 20.108 22.647 19.59 22.719C19.033 21.886 17.961 22.334 17.828 23.334C17.562 23.172 17.309 22.929 17.141 22.668L17.142 22.667ZM19.243 24.906C19.453 24.846 19.398 24.54 19.18 24.642C18.598 25.033 18.056 24.402 18.057 23.648C18.054 23.007 18.484 22.373 19.025 22.571C19.224 22.641 19.4 22.849 19.494 23.072C19.563 23.234 19.811 23.108 19.724 22.956C20.924 22.709 19.807 21.315 20.653 20.337C22.188 21.767 24.612 21.846 25.482 21.866C25.553 24.477 25.72 27.2 22.334 27.473C20.86 27.494 19.493 26.364 19.242 24.906H19.243ZM22.233 28.735C22.283 29.832 19.812 28.638 19.752 28.551V26.54C20.37 27.259 21.257 27.691 22.206 27.727C22.212 27.931 22.186 28.541 22.233 28.736V28.735ZM15.46 37.077C15.517 34.249 16.087 31.867 16.572 30.053C17.033 28.895 18.282 28.403 19.496 28.521C19.278 28.942 22.872 30.316 22.469 28.562C23.226 28.71 23.848 29.241 24.113 29.977C24.198 30.215 24.24 30.466 24.241 30.72V42.048H18.623V37.334C18.738 37.31 19.094 37.41 19.075 37.195C18.953 35.705 19.109 34.155 19.522 32.722C19.542 32.654 19.502 32.582 19.434 32.563C19.366 32.543 19.295 32.583 19.275 32.651C18.866 34.069 18.703 35.6 18.808 37.077H15.46Z" fill="#3F3436"/>
<path d="M43.773 30.271C42.232 26.31 44.589 23.497 43.856 19.474C43.229 16.134 39.385 14.578 37.136 16.613C34.524 15.809 32.117 19.814 34.261 21.779C34.264 23.772 33.892 26.217 36.03 27.309C36.057 28.025 36.058 28.885 35.815 29.532C35.65 29.857 35.527 30.207 35.505 30.609C34.954 31.333 33.932 33.387 34.615 34.809C34.452 35.777 34.378 36.651 34.372 36.98C34.36 37.142 34.661 37.129 34.758 37.166C34.706 38.913 34.176 42.33 34.501 42.305H44.217C44.288 42.305 44.346 42.247 44.346 42.176V37.334C44.457 37.307 44.804 37.411 44.798 37.205C44.807 34.391 44.041 31.466 43.774 30.27L43.773 30.271ZM34.399 21.868H34.404C34.404 21.868 34.401 21.868 34.399 21.868ZM33.699 19.544C33.88 18.092 35.442 16.237 37.132 16.886C37.185 16.906 37.246 16.889 37.281 16.844C38.057 15.856 39.83 15.869 40.901 16.202C43.893 17.29 44.157 21.247 43.391 24.079C43.01 25.746 42.759 27.533 43.249 29.37C42.689 28.497 41.174 28.173 40.504 28.257V26.196C40.748 25.827 40.916 25.427 41.001 25.004C41.666 25.132 42.192 24.47 42.198 23.65C42.234 22.455 40.995 21.743 40.356 22.794C40.02 22.685 40.007 22.437 40.011 21.935C40.008 21.469 40.027 20.547 39.364 20.018C37.863 21.446 35.312 21.638 34.453 21.61C33.84 20.969 33.585 20.274 33.699 19.545V19.544ZM34.516 24.326V21.865C35.4 21.846 37.813 21.765 39.345 20.337C40.189 21.307 39.212 22.801 40.395 23.069C40.454 23.082 40.52 23.046 40.541 22.989C41.021 22.082 41.969 22.67 41.941 23.648C41.941 24.262 41.593 24.762 41.166 24.762C41.014 24.766 40.838 24.628 40.768 24.849C40.038 28.617 34.599 28.158 34.516 24.326ZM40.247 26.535V28.551C40.01 28.684 38.423 29.568 37.799 29C37.704 28.808 37.794 28.686 37.792 28.619V27.727C38.742 27.691 39.629 27.257 40.246 26.535H40.247ZM36.289 27.438C36.683 27.615 37.101 27.712 37.535 27.728V28.291C37.295 28.351 36.7 28.54 36.213 29.023C36.308 28.517 36.307 27.955 36.289 27.439V27.438ZM34.631 36.877C34.643 36.562 34.705 35.981 34.801 35.277C35.063 35.868 35.423 36.358 35.56 37.076C35.275 37.015 34.909 36.936 34.631 36.877ZM35.46 42.049H34.639C34.689 41.404 34.9 38.668 35.011 37.221C35.2 37.261 35.393 37.303 35.614 37.35C35.948 39.191 35.555 41.534 35.46 42.049ZM44.088 42.049H41.634V37.335H44.088V42.049ZM44.539 37.078H41.191C41.296 35.6 41.133 34.07 40.724 32.652C40.704 32.584 40.633 32.544 40.565 32.564C40.497 32.584 40.457 32.655 40.477 32.723C40.89 34.156 41.047 35.706 40.924 37.196C40.904 37.407 41.262 37.317 41.376 37.335V42.049H35.722C35.831 41.454 36.182 39.294 35.895 37.471C36.898 37.795 37.994 37.808 39.004 37.506C39.072 37.486 39.111 37.414 39.09 37.346C39.069 37.278 38.998 37.239 38.93 37.26C37.925 37.56 36.833 37.532 35.845 37.183C35.528 35.574 34.254 34.508 34.737 32.832C35.008 31.751 35.726 30.739 35.734 30.729C35.792 29.534 36.717 28.754 37.535 28.559C37.105 30.321 40.73 28.949 40.504 28.515C41.734 28.419 42.999 29.033 43.475 30.227C43.724 31.131 44.515 34.225 44.539 37.078Z" fill="#3F3436"/>
<path d="M38.165 22.604C38.343 22.604 38.487 22.892 38.487 23.249C38.487 23.606 38.343 23.893 38.165 23.893C37.987 23.893 37.843 23.605 37.843 23.249C37.843 22.893 37.986 22.604 38.165 22.604Z" fill="#594449"/>
<path d="M35.587 22.604C35.765 22.604 35.909 22.892 35.909 23.249C35.909 23.606 35.765 23.893 35.587 23.893C35.409 23.893 35.265 23.605 35.265 23.249C35.265 22.893 35.409 22.604 35.587 22.604Z" fill="#594449"/>
</svg>
