<svg width="59" height="57" viewBox="0 0 59 57" fill="none" xmlns="http://www.w3.org/2000/svg">
<path d="M58.5 28.5C58.5 43.9479 45.5326 56.5 29.5 56.5C13.4673 56.5 0.5 43.9479 0.5 28.5C0.5 13.0521 13.4673 0.5 29.5 0.5C45.5326 0.5 58.5 13.0521 58.5 28.5Z" stroke="#B0B3FB"/>
<path d="M39.9941 36.889C39.9731 38.622 40.0611 40.435 40.0861 42.169H41.2621V36.889H39.9941Z" fill="#FFD7CD"/>
<path d="M41.6721 33.69C40.7991 28.271 38.72 28.175 36.0261 28.19C36.0061 28.933 34.1801 28.926 34.0461 28.362C34.0461 28.282 33.815 28.27 33.815 28.19C33.066 28.193 31.6801 28.198 30.2611 28.74C29.9881 28.845 29.7251 28.974 29.4771 29.125C31.0221 29.934 31.92 36.301 31.59 37.127H30.9321V42.168H39.4111V37.127H41.902C41.902 37.127 42.1171 36.643 41.6731 33.69H41.6721Z" fill="#8191A0"/>
<path d="M39.202 23.119C39.963 21.884 40.257 19.466 39.798 17.807C36.985 19.088 33.263 19.028 30.972 16.76C30.735 17.041 30.548 17.368 30.398 17.704C30.877 17.938 30.004 18.816 30.058 19.327C30.119 19.925 30.494 20.188 29.873 20.243C30.165 20.431 30.087 20.595 30.094 21.128C29.82 21.046 30.474 21.699 30.588 22.178C30.59 22.185 30.908 22.965 31.08 23.145C30.994 23.003 32.448 21.596 32.448 21.573C33.351 21.115 33.872 20.674 34.098 19.528C35.679 21.82 38.001 21.479 38.001 21.504C38.403 21.599 39.11 21.835 38.885 22.576C38.849 22.727 39.275 22.985 39.201 23.12L39.202 23.119Z" fill="#BC6173"/>
<path d="M39.2879 21.822C39.1359 21.465 38.6929 21.256 38.3599 21.487V21.162L38.3759 21.139C37.6749 21.121 35.3809 21.201 33.7769 18.909C33.5479 20.055 32.6309 20.971 31.7149 21.43V21.506C31.4369 21.299 31.0539 21.387 30.8509 21.664C30.3989 22.282 30.8209 23.661 31.7149 23.6C31.6579 25.033 32.4949 26.294 33.7659 26.829V28.433C34.3269 29.363 35.9589 29.304 36.5159 28.433C36.5169 28.004 36.5159 27.17 36.5159 26.733C37.6769 26.152 38.4149 24.932 38.3609 23.603C39.1899 23.621 39.5479 22.482 39.2889 21.822H39.2879Z" fill="#FFD7CD"/>
<path d="M39.991 36.951C39.969 37.367 40.061 40.854 40.085 42.168H39.106V36.888H39.993C39.993 36.91 39.99 36.929 39.99 36.95L39.991 36.951Z" fill="#FFA4A4"/>
<path d="M39.331 32.796C39.324 32.78 39.32 32.766 39.313 32.752C39.153 33.889 38.921 35.048 38.268 35.99C37.314 37.534 34.557 38.341 33.332 36.792C31.501 33.899 31.685 30.802 30.181 28.739C29.908 28.844 29.645 28.973 29.397 29.124C30.245 29.885 30.159 31.206 30.525 33.644C30.97 36.598 30.504 36.505 30.504 36.505L30.852 37.126V42.167H39.331V37.126H40.085C40.099 36.856 39.673 33.618 39.331 32.795V32.796Z" fill="#5B768C"/>
<path d="M39.198 23.119C39.97 21.884 40.268 19.466 39.803 17.807H39.801C39.169 15.285 35.504 13.836 33.63 15.864C32.642 15.48 31.488 15.953 30.848 16.76C30.608 17.04 30.418 17.368 30.266 17.704C31.466 18.217 31.538 19.939 30.149 20.179C30.525 20.394 31.279 20.985 30.898 21.664C31.101 21.387 31.484 21.298 31.762 21.506V21.43C32.679 20.972 33.595 20.055 33.824 18.909C35.428 21.201 37.722 21.12 38.423 21.139L38.407 21.162V21.487C38.74 21.256 39.183 21.465 39.335 21.822C39.51 22.233 39.398 22.732 39.198 23.119Z" fill="#CA7B88"/>
<path d="M30.136 36.889H29.124V42.169H31.619V36.889H30.136Z" fill="#FFD7CD"/>
<path d="M28.954 42.169V36.889H31.618V37.489C29.211 37.128 29.865 42.169 29.865 42.169H28.954Z" fill="#FFA4A4"/>
<path d="M19.92 36.889H18.506V42.169H20.791V36.889H19.92Z" fill="#FFD7CD"/>
<path d="M20.79 42.169V36.889H18.505V37.489C20.57 37.128 20.009 42.169 20.009 42.169H20.791H20.79Z" fill="#FFA4A4"/>
<path d="M29.229 37.127H29.238V42.168H29.229V37.127Z" fill="#B4DFFF"/>
<path d="M30.169 20.179C31.72 19.869 31.403 17.979 30.029 17.603C30.562 16.306 29.229 15.016 27.918 15.371C27.668 14.359 26.306 13.923 25.471 14.525C24.639 13.452 22.756 13.563 22.075 14.74C21.108 14.108 19.609 14.758 19.529 15.934C18.362 16.021 17.966 17.388 18.315 18.358C18.386 18.608 18.521 18.887 18.785 18.954C17.942 19.399 18.255 20.549 18.911 21.035C18.133 21.943 18.537 22.778 19.42 23.132C19.434 23.185 19.058 23.836 19.516 24.523C19.807 24.958 20.135 25.075 20.662 24.981C20.771 25.933 21.548 26.126 22.257 25.898C21.767 25.321 22.357 24.131 22.357 23.317C22.357 23.317 23.683 21.978 23.843 21.982C24.072 21.989 27.193 22.268 27.337 21.982C27.534 21.991 28.43 23.253 28.212 23.246L27.928 23.305C27.928 23.305 27.958 24.91 27.681 25.391C28.348 25.907 29.447 25.41 29.088 24.49C30.316 24.51 30.92 22.922 30.321 22.244C30.578 22.186 30.773 21.891 30.919 21.662C31.299 20.983 30.546 20.392 30.17 20.177L30.169 20.179Z" fill="#54423B"/>
<path d="M36.47 22.453C36.917 22.446 36.917 23.835 36.47 23.828C36.023 23.835 36.023 22.446 36.47 22.453Z" fill="#594449"/>
<path d="M33.72 22.453C34.167 22.446 34.167 23.835 33.72 23.828C33.273 23.835 33.273 22.446 33.72 22.453Z" fill="#594449"/>
<path d="M31.3331 33.704C30.7071 29.817 29.6961 28.125 26.3921 28.19V28.433C26.2181 28.787 25.1611 29.433 24.2521 28.955C23.9661 28.848 23.6201 28.432 23.6421 28.433V28.19C23.4501 28.18 22.9611 28.206 22.8401 28.236C22.9241 28.421 23.6461 29.417 23.6051 29.62C23.6241 30.103 22.9261 30.309 22.6811 29.881L22.6741 29.886C23.0091 30.435 22.1831 30.956 21.8311 30.415C22.1571 30.967 21.3171 31.476 20.9791 30.926C21.2701 31.369 20.6771 31.913 20.2621 31.588C19.9941 31.329 19.6511 30.618 19.4371 30.316C19.4391 30.27 18.5581 32.341 18.4651 33.689C18.1171 36.656 18.2361 37.126 18.2361 37.126H20.7591V42.167H29.0061L29.1491 37.076C29.8751 37.076 30.8631 37.126 31.5891 37.126C31.5891 37.126 31.7771 36.656 31.3331 33.702V33.704Z" fill="#AEDEFF"/>
<path d="M23.421 29.375C23.195 29.025 22.622 28.064 22.408 27.725C22.408 27.725 22.051 27.141 21.517 27.342C21.478 27.356 19.301 28.644 19.145 28.829C18.584 29.436 19.181 30.05 19.537 30.674C19.629 30.785 20.022 31.545 20.151 31.602C20.567 31.926 21.159 31.383 20.868 30.94C21.207 31.49 22.046 30.981 21.72 30.429C22.065 30.933 22.782 30.526 22.626 29.967C23.021 30.411 23.734 29.879 23.421 29.374V29.375Z" fill="#FFD7CD"/>
<path d="M31.911 22.629C31.952 21.961 31.228 21.623 31.38 21.87C31.636 21.952 31.776 22.205 31.811 22.459C31.631 22.45 31.485 22.642 31.485 22.874C31.485 23.104 31.628 23.29 31.803 23.29C31.927 23.29 31.963 22.872 31.911 22.628V22.629Z" fill="#FFA4A4"/>
<path d="M38.795 21.843C38.441 21.953 38.291 22.339 38.286 22.682C38.234 22.926 38.269 23.344 38.394 23.344C38.569 23.344 38.712 23.158 38.712 22.928C38.712 22.696 38.567 22.503 38.386 22.513C38.421 22.259 38.561 22.006 38.817 21.924C38.867 21.907 38.846 21.826 38.795 21.844V21.843Z" fill="#FFA4A4"/>
<path d="M35.17 23.392C35.077 23.707 35.255 23.978 35.418 24.227C35.318 24.339 35.203 24.444 35.098 24.555C35.023 24.631 35.14 24.749 35.216 24.673C35.332 24.531 35.514 24.425 35.583 24.253C35.589 24.067 35.391 23.951 35.346 23.777C35.309 23.666 35.304 23.551 35.331 23.437C35.356 23.333 35.196 23.289 35.171 23.393L35.17 23.392Z" fill="#FFA4A4"/>
<path d="M34.244 25.356C34.399 26.159 35.936 26.12 36.21 25.398C36.253 25.301 36.11 25.216 36.066 25.314C35.825 25.907 34.634 25.974 34.41 25.356C34.408 25.249 34.242 25.249 34.244 25.356Z" fill="#FFA4A4"/>
<path d="M29.0901 21.822C28.9381 21.465 28.4951 21.256 28.1621 21.487V21.162L28.1141 21.114C27.6211 21.613 26.7371 21.243 26.7251 20.571C26.5531 21.439 25.0711 21.573 24.7661 20.734C24.8111 21.554 23.2051 21.755 23.0611 20.954C22.8531 21.282 22.4741 21.497 22.0851 21.497C21.9151 21.497 21.7461 21.46 21.5921 21.392C21.5651 21.403 21.5401 21.42 21.5161 21.431V21.507C20.0591 20.832 20.2241 23.733 21.5161 23.601C21.4581 25.022 22.2911 26.293 23.5671 26.83V28.434C24.2681 29.504 25.8921 29.156 26.3171 28.434C26.3171 27.963 26.3171 27.212 26.3171 26.734C27.4821 26.157 28.2171 24.917 28.1621 23.604C28.9911 23.622 29.3491 22.483 29.0901 21.823V21.822Z" fill="#FFD7CD"/>
<path d="M36.606 26.733C35.788 27.159 34.705 27.198 33.856 26.829V28.433C33.864 28.443 33.9 28.499 33.965 28.574C34.506 28.643 34.97 28.342 35.4 28.059C35.784 27.838 36.22 27.722 36.606 27.503V26.732V26.733Z" fill="#FFA4A4"/>
<path d="M29.8129 15.876C30.1659 16.247 30.3219 16.772 30.2419 17.262L30.1689 17.253C29.0699 18.255 27.5879 18.837 26.1569 19.205C23.5689 19.638 19.7809 19.119 19.2159 16.043C19.3509 15.981 19.4979 15.942 19.6509 15.935C19.7309 14.759 21.2299 14.109 22.1969 14.741C22.8779 13.563 24.7609 13.453 25.5929 14.526C26.4289 13.923 27.7909 14.36 28.0399 15.372C28.6679 15.216 29.3809 15.418 29.8139 15.876H29.8129Z" fill="#60544E"/>
<path d="M26.2 22.472C26.647 22.465 26.647 23.854 26.2 23.847C25.753 23.854 25.753 22.465 26.2 22.472Z" fill="#594449"/>
<path d="M23.45 22.472C23.897 22.465 23.897 23.854 23.45 23.847C23.003 23.854 23.003 22.465 23.45 22.472Z" fill="#594449"/>
<path d="M21.584 22.725C21.611 22.085 20.899 21.77 21.052 22.011C21.302 22.086 21.448 22.326 21.482 22.575C21.303 22.563 21.157 22.751 21.157 22.972C21.157 23.192 21.3 23.371 21.475 23.371C21.606 23.371 21.627 22.958 21.584 22.726V22.725Z" fill="#FFA4A4"/>
<path d="M28.534 21.93C28.188 22.031 28.028 22.401 28.026 22.737C27.974 22.971 28.01 23.369 28.134 23.369C28.552 23.37 28.547 22.556 28.127 22.574C28.161 22.325 28.307 22.086 28.557 22.01C28.608 21.993 28.586 21.913 28.535 21.93H28.534Z" fill="#FFA4A4"/>
<path d="M24.759 23.578C24.764 23.806 24.865 24.018 24.997 24.2C25.023 24.236 25.028 24.231 24.997 24.262C24.923 24.334 24.847 24.404 24.772 24.474C24.697 24.544 24.812 24.665 24.89 24.592C25.012 24.461 25.309 24.304 25.132 24.103C25.022 23.948 24.93 23.772 24.926 23.578C24.924 23.471 24.757 23.471 24.76 23.578H24.759Z" fill="#FFA4A4"/>
<path d="M24.1039 25.313C24.4949 25.753 25.3779 25.722 25.7709 25.288C25.8399 25.207 25.7229 25.089 25.6529 25.17C25.3559 25.505 24.8359 25.507 24.4419 25.365C24.3669 25.336 24.2769 25.291 24.2469 25.229C24.2009 25.132 24.0569 25.217 24.1029 25.313H24.1039Z" fill="#FFA4A4"/>
<path d="M26.29 27.627V26.733C25.48 27.16 24.385 27.197 23.54 26.829V26.901C24.324 27.517 25.299 27.846 26.29 27.786V27.626V27.627Z" fill="#FFA4A4"/>
<path d="M23.421 29.375L22.729 28.25C22.453 27.835 22.122 26.923 21.256 27.478C22.194 28.961 20.884 30.175 19.537 30.675C19.628 30.793 20.023 31.541 20.151 31.603C20.567 31.928 21.16 31.383 20.868 30.941C21.207 31.491 22.046 30.982 21.72 30.43C22.065 30.934 22.782 30.527 22.626 29.968C23.021 30.412 23.734 29.88 23.421 29.375Z" fill="#FFA4A4"/>
<path d="M29.894 36.308C29.928 35.118 29.702 33.944 29.211 32.855C30.119 40.952 19.453 40.19 20.68 32.495L20.636 32.477C19.945 33.912 19.941 35.521 19.891 37.078H20.679V42.119H29.149V37.078H29.901C29.899 36.821 29.896 36.565 29.894 36.308Z" fill="#63BAF5"/>
<path d="M23.198 28.223C23.318 28.22 23.45 28.221 23.569 28.221V28.464C23.59 28.489 23.771 28.792 24.179 28.986C24.663 31.291 20.742 32.761 20.189 31.619C20.605 31.944 21.197 31.399 20.906 30.957C21.245 31.507 22.084 30.998 21.758 30.446C22.111 30.987 22.936 30.465 22.601 29.917L22.608 29.912C22.853 30.34 23.55 30.134 23.531 29.651C23.574 29.453 22.846 28.445 22.766 28.267C22.766 28.267 23.064 28.223 23.197 28.223H23.198Z" fill="#63BAF5"/>
<path d="M33.818 19.015C33.589 20.161 32.672 21.077 31.756 21.536C31.756 21.559 33.587 20.918 33.925 19.597C34.464 20.335 36.009 21.801 38.417 21.245C37.515 21.223 35.257 21.071 33.818 19.015Z" fill="#FFA4A4"/>
<path d="M36.688 28.079V26.841C37.808 26.256 38.547 25.03 38.528 23.769C40.215 23.289 40.38 19.403 39.907 17.8C39.224 15.19 35.529 13.787 33.583 15.76C32.238 15.292 30.742 16.32 30.205 17.577C30.2 17.575 30.195 17.573 30.189 17.571C30.618 16.26 29.315 15.001 28.004 15.271C27.674 14.294 26.37 13.873 25.497 14.409C24.609 13.393 22.791 13.498 22.04 14.621C21.026 14.067 19.588 14.705 19.424 15.866C18.041 16.064 17.667 18.035 18.534 19.017C17.903 19.565 18.121 20.547 18.733 21.085C18.094 21.907 18.378 22.883 19.273 23.237C18.94 23.899 19.401 25.352 20.551 25.167C20.776 26.079 21.467 26.268 22.221 26.084C22.545 26.453 22.947 26.741 23.39 26.943V28.077C23.211 28.077 22.917 28.081 22.78 28.088C22.479 27.534 22.004 26.828 21.19 27.369C20.729 27.626 19.235 28.525 19.047 28.749C18.576 29.26 18.826 29.835 19.17 30.326C18.695 31.202 18.37 32.404 18.229 33.681C17.889 36.582 17.991 37.108 18.004 37.158C18.031 37.325 18.351 37.24 18.457 37.26C18.483 37.507 18.438 41.763 18.457 42.153C18.457 42.228 18.517 42.288 18.592 42.288H20.649H39.392H41.218C41.293 42.288 41.353 42.227 41.353 42.153V37.26H41.876C41.929 37.26 41.978 37.229 41.999 37.18C42.196 33.382 41.191 27.601 36.688 28.077V28.079ZM39.217 22.688C38.892 23.927 38.174 23.173 38.258 23.796C38.078 28.008 32.078 28.011 31.9 23.796C31.953 23.271 31.558 23.691 31.211 23.289C30.908 22.973 30.763 22.292 30.931 21.923C31.066 21.63 31.401 21.452 31.674 21.649C31.761 21.741 31.93 21.676 31.915 21.546C32.691 21.133 33.56 20.344 33.883 19.269C35.413 21.247 37.456 21.3 38.267 21.314C38.272 21.408 38.214 21.607 38.336 21.652C38.444 21.701 38.545 21.572 38.648 21.571C39.223 21.556 39.359 22.177 39.217 22.688ZM36.418 26.972V28.412C35.925 29.139 34.494 29.246 33.946 28.412V27.051C34.741 27.333 35.648 27.305 36.418 26.971V26.972ZM26.404 27.651C26.404 27.651 26.404 26.843 26.404 26.842C26.936 26.563 27.402 26.127 27.719 25.614C28.431 26.045 29.456 25.528 29.261 24.657C30.051 24.562 30.707 23.747 30.673 23.027C30.895 23.363 31.199 23.761 31.63 23.771C31.607 25.12 32.442 26.399 33.676 26.945V28.08C31.991 28.107 30.742 28.298 29.5 28.982C28.587 28.208 27.477 28.085 26.404 28.08C26.404 28.079 26.404 27.653 26.404 27.652V27.651ZM30.477 17.644C30.97 16.501 32.379 15.562 33.58 16.046C33.636 16.068 33.701 16.049 33.737 16.001C35.242 14.364 38.089 15.129 39.227 16.929C40.108 18.351 39.988 20.471 39.522 22.071C39.462 21.624 39.039 21.188 38.54 21.317C38.798 20.614 35.89 21.746 33.935 18.878C33.873 18.782 33.71 18.815 33.692 18.929C33.457 20.104 32.509 20.947 31.699 21.355C31.52 21.274 31.323 21.274 31.141 21.352C31.162 20.865 30.79 20.505 30.489 20.282C31.656 19.802 31.545 18.249 30.452 17.694C30.461 17.677 30.469 17.659 30.478 17.642L30.477 17.644ZM21.74 25.873C21.241 25.904 20.903 25.613 20.809 25.014C20.809 24.974 20.791 24.936 20.761 24.91C20.731 24.884 20.69 24.873 20.65 24.881C19.616 25.146 19.24 23.855 19.54 23.295C19.726 22.939 18.994 22.992 18.737 22.44C18.544 22.054 18.732 21.435 19.017 21.18C19.078 21.128 19.076 21.027 19.015 20.977C18.415 20.496 18.114 19.569 18.859 19.126C18.974 19.077 18.953 18.899 18.834 18.873C18.63 18.821 18.519 18.573 18.462 18.373C18.139 17.383 18.488 16.246 19.549 16.127C19.617 16.124 19.672 16.071 19.678 16.004C19.722 15.514 20.051 15.057 20.515 14.839C20.985 14.618 21.572 14.648 22.012 14.917C22.076 14.956 22.159 14.936 22.198 14.872C22.514 14.357 23.099 14.013 23.726 13.974C24.342 13.933 24.986 14.208 25.365 14.672C25.409 14.726 25.488 14.738 25.546 14.698C26.306 14.153 27.555 14.541 27.78 15.465C27.799 15.536 27.872 15.579 27.943 15.561C29.004 15.275 30.181 16.177 29.973 17.297C29.888 17.71 29.758 17.722 30.213 17.878C31.307 18.344 31.366 19.879 30.143 20.09C30.085 20.095 30.037 20.136 30.023 20.193C30.009 20.25 30.033 20.308 30.082 20.339C30.86 20.779 31.204 21.496 30.398 22.083C30.371 22.093 30.321 22.16 30.299 22.151C30.187 22.153 30.13 22.297 30.206 22.377C30.709 22.96 30.212 24.389 29.089 24.391C29.041 24.388 28.995 24.408 28.967 24.447C28.939 24.486 28.934 24.537 28.954 24.581C29.066 24.827 29.006 25.136 28.809 25.331C28.62 25.516 28.022 25.544 27.853 25.374C28.112 24.881 28.248 24.328 28.243 23.768C29.462 23.655 29.705 21.103 28.243 21.32C28.242 21.292 28.247 21.191 28.237 21.166C28.399 21 28.544 20.513 28.229 20.502C28.156 20.52 28.112 20.593 28.129 20.665C28.175 21.066 27.714 21.271 27.406 21.254C26.651 21.083 26.943 20.484 26.675 20.475C26.608 20.475 26.554 20.526 26.542 20.589C26.379 21.321 25.124 21.438 24.849 20.731C24.803 20.584 24.57 20.631 24.586 20.786C24.601 21.342 23.753 21.47 23.344 21.259C23.234 21.196 23.16 21.09 23.156 20.989C23.156 20.861 22.972 20.812 22.907 20.922C22.76 21.152 22.524 21.318 22.256 21.377C21.894 21.459 21.214 21.28 21.253 20.837C21.248 20.435 20.701 20.764 21.139 21.294C20.173 21.351 20.148 22.588 20.563 23.252C20.718 23.533 21.036 23.755 21.345 23.769C21.34 24.518 21.582 25.25 22.029 25.847C21.943 25.86 21.845 25.869 21.74 25.872V25.873ZM23.201 26.54C22.183 25.965 21.56 24.801 21.617 23.636C21.6 23.36 21.101 23.684 20.795 23.111C20.602 22.803 20.498 22.212 20.65 21.918C20.765 21.644 21.119 21.449 21.393 21.651C21.461 21.714 21.584 21.679 21.609 21.591C22.076 21.766 22.634 21.641 22.975 21.273C23.362 21.824 24.49 21.719 24.779 21.129C25.294 21.652 26.195 21.579 26.643 21.009C26.88 21.474 27.511 21.689 27.973 21.385C27.969 21.497 27.957 21.67 28.117 21.663C29.346 21.107 29.171 23.527 28.147 23.503C27.958 23.48 27.967 23.664 27.973 23.796C28.011 26.184 25.249 27.801 23.2 26.54H23.201ZM26.134 27.65C26.134 27.65 26.134 28.411 26.134 28.412C25.741 29.033 24.312 29.342 23.662 28.412V27.051C24.457 27.333 25.364 27.305 26.134 26.971V27.649V27.65ZM19.256 28.924C19.385 28.771 20.675 27.968 21.323 27.607C21.457 27.536 21.6 27.44 21.74 27.447C22.2 27.508 22.261 27.798 22.394 27.972L23.301 29.45C23.551 29.848 22.926 30.231 22.684 29.829L22.119 28.908C22.029 28.756 21.787 28.904 21.882 29.054C21.939 29.183 22.536 30.024 22.5 30.163C22.511 30.516 22.018 30.658 21.835 30.36L21.301 29.491C21.23 29.279 20.939 29.355 21.031 29.567L21.604 30.5C21.845 30.895 21.22 31.269 20.986 30.871C20.878 30.702 20.517 30.104 20.416 29.944C20.326 29.793 20.091 29.939 20.186 30.086C20.232 30.195 20.852 31.085 20.808 31.199C20.819 31.554 20.317 31.697 20.137 31.389L19.239 29.921C19.023 29.578 18.964 29.252 19.255 28.922L19.256 28.924ZM20.514 42.019H18.727C18.727 41.591 18.727 37.556 18.727 37.261H20.514V42.019ZM31.383 42.019C31.09 42.019 29.568 42.019 29.243 42.019V37.261H31.44C31.421 38.847 31.402 40.433 31.383 42.019ZM31.485 36.991H29.242V32.439C29.245 32.265 28.969 32.263 28.972 32.439V42.019H20.785V32.555C20.785 32.48 20.724 32.42 20.65 32.42C20.576 32.42 20.515 32.481 20.515 32.555V36.991H18.255C18.147 36.572 18.571 31.776 19.338 30.602C19.452 30.755 19.912 31.627 20.075 31.711C20.447 32 21.032 31.74 21.074 31.274C21.444 31.422 21.884 31.148 21.92 30.753C22.284 30.903 22.738 30.628 22.766 30.228C23.155 30.395 23.639 30.069 23.624 29.638C23.662 29.375 23.053 28.582 22.945 28.356C23.078 28.351 23.261 28.347 23.391 28.347C23.359 28.7 23.921 29.017 24.075 29.097C25.019 29.614 26.441 28.9 26.404 28.348C27.623 28.351 28.61 28.525 29.424 29.273C30.867 30.085 31.717 35.901 31.485 36.99V36.991ZM41.083 42.019H39.527V37.261H41.083V42.019ZM41.77 36.991H39.527V32.439C39.53 32.265 39.254 32.263 39.257 32.439V42.019H31.683C31.604 38.426 32.478 32.351 29.709 29.172C30.884 28.553 32.073 28.372 33.676 28.348C33.67 28.877 34.663 29.315 35.182 29.276C36.218 29.239 36.745 28.562 36.688 28.348C40.855 27.852 41.826 33.137 41.769 36.991H41.77Z" fill="#3F3436"/>
</svg>
