<svg width="59" height="57" viewBox="0 0 59 57" fill="none" xmlns="http://www.w3.org/2000/svg">
<path d="M58.5 28.5C58.5 43.9479 45.5326 56.5 29.5 56.5C13.4673 56.5 0.5 43.9479 0.5 28.5C0.5 13.0521 13.4673 0.5 29.5 0.5C45.5326 0.5 58.5 13.0521 58.5 28.5Z" stroke="#B0B3FB"/>
<path d="M31.675 33.717C31.752 34.014 31.841 34.31 31.929 34.607L31.909 34.676C31.404 34.498 30.914 34.398 30.382 34.368C29.548 34.333 28.918 34.116 28.124 33.925C28.132 33.832 27.381 33.114 26.484 32.17C27.165 32.331 30.754 33.498 31.635 33.552C31.646 33.608 31.661 33.663 31.675 33.718V33.717Z" fill="#60544E"/>
<path d="M31.992 26.253C31.064 26.754 30.833 28.795 32.267 28.517C33.866 28.278 33.107 26.208 31.8 26.259" fill="#FFA4A4"/>
<path d="M39.043 24.822C38.961 24.791 37.224 22.785 37.352 19.973C35.698 21.012 31.87 20.338 31.635 20.461C31.635 20.461 31.739 24.867 31.675 25.883C31.614 26.854 32.164 27.618 33.071 27.798C33.872 27.956 36.472 27.931 36.544 27.907C36.64 27.877 38.061 27.113 38.089 26.795C38.101 26.661 38.67 26.568 39.013 26.114C39.491 25.481 39.211 24.886 39.043 24.822Z" fill="#FFD4C3"/>
<path d="M32.139 21.14C32.113 21.105 32.058 21.143 32.084 21.178C32.246 21.378 32.238 21.661 32.136 21.888C31.81 21.63 31.388 22.332 31.717 22.537C31.818 22.607 32.066 22.268 32.135 22.047C32.289 21.773 32.349 21.402 32.139 21.141V21.14Z" fill="#FFA4A4"/>
<path d="M21.322 23.167C20.932 23.284 20.252 23.934 20.098 24.331C19.915 25.379 20.018 26.565 20.581 27.484C20.579 27.488 20.583 27.485 20.583 27.485C20.776 27.793 21.021 28.07 21.324 28.254C21.394 27.421 21.57 26.591 21.847 25.805C21.866 25.81 21.888 25.815 21.909 25.822C21.674 24.948 21.458 24.063 21.322 23.168V23.167Z" fill="#FFD7CD"/>
<path d="M38.7649 25.302C38.4339 25.237 38.1539 25.483 37.9979 25.756C37.8479 25.932 37.6919 26.322 37.7999 26.381C38.1599 26.583 38.5069 25.816 38.1299 25.671C38.4079 25.224 38.9049 25.435 38.7649 25.303V25.302Z" fill="#FFA4A4"/>
<path d="M34.588 23.888C34.516 23.888 34.452 23.835 34.436 23.759C34.355 23.565 33.817 23.235 33.586 23.254C33.392 23.329 33.299 23.01 33.486 22.944C33.563 22.869 34.077 23.026 34.213 23.126C34.356 23.199 35.048 23.753 34.587 23.888H34.588Z" fill="#594449"/>
<path d="M37.064 25.357C36.992 25.357 36.928 25.304 36.912 25.228C36.883 25.16 36.684 24.968 36.537 24.881C36.393 24.796 36.127 24.712 36.062 24.723C35.981 24.754 35.896 24.709 35.867 24.624C35.81 24.177 36.548 24.509 36.69 24.595C36.833 24.668 37.525 25.222 37.064 25.357Z" fill="#594449"/>
<path d="M34.7909 24.841C34.5629 25.03 34.3009 25.187 34.0889 25.391C34.0119 25.526 34.1839 25.644 34.2719 25.665C34.3549 25.899 34.5729 25.588 34.2629 25.485C34.2529 25.481 34.2159 25.451 34.2249 25.455C34.2089 25.507 34.2699 25.435 34.2819 25.43C34.4779 25.281 34.6729 25.131 34.8689 24.982C34.9529 24.931 34.8789 24.785 34.7909 24.841Z" fill="#FFA4A4"/>
<path d="M33.1239 25.624C33.3629 26.729 34.9539 26.893 34.5209 26.541C33.9489 26.551 33.4369 26.159 33.2739 25.581C33.2459 25.48 33.0949 25.523 33.1239 25.625V25.624Z" fill="#FFA4A4"/>
<path d="M38.762 24.115C38.295 23.671 37.225 22.785 37.352 19.974C36.184 20.708 32.783 20.825 32.747 20.953C32.465 21.959 35.441 22.066 36.511 21.148C36.547 21.117 36.599 21.13 36.602 21.179C36.655 21.986 36.557 23.767 38.377 24.778C38.726 24.971 38.854 24.204 38.761 24.116L38.762 24.115Z" fill="#FFA4A4"/>
<path d="M20.583 27.484C20.583 27.484 20.579 27.487 20.581 27.483C20.06 26.67 19.986 25.667 20.035 24.721C20.022 24.287 20.292 23.95 20.602 23.67L20.614 23.683C20.554 24.797 20.662 26.182 21.516 26.975C21.424 27.396 21.36 27.824 21.324 28.254C21.022 28.07 20.776 27.794 20.583 27.485V27.484Z" fill="#FFA4A4"/>
<path d="M31.692 27.862C31.756 26.025 32.345 19.735 30.68 17.504C29.177 15.91 28.406 15.605 26.646 16.339C25.681 16.654 25.789 15.418 23.81 16.053C21.913 16.878 21.256 19.161 21.182 21.082C21.166 21.76 21.279 22.041 21.231 22.719L22.006 25.901C22.549 26.641 22.036 37.904 21.282 38.827C21.082 39.859 21.509 41.064 21.842 42.056C24.575 42.033 28.16 42.038 31.803 42.03L31.845 42.193C35.385 40.838 31.344 27.834 31.69 27.862H31.692Z" fill="#453A35"/>
<path d="M31.859 21.679H31.848C31.348 20.29 30.814 18.904 29.25 18.482C28.477 18.252 27.642 18.3 26.874 18.552C26.649 18.624 26.425 18.716 26.189 18.7C25.716 18.671 25.363 18.23 24.915 18.072C23.743 17.778 22.462 18.299 21.648 19.195L21.594 19.178C22.029 17.642 23.109 16.053 24.83 15.982C25.301 15.998 25.704 16.09 26.097 16.366C26.201 16.439 26.306 16.524 26.43 16.538C26.967 16.463 27.468 16.156 28.013 16.09C28.88 15.94 29.797 16.579 30.679 17.504C31.526 18.421 31.754 20.331 31.858 21.679H31.859Z" fill="#60544E"/>
<path d="M38.665 27.493C38.58 27.133 37.956 26.795 37.532 26.706C37.532 26.706 37.412 26.847 36.956 27.479C36.741 27.777 36.377 27.91 36.022 27.91C35.298 27.92 34.109 27.868 32.886 27.787C29.048 27.68 25.357 26.578 21.784 25.711C21.398 26.804 21.208 27.977 21.23 29.136C22.203 29.395 25.836 30.207 26.834 30.598C29.444 31.57 33.932 32.901 36.57 31.781C36.975 32.148 37.455 32.448 37.73 32.94C38.302 31.691 39.146 29.26 38.663 27.494L38.665 27.493Z" fill="#B4DFFF"/>
<path d="M37.6879 30.625C37.6459 30.497 37.2569 30.367 37.1589 30.456C36.6269 30.944 35.8209 31.022 35.0939 31.036C31.6749 31.259 28.4669 30.011 25.2819 28.947C23.9419 28.601 22.7489 27.776 21.3579 27.64C21.3319 27.818 21.3099 27.996 21.2969 28.176C20.9949 27.992 20.7489 27.716 20.5559 27.407C20.5559 27.407 20.5519 27.41 20.5539 27.406C19.9259 28.409 19.3209 29.785 20.1349 31.257C20.4679 31.943 20.7439 33.078 20.9389 33.266C21.2959 33.608 21.5809 34.252 21.9929 34.519C22.1069 34.593 22.8069 33.974 23.4479 34.366C24.4439 34.98 25.8399 35.842 26.8989 36.528C27.2819 36.203 27.5909 35.812 27.7859 35.395C26.3729 34.872 25.0949 34.098 23.8749 33.2C23.6399 33.035 23.4049 32.869 23.1839 32.681C22.5249 32.123 27.0769 32.818 27.1259 32.833C26.3159 32.003 24.6469 30.278 24.2059 29.898L24.2129 29.87C26.7699 30.42 27.9799 31.184 30.2729 31.664C30.6329 31.745 30.9929 31.825 31.3559 31.896C32.1239 32.054 32.7789 32.482 33.5619 32.516C34.5559 32.559 35.5289 34.888 36.2339 34.619C36.2459 34.632 37.4949 33.603 37.4049 32.869C37.3529 32.997 37.9969 31.479 37.6879 30.624V30.625Z" fill="#7EAED9"/>
<path d="M28.124 33.926C28.171 34.13 28.272 34.788 27.911 35.553C26.498 35.03 25.22 34.256 24 33.358C23.021 32.725 22.233 31.823 21.844 30.695C22.757 31.094 24.313 31.62 26.485 32.17C27.382 33.115 28.132 33.831 28.125 33.925L28.124 33.926Z" fill="#B4DFFF"/>
<path d="M22.344 33.769C21.367 33.07 20.943 32.727 20.259 31.414C19.251 32.14 19.155 32.628 19.343 33.864C19.411 34.471 19.587 35.095 19.733 35.624C20.23 37.414 20.219 40.531 20.226 41.749C20.228 42.035 20.587 42.045 20.858 42.045H22.491C21.489 41.096 22.881 34.42 23.572 34.522C22.931 34.13 22.458 33.841 22.344 33.768V33.769Z" fill="#EB6CAE"/>
<path d="M40.758 22.071C40.84 20.937 40.581 19.793 39.513 19.218C38.902 18.836 38.172 18.851 37.491 18.831C37.422 18.79 37.406 18.697 37.385 18.618C37.219 17.985 36.492 17.739 35.871 17.706C34.228 17.578 32.532 18.433 31.444 19.598C31.523 19.994 31.623 20.78 31.623 20.78C32.633 20.313 32.419 21.3 32.552 21.123C32.571 21.054 32.644 21.021 32.706 21.051C32.706 21.051 35.27 21.465 36.65 20.374C36.716 20.322 36.842 20.412 36.825 20.497C36.775 20.483 36.957 23.57 38.576 24.524C38.66 24.452 39.205 24.928 39.326 25.357C39.46 25.833 38.211 26.949 37.99 26.791C37.952 32.162 37.496 32.757 37.496 32.757C35.553 35.308 36.807 36.998 38.537 35.961C38.784 35.354 39.227 31.066 38.947 29.555C38.831 28.935 38.913 28.557 39.017 28.102C39.935 25.381 40.942 25.372 40.758 22.072V22.071Z" fill="#453A35"/>
<path d="M40.8029 22.802C40.5709 23.226 38.5619 22.567 38.2579 22.26C37.4889 21.722 37.4209 21.044 37.1119 20.257C36.9119 19.937 36.5089 19.878 36.1549 19.831C35.1619 19.747 33.9429 19.093 34.0839 17.938C35.1319 17.65 36.9579 17.356 37.4359 18.617C37.4559 18.767 37.545 18.89 37.705 18.852C38.992 18.704 40.4209 19.4 40.7309 20.742C40.8669 21.417 40.7849 22.117 40.8019 22.801L40.8029 22.802Z" fill="#60544E"/>
<path d="M40.529 32.23C40.531 31.988 39.152 32.364 39.152 32.364C38.893 33.555 37.541 37.541 38.202 36.58C38.43 36.249 35.002 32.394 33.801 32.331C33.019 32.29 32.249 32.211 31.481 32.053C31.416 32.611 31.547 33.174 31.675 33.717C31.752 34.014 31.841 34.31 31.929 34.607L31.909 34.676C32.217 34.787 32.533 34.925 32.864 35.095C33.146 35.239 33.182 35.994 33.055 35.928C32.838 35.816 32.62 35.705 32.404 35.597C33.214 36.272 33.934 36.253 32.043 36.279C32.22 36.506 33.277 37.119 33.416 37.518C33.478 37.705 33.33 37.773 33.172 37.775C32.7 37.807 32.163 37.2 31.829 37.091C32.027 37.338 33.575 38.667 32.501 38.55C32.465 39.79 32.214 40.865 31.805 42.031C31.805 42.031 33.662 42.134 34.158 42.125C34.384 42.121 34.52 42.032 34.575 41.801C34.742 41.104 34.874 39.647 34.985 38.819C35.007 38.652 35.19 38.572 35.319 38.67C38.467 41.335 40.091 42.727 40.529 32.231V32.23Z" fill="#EB6CAE"/>
<path d="M40.3809 32.121C40.2029 31.182 39.7389 30.215 39.0359 29.576C39.0089 29.548 38.9699 29.573 38.9729 29.612C39.0379 30.371 39.0149 31.367 39.0069 32.277C39.4649 32.248 39.9269 32.182 40.3839 32.143L40.3819 32.121H40.3809Z" fill="#FFD4C3"/>
<path d="M39.099 32.314C39.008 32.732 38.875 33.525 38.652 34.285C38.443 34.996 38.144 35.673 38.042 36.138C37.433 35.111 34.837 32.335 33.811 32.282C33.029 32.241 32.195 32.162 31.427 32.004C31.334 32.885 31.642 33.717 31.875 34.558C31.346 34.784 30.799 37.861 32.337 37.864C32.581 37.859 32.447 38.5 32.447 38.5C32.42 39.738 31.751 41.981 31.751 41.981C32.042 41.981 32.531 41.992 32.853 41.989C33.903 39.837 33.391 38.08 33.402 35.389C33.412 34.746 33.955 34.525 34.489 34.857C35.636 35.486 36.277 36.8 37.243 37.707C38.316 38.775 39.138 37.801 39.213 36.602C39.414 35.238 39.768 32.334 39.771 32.254L39.099 32.315V32.314Z" fill="#BC498B"/>
<path d="M32.4681 35.597C32.4371 35.658 33.1171 36.018 33.3391 36.187C33.3411 36.134 33.3441 36.081 33.3481 36.028C33.0441 35.911 32.7621 35.734 32.4681 35.597Z" fill="#BC498B"/>
<path d="M33.4011 37.375C33.3851 37.228 33.3711 37.082 33.3601 36.936C32.9411 36.771 32.3061 36.271 32.1071 36.279C32.2591 36.469 33.1291 37.009 33.4011 37.375Z" fill="#BC498B"/>
<path d="M33.16 35.969C32.926 35.807 32.306 35.468 32.344 35.418C32.692 35.562 33.017 35.836 33.397 35.88C33.538 35.877 33.72 35.664 33.57 35.422C33.4 35.145 33.086 35.06 32.804 34.916C31.998 34.5 31.213 34.236 30.322 34.189C29.487 34.154 28.858 33.937 28.064 33.746C28.216 34.095 28.05 35.374 27.47 35.983C28.278 37.029 29.519 37.446 30.776 37.559C31.207 37.604 31.685 37.639 31.981 37.973C32.108 38.129 32.228 38.322 32.441 38.37C32.589 38.412 32.798 38.396 32.82 38.21C32.669 37.677 32.106 37.33 31.77 36.911C32.104 37.02 32.641 37.627 33.113 37.595C33.27 37.593 33.419 37.526 33.357 37.338C33.219 36.94 32.161 36.326 31.984 36.099C32.26 36.083 33.315 37.026 33.582 36.757C33.742 36.456 33.396 36.13 33.162 35.968L33.16 35.969Z" fill="#FFD4C3"/>
<path d="M33.297 37.399C33.359 37.587 33.211 37.654 33.053 37.656C32.581 37.688 32.044 37.081 31.71 36.972C32.047 37.391 32.609 37.738 32.76 38.271C32.737 38.456 32.531 38.474 32.381 38.431C32.168 38.383 32.048 38.19 31.921 38.034C31.625 37.7 31.148 37.665 30.716 37.62C29.453 37.505 28.223 37.093 27.41 36.044C27.573 35.837 27.699 35.632 27.79 35.434C28.252 35.634 28.655 35.965 29.117 36.157C30.495 36.571 32.037 36.526 33.275 37.354H33.278C33.286 37.369 33.292 37.384 33.295 37.398L33.297 37.399Z" fill="#FFA4A4"/>
<path d="M22.5051 38.049C22.6961 37.382 23.4161 34.874 23.4241 34.33C21.6941 33.215 21.2221 33.127 20.2171 31.276C19.9651 31.505 19.6371 31.878 19.4611 32.233C24.5961 35.043 21.0211 38.781 21.4361 42.095H22.5031C22.0931 40.806 21.8541 39.293 22.5031 38.049H22.5051Z" fill="#BC498B"/>
<path d="M39.2351 32.261C39.3831 32.246 39.5311 32.231 39.6791 32.216C39.7081 31.288 39.2761 30.434 39.0041 29.567C38.9751 30.315 39.0501 31.353 39.0081 32.277L39.2361 32.261H39.2351Z" fill="#FFA4A4"/>
<path d="M39.581 19.126C39.036 18.817 38.372 18.685 37.653 18.745C37.558 18.768 37.547 18.722 37.527 18.629C36.757 16.617 33.047 17.889 31.974 18.987C31.84 19.106 31.697 19.233 31.539 19.253C31.265 17.342 29.217 15.606 27.875 15.835C27.453 15.909 27.045 16.056 26.65 16.199C26.403 16.306 26.269 16.317 26.056 16.132C25.434 15.643 24.424 15.647 23.67 15.963C21.3 17.123 20.788 20.384 21.178 22.991C20.693 23.327 20.214 23.681 19.983 24.212C19.77 25.423 19.917 26.545 20.477 27.487C19.742 28.552 19.286 29.875 19.997 31.207C18.71 32.313 19.059 33.997 19.517 35.483C20.146 37.754 20.142 39.633 20.066 42.038C20.026 42.126 20.066 42.257 20.186 42.257C21.804 42.255 23.422 42.254 25.04 42.252C28.19 42.249 31.34 42.245 34.491 42.242C34.548 42.242 34.615 42.197 34.626 42.133C34.821 40.988 35.017 39.843 35.212 38.698C35.803 39.376 36.506 40.011 37.278 40.423C39.42 41.748 39.938 38.924 40.208 37.384C40.498 35.678 40.627 33.942 40.675 32.212C40.675 32.102 40.566 32.038 40.467 32.072C40.45 31.007 39.968 29.936 39.054 29.421C38.865 27.3 40.49 26.067 40.828 24.115C40.929 23.316 40.867 22.572 40.889 21.781C40.976 20.754 40.556 19.648 39.582 19.126H39.581ZM21.311 21.084C21.419 18.97 22.05 17.085 23.758 16.212C24.469 15.913 25.393 15.92 25.95 16.377C27.023 17.13 27.847 14.647 30.466 17.47C32.154 19.203 31.625 26.312 31.455 27.561C28.078 27.341 24.724 26.245 22.005 25.636C21.639 24.312 21.253 22.504 21.31 21.084H21.311ZM31.8 20.878C32.468 20.623 32.428 21.474 32.698 21.167C33.397 21.346 34.951 21.554 36.673 20.555C36.662 22.906 38.113 24.278 38.492 24.596C38.457 24.714 38.57 24.787 38.674 24.767C39.699 25.003 38.903 26.42 38.193 26.617C37.668 26.806 37.548 26.241 37.342 26.741C37.054 27.347 36.432 27.787 35.76 27.796C34.816 27.788 33.238 27.705 31.707 27.582C31.818 26.638 32.076 23.533 31.8 20.878ZM35.762 28.062C36.545 28.053 37.255 27.537 37.583 26.833C37.682 26.88 37.792 26.908 37.906 26.916C37.814 28.144 37.735 29.374 37.658 30.603C37.648 31.819 37.451 33.123 36.556 34.013C35.926 33.355 35.202 32.805 34.432 32.345C34.766 32.366 36.881 32.139 36.821 31.675C36.791 31.608 36.716 31.58 36.653 31.611C34.758 32.39 33.34 32.086 31.374 31.753C29.867 31.478 28.305 31.034 26.922 30.484C26.055 30.137 22.711 29.373 21.415 29.046C21.408 27.986 21.571 26.94 21.904 25.941C21.938 25.946 21.976 25.934 22.001 25.911C23.346 26.266 26.827 27.07 28.613 27.495C29.922 27.778 34.379 28.062 35.762 28.063V28.062ZM32.149 35.451C32.188 35.749 33.495 36.079 33.403 36.673C33.108 36.717 32.17 35.93 31.908 35.968C31.286 36.129 33.276 37.085 33.166 37.435C32.683 37.591 32.171 36.932 31.738 36.782C31.087 36.782 32.67 37.894 32.616 38.204C32.61 38.216 32.601 38.23 32.594 38.24C32.322 38.303 32.149 38.073 32.005 37.877C31.674 37.508 31.17 37.472 30.725 37.423C29.529 37.303 28.401 36.974 27.578 35.979C28.201 35.139 28.212 34.332 28.163 33.926C28.866 34.12 29.473 34.288 30.249 34.328C31.135 34.374 31.856 34.623 32.679 35.039C32.941 35.191 33.472 35.31 33.412 35.674C33.305 35.84 33.127 35.689 32.979 35.632L32.331 35.299C32.235 35.247 32.127 35.349 32.15 35.451H32.149ZM30.26 34.062C29.473 34.023 28.855 33.842 28.103 33.634C27.974 33.463 25.806 31.205 24.655 30.11C27.401 30.78 28.62 31.552 31.209 31.989C31.189 32.79 31.41 33.563 31.631 34.312C31.178 34.166 30.738 34.086 30.26 34.062ZM20.338 26.574C20.168 25.993 20.062 25.089 20.217 24.307C20.413 23.867 20.811 23.583 21.22 23.274C21.357 24.119 21.557 24.936 21.745 25.644C21.46 26.374 21.305 27.159 21.217 27.942C20.793 27.604 20.505 27.111 20.338 26.574ZM19.89 29.489C19.973 28.876 20.43 27.997 20.628 27.707C20.792 27.923 20.981 28.104 21.189 28.247C21.209 28.451 21.053 29.203 21.258 29.279C21.935 29.455 23.262 29.765 24.123 29.978C24.979 30.714 27.594 33.46 27.876 33.76C28.054 34.166 27.84 35.609 26.897 36.341C25.738 35.596 24.288 34.697 23.482 34.204C22.363 33.519 21.938 33.301 21.212 32.592C20.898 32.291 19.726 30.691 19.89 29.489ZM21.965 41.961C21.416 41.961 20.868 41.962 20.319 41.963C20.393 39.574 20.39 37.692 19.757 35.409C19.349 34.056 18.962 32.424 20.12 31.463C21.138 33.231 21.584 33.309 23.335 34.422C23.119 37.104 21.268 38.898 22.29 41.96C22.182 41.96 22.073 41.96 21.965 41.96V41.961ZM29.634 41.953C27.275 41.956 24.915 41.958 22.556 41.961C21.523 39.053 23.313 37.186 23.58 34.575C24.381 35.069 25.797 35.944 26.841 36.62C27.039 36.7 27.273 36.3 27.412 36.185C28.26 37.208 29.498 37.585 30.764 37.697C31.852 37.79 31.571 37.978 32.237 38.458C32.202 39.659 31.988 40.834 31.6 41.953C30.945 41.953 30.29 41.954 29.634 41.955V41.953ZM40.184 32.104C39.864 32.139 39.544 32.174 39.225 32.209C39.177 31.412 39.098 30.553 39.063 29.773C39.802 30.274 40.175 31.19 40.184 32.104ZM39.261 32.501C39.637 32.46 40.012 32.419 40.388 32.378C40.259 34.499 40.215 38.706 38.833 40.303C37.672 40.968 35.934 39.115 35.222 38.273C35.156 38.193 35.006 38.231 34.988 38.338C34.783 39.541 34.577 40.745 34.372 41.948C33.537 41.948 32.703 41.95 31.868 41.951C32.241 40.849 32.449 39.694 32.488 38.514C33.122 38.526 32.804 37.82 32.526 37.587C33.226 37.981 33.831 37.492 33.066 36.859C33.749 37.194 33.861 36.407 33.35 36.012C33.637 35.974 33.774 35.595 33.602 35.351C33.25 34.877 32.41 34.649 31.923 34.414C31.701 33.641 31.448 32.847 31.46 32.041C32.395 32.226 33.091 32.317 33.849 32.341C35.211 33.089 36.456 34.115 37.338 35.422C37.568 35.671 37.662 36.163 38.015 36.244C38.379 36.27 38.423 35.722 38.492 35.456C38.748 34.471 39.005 33.486 39.261 32.501ZM40.634 21.781C40.709 24.645 40.505 24.658 39.246 27.135C38.491 28.504 38.901 30.567 38.986 32.444C38.68 33.594 38.391 34.766 38.084 35.909C37.974 35.976 37.45 35.087 37.362 34.968C37.171 34.71 36.967 34.462 36.753 34.225C37.625 33.35 37.906 32.099 37.921 30.895C38.004 29.561 38.088 28.228 38.188 26.896C39.176 26.68 40.054 24.894 38.77 24.513C38.68 24.367 36.849 23.136 36.931 20.331C36.939 20.232 36.825 20.153 36.74 20.21C34.881 21.375 33.288 21.047 32.607 20.879C32.425 20.608 32.095 20.511 31.77 20.612C31.723 20.216 31.665 19.849 31.596 19.514C31.803 19.486 31.963 19.345 32.105 19.222C33.141 18.292 34.521 17.797 35.884 17.869C36.468 17.9 37.147 18.134 37.282 18.697C37.303 18.786 37.332 18.907 37.438 18.974C37.528 19.033 37.63 19.02 37.679 19.013C39.423 18.829 40.818 20.049 40.635 21.783L40.634 21.781Z" fill="#3F3436"/>
</svg>
