<svg width="59" height="57" viewBox="0 0 59 57" fill="none" xmlns="http://www.w3.org/2000/svg">
<path d="M58.5 28.5C58.5 43.9479 45.5326 56.5 29.5 56.5C13.4673 56.5 0.5 43.9479 0.5 28.5C0.5 13.0521 13.4673 0.5 29.5 0.5C45.5326 0.5 58.5 13.0521 58.5 28.5Z" stroke="#B0B3FB"/>
<path d="M34.292 39.525C33.779 38.012 34.381 36.742 34.873 35.341C35.308 33.932 35.634 32.375 35.277 30.948C35.206 30.995 33.039 29.88 33.108 29.703C33.232 29.396 32.367 29.843 32.388 29.432H32.386C32.362 29.465 31.543 29.034 30.699 28.922C30.388 28.881 29.401 29.217 29.379 29.073V29.559C29.328 29.872 28.156 31.424 28.087 31.216C27.616 29.8 26.986 32.654 26.898 32.02C26.898 32.02 27.236 33.06 27.203 33.192C27 34.005 26.274 34.755 26.986 36.037C27.827 37.55 28.014 40.386 28.053 41.319C28.06 41.49 28.202 41.625 28.373 41.624L34.869 41.607C35 41.607 35.088 41.472 35.036 41.352C34.782 40.747 34.487 40.153 34.291 39.526L34.292 39.525Z" fill="#FF677D"/>
<path d="M34.589 36.172C35.18 34.527 35.694 32.664 35.278 30.948C35.243 30.971 34.712 30.718 34.184 30.433C33.441 32.264 33.343 34.312 33.171 36.294C33.164 37.118 32.719 37.538 31.902 37.578C30.483 37.726 28.993 37.455 27.652 37.979C27.757 38.463 27.836 38.958 27.894 39.421C28.96 39.389 30.025 39.304 31.084 39.173C31.528 39.118 32.007 39.061 32.397 39.28C33.179 39.763 33.17 40.907 33.704 41.61L34.87 41.607C35.001 41.607 35.089 41.472 35.037 41.352C34.18 39.586 33.689 38.048 34.589 36.173V36.172Z" fill="#DE354E"/>
<path d="M28.0601 30.519C28.2111 30.765 28.3271 30.993 28.4591 31.25C28.5241 31.311 28.8381 31.327 28.9191 31.365C29.9781 31.231 29.9291 29.656 29.9271 29.037C29.9051 28.899 30.6221 28.799 30.6221 28.529L30.3681 28.373C29.9681 28.403 29.7971 27.867 29.4311 27.743C29.3701 27.723 28.6631 28.512 28.6041 28.487C28.5901 29.319 28.7061 29.91 28.0601 30.519Z" fill="#594449"/>
<path d="M34.7729 23.983C34.6269 23.384 33.2169 22.627 32.7819 22.734C32.472 22.793 31.9079 22.566 31.9339 23.019C31.6149 23.027 31.8269 23.23 31.7329 23.019C31.5339 22.568 31.1269 21.608 30.3019 20.998C29.2719 22.701 26.9439 24.034 26.3119 24.205C26.3059 24.207 26.3279 24.294 26.3279 24.294C26.4589 24.821 26.7319 25.948 26.8599 26.466C27.2049 27.876 28.5339 28.807 29.9409 28.699C29.9409 28.699 29.8999 29.557 29.9229 29.695C30.2029 30.648 32.4739 29.435 32.3859 29.431V27.011C32.3859 27.011 32.3879 27.011 32.3859 27.009C32.5109 26.379 33.2869 26.402 33.2999 25.901H33.2199C33.8389 26.026 34.8769 24.644 34.7729 23.983Z" fill="#FFD7CD"/>
<path d="M27.53 25.662C27.336 25.674 27.06 25.589 27.189 25.374C27.239 25.31 27.33 25.296 27.397 25.34C27.563 25.401 28.05 25.283 28.17 25.152C28.263 24.982 28.533 25.123 28.444 25.297C28.173 25.605 27.897 25.637 27.53 25.662Z" fill="#594449"/>
<path d="M35.814 27.832C34.899 25.318 35.527 21.908 34.188 19.726C32.504 17.378 29.062 17.227 27.609 19.257C25.175 19.127 24.111 23.08 26.311 24.202V24.204C26.932 24.036 29.191 23.471 30.248 21.837C30.279 21.789 30.344 21.776 30.388 21.812C31.125 22.414 31.081 23.191 31.273 23.626C31.366 23.837 31.515 23.969 31.834 23.961C32.064 22.946 33.217 23.233 33.423 24.225C33.587 24.907 33.278 25.572 32.679 25.515L32.659 25.543C32.696 26.054 32.601 26.554 32.385 27.006C32.385 27.006 32.385 27.0067 32.385 27.008V29.428H32.387C32.367 29.838 32.306 30.263 32.182 30.57C31.921 31.039 32.067 31.503 32.597 31.671C33.316 31.938 34.096 31.633 34.729 31.269C35.937 30.579 36.345 30.225 35.814 27.829V27.832Z" fill="#594449"/>
<path d="M25.15 21.684C25.104 21.997 25.09 22.323 25.144 22.637C26.549 22.918 27.888 22.296 28.952 21.422C29.915 20.809 31.534 20.308 32.278 21.465C32.947 22.235 33.986 22.995 35.052 22.65C34.902 21.433 34.668 20.455 34.188 19.728C32.631 17.46 28.934 17.154 27.677 19.267C26.304 19.1 25.29 20.424 25.149 21.685L25.15 21.684Z" fill="#6D555C"/>
<path d="M34.739 31.291L34.729 31.273C34.097 31.638 33.316 31.943 32.597 31.675C32.379 32.028 32.147 32.384 31.973 32.766C31.747 33.06 30.845 35.922 30.427 34.892C29.718 33.373 28.998 31.856 28.289 30.336C27.676 28.945 27.447 27.761 25.697 28.165C25.608 28.565 25.832 28.854 25.806 29.263C25.663 30.325 26.726 30.402 26.995 31.437C27.225 32.012 27.306 32.404 27.363 32.796C27.365 34.138 28.603 37.976 29.789 38.272C30.649 38.512 31.71 38.198 32.327 37.551C33.656 36.191 35.729 33.212 34.739 31.29V31.291Z" fill="#FFD7CD"/>
<path d="M29.439 25.311C29.245 25.323 28.969 25.238 29.098 25.023C29.148 24.959 29.239 24.945 29.306 24.989C29.472 25.05 29.959 24.932 30.079 24.801C30.172 24.631 30.442 24.772 30.353 24.946C30.082 25.254 29.806 25.286 29.439 25.311Z" fill="#594449"/>
<path d="M27.443 40.763C27.317 40.099 27.238 39.507 27.194 38.978C25.51 39.006 24.514 37.341 23.448 36.26C24.158 35.773 25.157 35.206 25.878 34.814C26.48 35.605 26.922 36.042 27.278 36.186C27.476 33.881 27.963 29.354 25.114 28.106L24.968 28.095C24.968 28.095 26.669 28.995 26.579 30.171C26.566 30.337 26.381 30.429 26.245 30.333C25.173 29.588 23.386 28.692 22.26 28.094V27.869C20.095 27.759 19.242 30.609 19.186 31.609C18.946 35.944 20.969 37.459 19.882 41.419C19.846 41.522 19.923 41.629 20.032 41.629C21.795 41.645 25.653 41.663 27.443 41.678C27.776 41.672 27.424 40.953 27.441 40.763H27.443Z" fill="#9AA2C6"/>
<path d="M22.8 18.796C21.679 20.143 23.535 21.607 22.155 21.748L22.157 21.841C22.024 21.505 21.785 21.423 21.465 21.399C20.994 21.399 20.615 22.385 20.574 23.019C20.513 23.81 21.061 24.587 21.737 24.319C21.813 24.802 21.995 25.25 22.261 25.639V28.094C23.396 28.697 25.241 29.622 26.295 30.368C26.403 30.445 26.552 30.379 26.571 30.248C26.744 29.034 24.968 28.094 24.968 28.094V27.079C28.571 26.796 28.294 23.8 28.238 21.071C27.525 21.052 24.368 20.365 22.8 18.796Z" fill="#FFC3BA"/>
<path d="M40.8919 20.838C40.8199 19.968 39.7869 20.072 39.4329 20.473C37.9649 19.342 37.0769 21.554 39.4329 22.697C40.1149 22.356 40.9619 21.677 40.8919 20.839V20.838Z" fill="#FC5061"/>
<path d="M38.221 18.099C41.029 16.185 39.512 13.212 37.329 14.947C36.84 14.427 35.407 14.024 34.974 15.212C34.578 16.166 35.528 17.56 36.553 18.187C36.998 18.497 37.32 18.647 37.326 18.646C37.51 18.566 37.997 18.275 38.221 18.099Z" fill="#FC5061"/>
<path d="M24.404 22.23C24.844 22.224 24.844 23.59 24.404 23.584C23.963 23.59 23.963 22.224 24.404 22.23Z" fill="#594449"/>
<path d="M26.982 22.309C27.422 22.303 27.422 23.669 26.982 23.663C26.541 23.669 26.541 22.303 26.982 22.309Z" fill="#594449"/>
<path d="M21.942 23.257C22.033 22.696 21.437 22.292 21.513 22.513C21.752 22.615 21.87 22.868 21.873 23.118C21.7 23.076 21.532 23.248 21.507 23.462C21.482 23.675 21.6 23.864 21.769 23.883C21.894 23.898 21.975 23.485 21.942 23.257Z" fill="#FFA4A4"/>
<path d="M25.664 23.345C25.625 23.568 25.709 23.77 25.802 23.968C25.841 24.05 25.93 24.179 25.893 24.274C25.839 24.376 25.743 24.452 25.673 24.542C25.608 24.617 25.717 24.727 25.783 24.652C25.942 24.488 26.149 24.288 26.009 24.046C25.92 23.841 25.775 23.62 25.815 23.387C25.832 23.289 25.683 23.248 25.666 23.346L25.664 23.345Z" fill="#FFA4A4"/>
<path d="M24.833 25.352C25.068 25.529 25.364 25.624 25.659 25.611C25.779 25.656 26.979 25.267 26.472 25.197C25.993 25.464 25.372 25.591 24.911 25.218C24.831 25.158 24.754 25.293 24.833 25.352Z" fill="#FFA4A4"/>
<path d="M24.206 26.989C23.403 26.797 22.713 26.305 22.261 25.64V28.095C22.267 28.103 22.431 28.188 22.693 28.323C22.689 28.085 22.738 27.126 23.157 27.428C23.693 27.751 24.36 27.603 24.968 27.542V27.08C24.706 27.08 24.45 27.049 24.206 26.989Z" fill="#FFA4A4"/>
<path d="M28.239 21.229C27.691 20.848 24.949 20.591 23.278 19.25C22.196 20.55 22.775 22.038 22.775 22.038C22.706 21.945 23.2 20.317 23.306 20.074C25.523 21.88 28.24 21.229 28.24 21.229H28.239Z" fill="#FFA4A4"/>
<path d="M28.239 21.328V21.441C30.326 19.604 28.172 15.351 25.453 16.263C23.89 14.547 20.963 15.368 19.816 17.183C18.625 18.883 18.614 21.892 20.574 23.021C20.599 22.003 21.652 21.461 22.166 22.346C23.556 22.199 22.154 20.992 23.276 19.637C24.844 21.205 27.526 21.212 28.239 21.23V21.329V21.328Z" fill="#594449"/>
<path d="M27.429 19.76C25.304 20.037 23.492 17.972 22.601 18.524C21.739 19.232 20.105 19.663 19.005 19.621C19.067 17.809 20.283 16.055 22.027 15.501C23.178 15.137 24.64 15.308 25.453 16.261C27.314 15.588 28.985 17.56 29.082 19.301C29.082 19.301 28.634 19.662 27.429 19.76Z" fill="#6D555C"/>
<path d="M27.3549 34.569L27.4159 34.572C27.3839 35.253 27.3249 35.805 27.2799 36.181L27.3859 36.361C27.1899 36.288 25.8419 35.721 25.6989 34.911C25.9399 34.779 26.0929 34.698 26.0929 34.698C25.6029 34.069 24.9059 32.603 24.6899 31.739L24.7169 31.725C25.3619 32.824 26.1559 34.037 27.3559 34.569H27.3549Z" fill="#5A699E"/>
<path d="M27.194 38.981V38.978C25.51 39.006 24.514 37.341 23.448 36.26C23.82 36.005 23.849 35.975 24.274 35.727C20.571 32.797 22.78 28.367 22.694 28.323C22.433 28.188 22.268 28.103 22.262 28.095V27.87C20.096 27.76 19.256 30.612 19.188 31.61C18.892 35.951 20.974 37.464 19.883 41.425C19.848 41.525 19.923 41.63 20.029 41.631L23.089 41.651C22.754 39.89 21.818 38.262 21.687 36.443C22.742 38.06 25.387 40.896 27.443 40.765C27.317 40.103 27.238 39.511 27.194 38.983V38.981Z" fill="#5A699E"/>
<path d="M35.017 37.471C34.435 35.515 30.057 36.462 28.462 36.307C27.055 36.324 26.935 36.125 25.877 34.814C25.156 35.206 24.157 35.774 23.447 36.26C24.39 37.217 25.238 38.574 26.592 38.92C27.508 39.038 28.454 38.998 29.37 38.899C30.975 38.588 32.503 38.038 34.144 37.961C34.113 38.269 34.041 38.478 34.144 38.891C34.622 38.522 35.101 38.08 35.016 37.471H35.017Z" fill="#FFC3BA"/>
<path d="M34.88 37.775L35.009 37.798C34.922 38.239 34.534 38.593 34.145 38.89C34.042 38.477 34.066 38.272 34.097 37.964C32.472 38.041 30.962 38.593 29.371 38.898C28.455 38.997 27.508 39.036 26.593 38.919C25.239 38.573 24.391 37.216 23.448 36.259C23.82 36.004 24.274 35.726 24.698 35.478C27.343 39.516 30.645 36.765 34.309 37.255C34.579 37.287 34.936 37.456 34.88 37.775Z" fill="#FFA4A4"/>
<path d="M32.522 23.688C32.269 23.897 32.267 24.256 32.37 24.543C32.404 24.763 32.589 25.116 32.699 25.069C33.069 24.925 32.74 24.191 32.391 24.392C32.238 23.913 32.706 23.66 32.521 23.687L32.522 23.688Z" fill="#FFA4A4"/>
<path d="M32.386 27.012C31.968 27.941 30.988 28.639 29.941 28.701C29.941 28.701 29.9 29.559 29.923 29.697C30.257 30.674 31.508 29.22 31.756 28.755C32.059 28.141 32.212 27.775 32.386 27.013V27.012Z" fill="#FFA4A4"/>
<path d="M28.7271 25.662C28.7671 25.952 28.4041 26.531 28.9091 26.526C28.9971 26.572 29.0761 26.439 28.9871 26.392C28.8391 26.325 28.7351 26.431 28.8071 26.192C28.8431 26.017 28.8861 25.842 28.8821 25.662C28.8801 25.562 28.7251 25.562 28.7271 25.662Z" fill="#FFA4A4"/>
<path d="M28.866 27.576C29.246 27.565 29.619 27.445 29.932 27.228C30.013 27.172 29.936 27.037 29.854 27.094C29.563 27.296 29.22 27.411 28.866 27.421C28.766 27.424 28.766 27.579 28.866 27.576Z" fill="#FFA4A4"/>
<path d="M39.678 15.212C40.245 16.685 38.154 18.318 37.328 18.646C37.315 18.648 37.001 18.498 36.552 18.187L36.56 18.176C37.287 17.959 38.032 17.413 38.519 16.839C38.976 16.182 39.32 15.124 38.727 14.452V14.447C39.158 14.505 39.521 14.749 39.678 15.212Z" fill="#DE354E"/>
<path d="M35.967 14.799C36.619 14.802 36.619 15.793 35.967 15.796C35.315 15.793 35.315 14.802 35.967 14.799Z" fill="white"/>
<path d="M40.8499 20.632C41.1899 21.517 39.9339 22.499 39.4379 22.697C39.4299 22.698 39.2409 22.608 38.9709 22.421L38.9759 22.414C39.8319 22.169 40.9199 21.077 40.2789 20.176V20.173C40.5379 20.208 40.7569 20.355 40.8509 20.633L40.8499 20.632Z" fill="#DE354E"/>
<path d="M38.618 20.384C39.007 20.378 39.007 20.989 38.618 20.983C38.229 20.989 38.229 20.378 38.618 20.384Z" fill="white"/>
<path d="M31.835 23.961C30.784 23.753 31.447 22.614 30.368 21.797C30.334 21.77 30.284 21.779 30.259 21.814C29.592 22.768 29.104 22.997 28.238 23.512C28.472 23.571 29.982 22.631 30.298 22.095C30.313 22.07 30.35 22.076 30.355 22.105C30.713 24.043 31.835 23.96 31.835 23.96V23.961Z" fill="#FFA4A4"/>
<path d="M39.823 15.15C39.45 14.153 38.265 13.998 37.357 14.765C34.84 12.941 33.214 16.728 37.302 18.731C37.502 18.755 38.165 18.381 39.059 17.538C39.922 16.664 40.02 15.732 39.823 15.15ZM37.357 18.478C37.17 18.385 36.482 18.016 35.834 17.361C34.749 16.251 34.725 14.609 36.162 14.539C36.506 14.55 36.765 14.606 37.25 15.005C37.279 15.03 37.306 15.053 37.36 15.053C39.738 13.254 41.028 16.622 37.357 18.478Z" fill="#3F3436"/>
<path d="M40.081 20.007C39.936 20.019 39.716 20.076 39.462 20.276C38.158 19.34 37.264 20.957 38.403 22.042C38.94 22.563 39.355 22.76 39.464 22.781C39.566 22.763 39.988 22.558 40.521 22.042C41.353 21.198 41.213 19.978 40.082 20.006L40.081 20.007ZM40.341 21.866C39.979 22.232 39.596 22.447 39.461 22.517C38.908 22.271 37.882 21.367 38.17 20.638C38.304 20.277 38.6 20.249 38.821 20.259C38.941 20.269 39.133 20.323 39.364 20.524C39.383 20.54 39.412 20.565 39.463 20.565C40.545 19.712 41.334 20.807 40.341 21.866Z" fill="#3F3436"/>
<path d="M35.449 25.182C35.274 22.838 35.13 20.81 34.334 19.624C32.63 17.419 30.505 17.468 28.945 18.025C28.387 16.646 26.963 15.634 25.558 16.089C23.928 14.426 21.003 15.192 19.79 17.083C18.547 18.882 18.59 21.846 20.521 23.053C20.504 23.87 21.04 24.572 21.712 24.434C21.798 24.858 21.968 25.267 22.208 25.628C22.204 25.64 22.208 27.641 22.207 27.654C21.883 27.583 21.655 27.677 21.609 27.698C18.227 29.271 19.116 33.403 19.39 35.288C19.687 37.426 20.733 38.851 19.768 41.492C19.735 41.57 19.799 41.665 19.885 41.663C19.984 41.617 27.73 41.805 27.792 41.667C27.713 40.755 27.421 39.827 27.391 39.021C27.521 39.022 27.652 39.023 27.783 39.023C27.973 40.352 27.993 41.522 27.993 41.534C27.994 41.603 28.05 41.658 28.119 41.658H35.216C35.338 41.662 35.389 41.489 35.285 41.427C35.14 41.097 34.996 40.765 34.853 40.432C34.608 39.873 34.42 39.423 34.327 38.856C35.179 38.28 35.614 37.19 34.592 36.538C35.298 34.86 35.862 32.387 35.46 30.941C37.041 29.973 35.581 27.135 35.45 25.182H35.449ZM19.86 22.115C18.363 19.929 19.551 16.366 22.137 15.599C23.262 15.239 24.656 15.429 25.415 16.313C25.449 16.358 25.509 16.375 25.561 16.355C26.154 16.124 26.895 16.223 27.497 16.613C28.985 17.69 29.548 19.71 28.401 21.104C27.425 20.961 25.041 21.097 23.433 19.513C23.383 19.461 23.292 19.465 23.247 19.522C22.673 20.212 22.724 20.878 22.762 21.365C22.8 21.859 22.817 22.095 22.298 22.166C21.745 21.337 20.677 21.784 20.546 22.779C20.28 22.618 20.026 22.375 19.859 22.114L19.86 22.115ZM32.41 26.686C31.485 29.229 27.779 29.068 27.066 26.472C27.95 25.818 28.48 24.712 28.42 23.547C29.298 23.1 29.96 22.546 30.388 21.897C31.317 22.558 30.785 24.063 31.885 24.045C32.097 24.011 32.005 23.514 32.445 23.415C33.346 23.269 33.784 25.048 32.915 25.335C32.819 25.374 32.691 25.3 32.622 25.396C32.597 25.427 32.574 25.465 32.578 25.507C32.606 25.907 32.55 26.304 32.409 26.687L32.41 26.686ZM31.972 31.076C32.006 31.315 32.186 31.533 32.459 31.67C31.821 32.578 31.465 33.824 30.863 34.786C30.783 34.914 30.736 34.926 30.72 34.924C30.065 33.849 29.608 32.565 29.024 31.427C29.7 31.353 30.013 30.64 30.112 29.999C30.757 30.359 31.837 29.831 32.291 29.601C32.266 29.884 32.215 30.211 32.112 30.465C32.036 30.652 31.944 30.849 31.972 31.075V31.076ZM28.122 35.366C27.593 33.776 27.662 33.5 27.58 32.171C27.51 31.407 27.156 29.852 26.274 28.866C26.105 28.671 25.909 28.493 25.73 28.353C26.142 28.094 26.903 28.272 27.241 28.541C27.663 28.872 27.782 29.217 27.974 29.727C28.329 30.606 28.758 31.427 29.149 32.286C29.552 33.147 29.958 34.011 30.363 34.872C30.4 34.95 30.497 35.157 30.699 35.175C31.249 35.286 32.169 32.303 32.701 31.764C33.416 31.971 34.116 31.709 34.717 31.38C35.4 32.924 34.173 34.872 33.348 36.129C31.895 35.882 29.903 36.15 28.398 36.101C28.297 35.864 28.204 35.617 28.121 35.366H28.122ZM28.124 36.096C27.857 36.091 27.657 36.08 27.473 36.024C27.534 35.505 27.575 35 27.599 34.493C27.716 34.946 27.921 35.61 28.124 36.096ZM24.974 28.15C25.358 28.321 26.765 29.355 26.492 30.249C25.423 29.479 23.488 28.506 22.459 27.966V25.961C23.073 26.68 23.96 27.114 24.907 27.149V28.039C24.907 28.086 24.933 28.128 24.974 28.15ZM28.785 28.611C29.137 28.731 29.505 28.788 29.871 28.775C29.854 29.022 29.811 29.298 29.877 29.602C29.834 30.187 29.642 31.158 28.897 31.157C28.761 30.868 28.624 30.578 28.489 30.289C28.786 29.797 28.795 29.17 28.785 28.611ZM28.524 29.134C28.51 29.427 28.504 29.749 28.352 29.984C28.079 29.361 27.979 28.783 27.399 28.344C26.976 28.008 26.029 27.789 25.518 28.195C25.364 28.087 25.234 28.008 25.159 27.965V27.15C25.779 27.127 26.357 26.937 26.849 26.623C27.111 27.469 27.716 28.148 28.532 28.511C28.536 28.701 28.538 28.917 28.525 29.135L28.524 29.134ZM30.422 29.855C29.951 29.747 30.121 29.143 30.125 28.757C31.005 28.662 31.818 28.164 32.306 27.433V29.305C32.076 29.445 31.115 29.947 30.422 29.855ZM21.952 24.341C22.16 24.278 22.113 23.985 21.895 24.08C21.311 24.47 20.773 23.841 20.773 23.088C20.768 22.448 21.199 21.818 21.739 22.014C21.939 22.086 22.112 22.289 22.208 22.514C22.277 22.673 22.52 22.547 22.432 22.398C23.629 22.155 22.514 20.764 23.359 19.789C24.888 21.215 27.308 21.293 28.169 21.313C28.24 23.914 28.406 26.628 25.033 26.9C23.562 26.92 22.206 25.793 21.952 24.341ZM27.536 41.461L20.067 41.412C20.946 38.741 19.933 37.353 19.639 35.239C19.381 33.451 18.496 29.411 21.716 27.926C21.725 27.922 21.916 27.83 22.208 27.913C22.222 28.208 22.148 28.066 22.688 28.369C23.585 28.833 25.686 29.921 26.482 30.558C26.729 30.689 26.744 30.255 26.766 30.104C27.66 32.197 27.383 33.884 27.233 35.916C26.953 35.751 26.645 35.422 26.149 34.771C26.258 34.727 26.315 34.655 26.259 34.555C26.254 34.548 25.793 33.856 25.631 33.545C25.275 32.86 25.049 32.196 24.875 31.637C24.854 31.571 24.784 31.533 24.717 31.554C24.651 31.575 24.613 31.645 24.634 31.712C24.868 32.548 25.386 33.777 25.972 34.58C25.19 35.008 24.002 35.657 23.121 36.311C21.933 34.723 21.093 32.864 20.688 30.926C20.674 30.858 20.607 30.815 20.539 30.828C20.471 30.842 20.427 30.909 20.441 30.977C20.862 32.993 21.746 34.925 22.997 36.564C23.167 36.718 23.315 36.431 23.488 36.353C24.513 37.386 25.597 39.042 27.136 39.014C27.205 39.771 27.339 40.592 27.534 41.46L27.536 41.461ZM34.623 40.532C34.748 40.824 34.876 41.115 35.003 41.406H28.243C28.233 41.071 28.191 40.102 28.039 39.023C30.08 39.089 31.967 38.116 34.021 38.02C33.939 38.821 34.297 39.82 34.624 40.532H34.623ZM34.932 37.409C35 37.868 34.685 38.237 34.29 38.563C34.277 38.402 34.258 38.242 34.288 38.081C34.291 37.992 34.348 37.868 34.276 37.79C33.247 37.746 32.538 37.978 31.581 38.168C30.926 38.326 30.017 38.604 29.407 38.689C28.696 38.789 27.968 38.772 27.257 38.767C25.766 38.856 24.695 37.209 23.701 36.21C24.457 35.705 25.351 35.206 25.93 34.889C26.528 35.705 26.924 36.08 27.29 36.224C28.203 36.474 29.175 36.327 30.209 36.318C31.582 36.317 34.513 35.94 34.932 37.407V37.409ZM34.93 34.768C34.771 35.343 34.585 35.877 34.37 36.416C34.133 36.306 33.88 36.241 33.621 36.182C34.478 34.843 35.684 32.892 34.939 31.256C35.04 31.197 35.137 31.141 35.235 31.083C35.446 32.098 35.349 33.275 34.931 34.768H34.93ZM35.483 30.605C34.737 31.142 33.622 31.831 32.683 31.493C32.449 31.412 32.242 31.226 32.223 31.043C32.202 30.892 32.281 30.721 32.347 30.561C32.493 30.199 32.544 29.719 32.561 29.38C32.58 28.754 32.548 27.592 32.559 26.986C32.761 26.553 32.854 26.07 32.838 25.6C33.51 25.55 33.754 24.768 33.591 24.152C33.408 23.181 32.162 22.671 31.788 23.79C31.128 23.755 31.5 22.297 30.433 21.61C30.376 21.566 30.286 21.584 30.25 21.646C29.868 22.277 29.254 22.821 28.422 23.263V21.453C29.271 20.63 29.486 19.363 29.042 18.257C30.501 17.729 32.529 17.69 34.126 19.761C34.885 20.89 35.028 22.897 35.2 25.2C35.284 26.896 36.619 29.698 35.484 30.604L35.483 30.605Z" fill="#3F3436"/>
</svg>
