<svg width="59" height="57" viewBox="0 0 59 57" fill="none" xmlns="http://www.w3.org/2000/svg">
<path d="M58.5 28.5C58.5 43.9479 45.5326 56.5 29.5 56.5C13.4673 56.5 0.5 43.9479 0.5 28.5C0.5 13.0521 13.4673 0.5 29.5 0.5C45.5326 0.5 58.5 13.0521 58.5 28.5Z" stroke="#B0B3FB"/>
<path d="M33.672 36.123C33.161 33.891 32.277 32.67 32.108 29.814C32.07 29.602 31.994 29.365 31.889 29.125C31.692 28.678 31.383 28.219 30.984 27.88C30.689 27.627 30.329 27.44 29.942 27.374C29.747 27.696 30.31 28.875 30.309 30.227L30.365 30.29C30.371 30.934 29.739 30.714 29.735 30.713C28.359 30.302 27.582 27.563 27.552 27.524C27.552 27.445 27.083 27.429 27.083 27.35C24.611 27.121 23.295 28.718 22.551 30.882C22.32 31.342 21.042 36.57 21.743 36.365L21.729 36.434C22.152 36.528 23.158 36.809 23.959 36.921C23.964 36.88 23.968 36.836 23.973 36.793C24.196 36.975 24.476 37.64 24.576 37.603C24.395 39.294 24.759 41.95 24.759 41.95H32.966C33.22 41.182 33.451 40.518 33.623 39.653C33.881 38.496 33.902 37.068 33.673 36.123H33.672Z" fill="#AEDEFF"/>
<path d="M30.27 40.024C28.246 39.99 26.957 38 26.538 36.199C26.123 34.562 26.449 32.878 26.628 31.231C26.473 31.232 26.326 31.363 26.216 31.487C24.901 32.947 24.154 34.849 23.967 36.795C24.197 36.828 24.543 37.646 24.657 37.603C24.476 39.294 24.84 41.95 24.84 41.95H33.047C33.301 41.182 33.532 40.518 33.704 39.653C32.624 40.075 31.428 40.115 30.271 40.024H30.27Z" fill="#63BAF5"/>
<path d="M33.555 26.913C34.44 25.619 34.63 23.565 34.588 23.538C34.588 23.538 34.768 22.874 34.057 23.037L33.339 24.045C33.332 24.086 32.125 27.385 32.125 27.385C32.125 27.385 31.704 28.652 31.901 29.1C32.007 29.34 32.082 29.577 32.12 29.789C32.29 32.645 33.173 33.865 33.684 36.098C34.213 35.919 34.591 35.461 34.756 34.795C35.191 33.612 33.72 28.195 33.555 26.913Z" fill="#FFD7CD"/>
<path d="M34.601 23.634C34.601 23.634 34.86 22.899 34.15 23.062L33.432 24.07C33.425 24.111 32.126 27.385 32.126 27.385L31.994 29.125C32.1 29.365 32.175 29.602 32.213 29.814C32.383 32.67 33.266 33.89 33.777 36.123C34.306 35.944 31.658 29.443 33.141 26.529C33.36 26.099 34.642 23.661 34.601 23.634Z" fill="#FFA4A4"/>
<path d="M33.692 24.728L33.864 24.103C33.83 24.319 33.782 24.509 33.692 24.728Z" fill="#FFA4A4"/>
<path d="M34.344 20.538C34.211 20.501 33.777 20.385 33.655 20.338C33.604 20.396 33.541 20.447 33.483 20.502C33.553 20.565 33.196 22.975 33.182 23.13C33.182 23.404 30.794 25.921 30.794 25.921L29.973 25.779L30.014 26.798L30.976 27.06L32.446 27.464C32.7 27.534 32.964 27.383 33.034 27.129L33.864 24.104L34.149 23.063L34.679 21.126C34.749 20.872 34.599 20.608 34.344 20.538Z" fill="#737373"/>
<path d="M33.848 21.003C33.769 20.975 33.572 20.906 33.492 20.889C33.448 20.938 33.402 20.987 33.353 21.033C33.402 21.128 33.072 23.104 33.058 23.248C33.058 23.481 31.025 25.624 31.025 25.624L30.326 25.503L30.361 26.37L31.18 26.593L32.233 26.899C32.449 26.958 32.674 26.83 32.733 26.614L34.133 21.504C34.192 21.288 34.065 21.063 33.848 21.004V21.003Z" fill="#E0E0EF"/>
<path d="M34.394 17.955C34.297 17.367 34.055 16.804 33.728 16.305C33.09 15.277 31.756 14.574 30.574 15.032C28.657 12.97 25.127 14.362 24.174 16.751C23.336 18.592 23.616 21.221 25.482 22.29C25.525 21.618 28.699 22.802 28.422 19.169C29.353 20.263 32.682 20.497 33.435 20.592C34.21 19.964 34.546 18.944 34.393 17.955H34.394Z" fill="#66555A"/>
<path d="M24.636 36.826C23.8 36.75 22.392 36.487 21.847 36.365C21.803 36.594 21.773 36.901 21.742 37.133V37.135C21.556 38.72 21.486 40.317 21.539 41.913L21.572 41.949H25.109C25.101 40.434 25.166 38.918 25.308 37.409C25.347 37.02 24.99 36.804 24.636 36.826Z" fill="#FFD7CD"/>
<path d="M42.306 19.722C41.767 18.276 40.048 18.768 39.446 19.401C36.615 17.141 34.562 21.462 39.446 23.893C40.458 23.501 42.996 21.501 42.306 19.722Z" fill="#FC5061"/>
<path d="M39.75 28.781C39.458 28.688 38.955 29.035 38.95 29.067C38.945 29.067 38.681 28.804 38.353 28.777C37.401 28.736 37.335 29.828 38.031 30.507C38.228 30.737 38.823 31.135 38.954 31.173C38.954 31.173 39.426 30.959 39.872 30.507C40.494 29.874 40.547 28.946 39.75 28.781Z" fill="#FC5061"/>
<path d="M21.068 22.571C20.525 22.431 19.816 22.965 19.756 23.039C17.683 21.398 16.263 24.263 19.037 26.064H19.038C19.457 26.355 19.749 26.495 19.762 26.493C19.762 26.493 20.538 26.141 21.269 25.401C22.288 24.362 22.375 22.841 21.069 22.571H21.068Z" fill="#FC5061"/>
<path d="M42.306 19.722C41.767 18.276 40.048 18.768 39.446 19.401C36.615 17.141 34.562 21.462 39.446 23.893C40.458 23.501 42.996 21.501 42.306 19.722Z" fill="#FC5061"/>
<path d="M39.75 28.781C39.458 28.688 38.955 29.035 38.95 29.067C38.945 29.067 38.681 28.804 38.353 28.777C37.401 28.736 37.335 29.828 38.031 30.507C38.228 30.737 38.823 31.135 38.954 31.173C38.954 31.173 39.426 30.959 39.872 30.507C40.494 29.874 40.547 28.946 39.75 28.781Z" fill="#FC5061"/>
<path d="M21.068 22.571C20.525 22.431 19.816 22.965 19.756 23.039C17.683 21.398 16.263 24.263 19.037 26.064H19.038C19.457 26.355 19.749 26.495 19.762 26.493C19.762 26.493 20.538 26.141 21.269 25.401C22.288 24.362 22.375 22.841 21.069 22.571H21.068Z" fill="#FC5061"/>
<path d="M31.02 20.026C30.065 19.801 29.037 19.386 28.264 18.613C27.073 20.051 28.559 21.328 27.086 21.488C26.539 20.547 25.423 21.121 25.396 22.203C25.331 23.041 25.913 23.868 26.631 23.581C26.711 24.095 26.905 24.571 27.186 24.983V27.479C27.218 27.52 28.414 30.769 29.836 31.179C31.611 31.591 30.023 27.368 30.082 27.46C30.027 27.232 30.072 26.742 30.058 26.511C30.337 26.511 30.607 26.478 30.867 26.416C30.867 26.416 33.134 25.108 33.435 23.839C33.615 23.123 33.495 21.274 33.528 20.528C33.527 20.468 33.528 20.364 33.528 20.303C33.528 20.302 32.079 20.275 31.019 20.026H31.02Z" fill="#FFD7CD"/>
<path d="M32.755 15.32C33.148 15.574 33.471 15.916 33.728 16.305C33.234 16.993 32.125 17.499 31.258 17.681C28.908 18.327 26.109 18.442 24.174 16.752C25.127 14.363 28.658 12.97 30.574 15.032C31.285 14.757 32.116 14.906 32.755 15.32Z" fill="#7F7075"/>
<path d="M32.693 22.084C32.69 23.024 31.977 23.025 31.975 22.084C31.977 21.143 32.69 21.144 32.693 22.084Z" fill="#594449"/>
<path d="M29.461 22.802C28.995 22.809 28.995 21.359 29.461 21.365C29.929 21.359 29.929 22.808 29.461 22.802Z" fill="#594449"/>
<path d="M29.941 27.524V26.581C29.705 26.581 29.167 26.513 29.165 26.513C28.85 26.448 27.135 25.285 27.069 25.132C27.125 25.651 28.951 27.697 29.941 27.524Z" fill="#FFA4A4"/>
<path d="M26.729 22.441C26.831 21.747 26.122 21.311 26.222 21.562C26.504 21.682 26.643 21.981 26.647 22.276C26.443 22.227 26.245 22.43 26.216 22.682C26.187 22.933 26.325 23.156 26.525 23.179C26.672 23.196 26.768 22.709 26.729 22.44V22.441Z" fill="#FFA4A4"/>
<path d="M30.726 22.451C30.856 22.699 31.298 23.01 31.015 23.289C30.931 23.382 30.847 23.475 30.762 23.567C30.693 23.643 30.806 23.757 30.876 23.681C31.027 23.486 31.306 23.319 31.272 23.042C31.215 22.782 31.003 22.59 30.865 22.37C30.805 22.287 30.666 22.367 30.726 22.451Z" fill="#FFA4A4"/>
<path d="M29.881 24.718C30.348 25.188 31.117 25.138 31.623 24.757C31.707 24.698 31.627 24.559 31.542 24.618C31.096 24.96 30.414 25.024 29.995 24.605C29.923 24.531 29.809 24.645 29.881 24.719V24.718Z" fill="#FFA4A4"/>
<path d="M24.636 36.826C23.8 36.75 22.392 36.487 21.847 36.365C21.816 36.512 21.803 36.671 21.778 36.842C23.207 37.093 24.199 37.938 24.18 39.458C24.232 40.281 23.925 41.148 24.17 41.95H25.109C25.1 40.392 25.17 38.832 25.32 37.281C25.352 36.881 24.953 36.824 24.636 36.826Z" fill="#FFA4A4"/>
<path d="M38.51 23.335L38.52 23.321C39.362 23.083 40.345 22.368 40.899 21.697C41.454 20.899 41.872 19.615 41.152 18.798V18.793C41.675 18.864 42.118 19.16 42.307 19.722C42.997 21.509 40.455 23.494 39.453 23.893C39.439 23.895 39.055 23.713 38.511 23.335H38.51Z" fill="#DE354E"/>
<path d="M37.798 19.221C38.589 19.225 38.588 20.428 37.798 20.432C37.008 20.428 37.007 19.225 37.798 19.221Z" fill="white"/>
<path d="M38.623 29.245C38.629 29.613 38.051 29.613 38.056 29.245C38.051 28.877 38.629 28.877 38.623 29.245Z" fill="white"/>
<path d="M38.623 30.878L38.627 30.872C39.444 30.638 40.463 29.611 39.861 28.751V28.748C40.659 28.913 40.605 29.841 39.983 30.474C39.537 30.926 39.064 31.14 39.064 31.14C39.057 31.141 38.877 31.057 38.622 30.879L38.623 30.878Z" fill="#DE354E"/>
<path d="M21.23 22.554V22.55C22.536 22.821 22.449 24.341 21.43 25.38C20.699 26.12 19.923 26.472 19.923 26.472C19.91 26.475 19.618 26.333 19.199 26.043L19.205 26.032C19.901 25.819 20.565 25.332 21.035 24.784C21.462 24.17 21.783 23.183 21.23 22.555V22.554Z" fill="#DE354E"/>
<path d="M18.651 23.81C18.042 23.807 18.042 22.882 18.651 22.88C19.26 22.883 19.259 23.807 18.651 23.81Z" fill="white"/>
<path d="M33.53 20.409C33.53 20.374 33.53 20.339 33.53 20.304C32.493 20.356 29.368 19.942 28.265 18.614C27.117 19.993 28.456 21.241 27.238 21.463C27.685 21.693 28.182 21.262 28.119 20.775C28.11 20.222 27.977 19.634 28.224 19.139C29.618 20.449 31.676 20.983 33.53 20.51V20.408V20.409Z" fill="#FFA4A4"/>
<path d="M42.445 19.678C41.977 18.442 40.548 18.323 39.472 19.232C36.52 17.019 34.408 21.507 39.415 23.999C40.662 23.647 43.106 21.546 42.445 19.679V19.678ZM39.471 23.736C39.039 23.544 38.017 22.83 37.606 22.371C36.269 21 36.257 18.996 38.028 18.906C38.443 18.919 38.763 18.99 39.355 19.476C39.39 19.506 39.418 19.53 39.474 19.53C42.321 17.344 44.02 21.429 39.471 23.736Z" fill="#3F3436"/>
<path d="M22.148 23.233C21.776 22.275 20.682 22.156 19.833 22.86C17.495 21.167 15.922 24.691 19.776 26.592C19.988 26.614 20.578 26.272 21.432 25.476C22.243 24.655 22.333 23.779 22.148 23.233ZM19.833 26.33C19.489 26.172 18.739 25.645 18.421 25.293C17.286 24.199 17.552 22.549 18.844 22.683C19.04 22.699 19.353 22.787 19.725 23.11C19.752 23.134 19.781 23.158 19.836 23.158C19.886 23.158 19.914 23.134 19.944 23.108C20.47 22.692 20.686 22.658 21.123 22.69C22.293 22.928 22.197 24.3 21.247 25.292C20.65 25.896 20.016 26.238 19.834 26.329L19.833 26.33Z" fill="#3F3436"/>
<path d="M39.789 28.625C39.489 28.602 39.323 28.623 38.976 28.872C37.503 27.907 36.735 29.898 38.461 30.986C38.827 31.207 38.854 31.283 39.031 31.259C39.051 31.25 39.529 31.03 39.986 30.568C40.701 29.824 40.69 28.81 39.789 28.626V28.625ZM39.801 30.384C39.463 30.726 39.107 30.927 38.976 30.995C38.345 30.703 37.51 29.857 37.764 29.231C37.883 28.88 38.226 28.869 38.369 28.881C38.481 28.89 38.661 28.941 38.877 29.129C38.896 29.146 38.926 29.171 38.978 29.171C40.012 28.363 40.727 29.405 39.801 30.385V30.384Z" fill="#3F3436"/>
<path d="M34.848 34.831C35.255 33.629 33.996 29.211 33.838 27.923C33.726 27.359 33.786 26.781 34.011 26.253C34.541 24.891 35.391 23.101 34.199 22.928L34.679 21.176C34.822 20.573 34.266 20.403 33.799 20.305C35.587 18.177 33.266 14.054 30.501 14.91C28.773 13.147 25.668 13.958 24.385 15.965C23.073 17.853 23.121 21.039 25.16 22.298C25.144 23.164 25.71 23.909 26.424 23.759C26.514 24.214 26.69 24.64 26.948 25.028V27.187C25.374 26.818 23.101 28.362 22.436 30.827C22.151 31.436 20.944 36.577 21.602 36.44C21.395 38.245 21.159 40.198 21.367 41.978C21.425 42.159 32.834 41.98 32.946 42.041C33.08 42.051 33.096 41.843 33.134 41.758C33.734 40.071 34.189 37.97 33.801 36.181C34.314 35.965 34.684 35.49 34.847 34.83L34.848 34.831ZM34.184 20.681C34.364 20.726 34.48 20.929 34.427 21.107L32.787 27.094C32.763 27.183 32.705 27.257 32.624 27.303C32.543 27.349 32.45 27.361 32.361 27.337C31.835 27.188 30.588 26.855 30.075 26.711V26.641C31.661 26.601 33.087 25.419 33.441 23.876C33.618 23.314 33.508 21.211 33.537 20.601C33.562 20.576 33.587 20.551 33.612 20.525L34.185 20.682L34.184 20.681ZM29.814 27.376C29.76 27.416 31.355 31.461 29.73 31.039C29.065 30.899 27.659 29.133 27.21 27.349V25.374C27.858 26.137 28.814 26.61 29.814 26.64V27.376ZM31.948 27.494C31.868 27.904 31.826 28.314 31.823 28.727C31.436 28.04 30.826 27.436 30.075 27.268V26.98C30.517 27.1 31.498 27.37 31.948 27.493V27.494ZM24.454 21.303C22.877 18.997 24.128 15.186 26.872 14.384C28.068 14.003 29.546 14.203 30.354 15.143C30.389 15.189 30.451 15.207 30.505 15.186C31.136 14.942 31.924 15.047 32.562 15.461C34.029 16.433 34.786 18.819 33.519 20.234C33.474 20.179 33.395 20.192 33.331 20.188C32.07 20.267 29.177 19.692 28.247 18.543C28.196 18.49 28.101 18.493 28.054 18.552C27.445 19.283 27.499 19.989 27.539 20.505C27.579 21.032 27.598 21.284 27.043 21.36C26.457 20.477 25.322 20.956 25.187 22.012C24.904 21.841 24.633 21.582 24.453 21.303H24.454ZM26.673 23.662C26.89 23.598 26.848 23.293 26.618 23.39C25.997 23.805 25.422 23.138 25.422 22.336C25.417 21.654 25.877 20.982 26.452 21.193C26.661 21.263 26.854 21.495 26.951 21.726C27.026 21.892 27.277 21.754 27.181 21.601C28.454 21.345 27.267 19.867 28.171 18.83C29.143 19.94 32 20.52 33.278 20.448C33.273 22.914 33.708 25.404 30.724 26.29C28.934 26.762 26.976 25.485 26.676 23.662H26.673ZM24.877 41.78H21.575C21.522 40.037 21.619 38.232 21.86 36.496C22.627 36.645 24.175 36.972 25.118 36.95C24.954 38.545 24.872 40.168 24.877 41.78ZM33.6 38.85C33.466 39.88 33.172 40.844 32.852 41.78H25.138C25.133 40.141 25.217 38.49 25.388 36.869C25.921 34.546 26.131 33.008 26.887 31.124C26.573 29.892 25.266 36.006 25.201 36.669C24.295 36.766 22.354 36.32 21.657 36.183C21.867 33.05 22.979 26.857 26.954 27.453C28.152 31.589 32.167 33.577 30.141 27.556C31.078 27.854 31.76 28.866 31.962 29.822C32.108 33.517 34.12 35.378 33.599 38.849L33.6 38.85ZM33.746 35.92C33.593 35.253 33.395 34.695 33.184 34.086C32.682 32.868 32.365 31.261 32.134 29.438C32.1 28.809 32.097 28.19 32.227 27.57C32.553 27.697 32.952 27.507 33.038 27.162L34.126 23.191C35.144 23.157 33.971 25.599 33.77 26.15C33.524 26.727 33.459 27.358 33.581 27.973L34.576 32.993C34.8 34.104 34.736 35.412 33.746 35.919V35.92Z" fill="#3F3436"/>
</svg>
